<?xml version="1.0" encoding="UTF-8"?>
<svg xmlns="http://www.w3.org/2000/svg" xmlns:xlink="http://www.w3.org/1999/xlink" width="238.199081pt" height="177.351074pt" viewBox="0 0 238.199081 177.351074" version="1.1">
<defs>
<clipPath id="clip1">
  <path d="M 0 0 L 230.113281 0 L 230.113281 152.929688 L 0 152.929688 Z M 0 0 "/>
</clipPath>
<clipPath id="clip2">
  <path d="M 173 125 L 230 125 L 230 152.929688 L 173 152.929688 Z M 173 125 "/>
</clipPath>
<clipPath id="clip3">
  <path d="M 173 124 L 230 124 L 230 152.929688 L 173 152.929688 Z M 173 124 "/>
</clipPath>
<clipPath id="clip4">
  <path d="M 63.28125 166.828125 L 72.628906 166.828125 L 72.628906 176.898438 L 63.28125 176.898438 Z M 63.28125 166.828125 "/>
</clipPath>
<clipPath id="clip6">
  <path d="M 0.28125 2 L 9.628906 2 L 9.628906 10 L 0.28125 10 Z M 0.28125 2 "/>
</clipPath>
<clipPath id="clip5">
  <rect width="10" height="11"/>
</clipPath>
<g id="surface7" clip-path="url(#clip5)">
<g clip-path="url(#clip6)" clip-rule="nonzero">
<path style="fill-rule:nonzero;fill:rgb(30.195618%,30.195618%,30.195618%);fill-opacity:1;stroke-width:0.0107514;stroke-linecap:butt;stroke-linejoin:miter;stroke:rgb(30.195618%,30.195618%,30.195618%);stroke-opacity:0.0118;stroke-miterlimit:10;" d="M 66.464844 -180.608805 C 66.335938 -180.588698 65.859375 -180.576634 65.042969 -180.576634 C 64.285156 -180.576634 63.871094 -180.588698 63.808594 -180.608805 L 63.710938 -180.608805 L 63.710938 -179.941268 L 64.269531 -179.941268 C 64.644531 -179.941268 64.828125 -179.937247 64.828125 -179.921162 C 66.578125 -175.489685 67.484375 -173.249819 67.550781 -173.201564 C 67.59375 -173.137223 67.726562 -173.105052 67.945312 -173.105052 C 68.15625 -173.105052 68.289062 -173.137223 68.34375 -173.201564 C 68.375 -173.22167 68.613281 -173.792695 69.066406 -174.910618 C 69.515625 -176.02854 69.964844 -177.146462 70.410156 -178.264385 L 71.066406 -179.921162 C 71.066406 -179.937247 71.25 -179.941268 71.625 -179.941268 L 72.183594 -179.941268 L 72.183594 -180.608805 L 72.066406 -180.608805 C 71.914062 -180.588698 71.34375 -180.576634 70.355469 -180.576634 C 69.289062 -180.576634 68.667969 -180.588698 68.496094 -180.608805 L 68.355469 -180.608805 L 68.355469 -179.941268 L 68.839844 -179.941268 C 69.15625 -179.941268 69.3125 -179.937247 69.3125 -179.933226 L 68.839844 -178.726835 L 66.097656 -178.726835 L 65.859375 -179.317966 C 65.703125 -179.712054 65.621094 -179.913119 65.613281 -179.921162 C 65.613281 -179.937247 65.773438 -179.941268 66.085938 -179.941268 L 66.570312 -179.941268 L 66.570312 -180.608805 Z M 67.472656 -178.059298 L 68.570312 -178.051256 L 68.011719 -176.684013 C 67.652344 -175.783241 67.464844 -175.328833 67.453125 -175.328833 C 66.726562 -177.13842 66.367188 -178.047234 66.367188 -178.059298 Z M 67.472656 -178.059298 " transform="matrix(1,0,0,-0.971389,-63,-166)"/>
</g>
</g>
<clipPath id="clip7">
  <path d="M 163.234375 166.109375 L 238.199219 166.109375 L 238.199219 177.351562 L 163.234375 177.351562 Z M 163.234375 166.109375 "/>
</clipPath>
<clipPath id="clip9">
  <path d="M 1 0.109375 L 3 0.109375 L 3 11.351562 L 1 11.351562 Z M 1 0.109375 "/>
</clipPath>
<clipPath id="clip10">
  <path d="M 73 0.109375 L 75.199219 0.109375 L 75.199219 11.351562 L 73 11.351562 Z M 73 0.109375 "/>
</clipPath>
<clipPath id="clip8">
  <rect width="76" height="12"/>
</clipPath>
<g id="surface6" clip-path="url(#clip8)">
<g clip-path="url(#clip9)" clip-rule="nonzero">
<path style="fill-rule:nonzero;fill:rgb(30.195618%,30.195618%,30.195618%);fill-opacity:1;stroke-width:0.0104837;stroke-linecap:butt;stroke-linejoin:miter;stroke:rgb(30.195618%,30.195618%,30.195618%);stroke-opacity:0.0118;stroke-miterlimit:10;" d="M 164.484375 -177.778413 L 164.484375 -167.292067 L 165.917969 -167.292067 L 165.917969 -167.711051 L 164.902344 -167.711051 L 164.902344 -177.355514 L 165.917969 -177.355514 L 165.917969 -177.778413 Z M 164.484375 -177.778413 " transform="matrix(1,0,0,-0.997577,-163,-166)"/>
</g>
<path style="fill-rule:nonzero;fill:rgb(30.195618%,30.195618%,30.195618%);fill-opacity:1;stroke-width:0.0104837;stroke-linecap:butt;stroke-linejoin:miter;stroke:rgb(30.195618%,30.195618%,30.195618%);stroke-opacity:0.0118;stroke-miterlimit:10;" d="M 169.589844 -175.154869 C 169.441406 -175.13529 168.90625 -175.123543 167.984375 -175.123543 C 167.132812 -175.123543 166.675781 -175.13529 166.609375 -175.154869 L 166.507812 -175.154869 L 166.507812 -174.504857 L 167.1875 -174.504857 L 167.859375 -174.497025 L 169.933594 -171.665947 L 167.804688 -168.615587 L 166.664062 -168.615587 L 166.664062 -167.965574 L 166.777344 -167.965574 C 166.925781 -167.985153 167.476562 -167.9969 168.433594 -167.9969 C 169.492188 -167.9969 170.113281 -167.985153 170.300781 -167.965574 L 170.4375 -167.965574 L 170.4375 -168.615587 L 169.671875 -168.615587 L 170.28125 -169.492712 L 170.898438 -170.354174 L 172.167969 -168.623418 C 172.167969 -168.615587 172.011719 -168.615587 171.695312 -168.615587 L 171.222656 -168.615587 L 171.222656 -167.965574 L 171.339844 -167.965574 C 171.484375 -167.985153 172.015625 -167.9969 172.933594 -167.9969 C 173.792969 -167.9969 174.253906 -167.985153 174.316406 -167.965574 L 174.410156 -167.965574 L 174.410156 -168.615587 L 173.058594 -168.615587 L 172.1875 -169.79814 C 171.617188 -170.589119 171.328125 -170.988524 171.328125 -170.99244 L 171.484375 -171.215637 C 171.582031 -171.352688 171.742188 -171.575885 171.957031 -171.885228 C 172.175781 -172.190655 172.378906 -172.48042 172.566406 -172.754522 L 173.78125 -174.504857 L 174.914062 -174.504857 L 174.914062 -175.154869 L 174.796875 -175.154869 C 174.652344 -175.13529 174.101562 -175.123543 173.152344 -175.123543 C 172.097656 -175.123543 171.476562 -175.13529 171.285156 -175.154869 L 171.152344 -175.154869 L 171.152344 -174.504857 L 171.539062 -174.504857 L 171.914062 -174.497025 L 170.363281 -172.284633 L 168.75 -174.497025 C 168.75 -174.500941 168.90625 -174.504857 169.222656 -174.504857 L 169.703125 -174.504857 L 169.703125 -175.154869 Z M 169.589844 -175.154869 " transform="matrix(1,0,0,-0.997577,-163,-166)"/>
<path style="fill-rule:nonzero;fill:rgb(30.195618%,30.195618%,30.195618%);fill-opacity:1;stroke-width:0.00741199;stroke-linecap:butt;stroke-linejoin:miter;stroke:rgb(30.195618%,30.195618%,30.195618%);stroke-opacity:0.00779999;stroke-miterlimit:10;" d="M 176.847656 -172.445178 L 176.753906 -172.48042 C 176.683594 -172.503914 176.585938 -172.531325 176.457031 -172.554819 C 176.328125 -172.578314 176.183594 -172.597892 176.027344 -172.605724 L 175.886719 -172.605724 L 175.886719 -172.265054 L 176.027344 -172.265054 C 176.257812 -172.257223 176.472656 -172.218066 176.671875 -172.155414 C 176.867188 -172.088846 177.007812 -172.03011 177.085938 -171.97529 C 177.164062 -171.924385 177.234375 -171.869565 177.292969 -171.814745 C 177.304688 -171.799082 177.332031 -171.79125 177.382812 -171.79125 C 177.425781 -171.79125 177.46875 -171.806913 177.507812 -171.838239 L 177.507812 -174.050631 L 177.515625 -176.27477 C 177.550781 -176.310012 177.582031 -176.333506 177.605469 -176.341338 C 177.628906 -176.353085 177.6875 -176.360916 177.785156 -176.372663 C 177.878906 -176.380495 178.03125 -176.388326 178.242188 -176.388326 L 178.433594 -176.388326 L 178.433594 -176.728996 L 178.355469 -176.728996 C 178.25 -176.713333 177.855469 -176.705501 177.175781 -176.705501 C 176.503906 -176.705501 176.117188 -176.713333 176.011719 -176.728996 L 175.921875 -176.728996 L 175.921875 -176.388326 L 176.117188 -176.388326 C 176.222656 -176.388326 176.316406 -176.388326 176.398438 -176.388326 C 176.476562 -176.388326 176.539062 -176.384411 176.582031 -176.380495 C 176.628906 -176.376579 176.667969 -176.368748 176.699219 -176.357001 C 176.734375 -176.349169 176.753906 -176.341338 176.761719 -176.341338 C 176.765625 -176.341338 176.78125 -176.32959 176.804688 -176.306096 C 176.828125 -176.282601 176.84375 -176.270854 176.847656 -176.27477 Z M 176.847656 -172.445178 " transform="matrix(1,0,0,-0.997577,-163,-166)"/>
<path style="fill-rule:nonzero;fill:rgb(30.195618%,30.195618%,30.195618%);fill-opacity:1;stroke-width:0.0104837;stroke-linecap:butt;stroke-linejoin:miter;stroke:rgb(30.195618%,30.195618%,30.195618%);stroke-opacity:0.0118;stroke-miterlimit:10;" d="M 180.847656 -174.790705 C 180.847656 -174.790705 180.847656 -174.700643 180.847656 -174.528351 C 180.847656 -174.352143 180.902344 -174.203345 181.015625 -174.074125 C 181.128906 -173.948822 181.277344 -173.88617 181.464844 -173.88617 C 181.664062 -173.88617 181.835938 -173.976232 181.992188 -174.148524 C 182.144531 -174.324733 182.226562 -174.63016 182.230469 -175.072639 C 182.230469 -175.315414 182.199219 -175.554274 182.136719 -175.785303 C 182.074219 -176.016331 182 -176.216034 181.917969 -176.380495 C 181.832031 -176.548872 181.742188 -176.693754 181.644531 -176.811226 C 181.546875 -176.932614 181.464844 -177.026592 181.394531 -177.097075 C 181.324219 -177.163643 181.277344 -177.194968 181.257812 -177.191053 C 181.230469 -177.191053 181.183594 -177.159727 181.121094 -177.097075 C 181.058594 -177.030507 181.027344 -176.987434 181.027344 -176.960024 C 181.027344 -176.932614 181.066406 -176.873878 181.140625 -176.791647 C 181.21875 -176.705501 181.304688 -176.603692 181.402344 -176.478388 C 181.5 -176.349169 181.59375 -176.176877 181.675781 -175.95368 C 181.761719 -175.730482 181.816406 -175.472044 181.84375 -175.186195 L 181.84375 -175.060891 L 181.832031 -175.072639 C 181.820312 -175.08047 181.800781 -175.084386 181.78125 -175.092217 C 181.761719 -175.100049 181.738281 -175.111796 181.71875 -175.123543 C 181.695312 -175.139206 181.664062 -175.147038 181.625 -175.147038 C 181.582031 -175.147038 181.539062 -175.147038 181.496094 -175.154869 C 181.308594 -175.154869 181.15625 -175.096133 181.035156 -174.978661 Z M 180.847656 -174.790705 " transform="matrix(1,0,0,-0.997577,-163,-166)"/>
<path style="fill-rule:nonzero;fill:rgb(30.195618%,30.195618%,30.195618%);fill-opacity:1;stroke-width:0.0104837;stroke-linecap:butt;stroke-linejoin:miter;stroke:rgb(30.195618%,30.195618%,30.195618%);stroke-opacity:0.0118;stroke-miterlimit:10;" d="M 188.132812 -175.154869 C 187.988281 -175.13529 187.453125 -175.123543 186.53125 -175.123543 C 185.675781 -175.123543 185.21875 -175.13529 185.15625 -175.154869 L 185.050781 -175.154869 L 185.050781 -174.504857 L 185.734375 -174.504857 L 186.402344 -174.497025 L 188.480469 -171.665947 L 186.351562 -168.615587 L 185.210938 -168.615587 L 185.210938 -167.965574 L 185.324219 -167.965574 C 185.472656 -167.985153 186.023438 -167.9969 186.980469 -167.9969 C 188.035156 -167.9969 188.660156 -167.985153 188.847656 -167.965574 L 188.984375 -167.965574 L 188.984375 -168.615587 L 188.21875 -168.615587 L 188.824219 -169.492712 L 189.445312 -170.354174 L 190.714844 -168.623418 C 190.714844 -168.615587 190.554688 -168.615587 190.242188 -168.615587 L 189.769531 -168.615587 L 189.769531 -167.965574 L 189.886719 -167.965574 C 190.03125 -167.985153 190.5625 -167.9969 191.476562 -167.9969 C 192.339844 -167.9969 192.800781 -167.985153 192.863281 -167.965574 L 192.957031 -167.965574 L 192.957031 -168.615587 L 191.605469 -168.615587 L 190.734375 -169.79814 C 190.160156 -170.589119 189.875 -170.988524 189.875 -170.99244 L 190.03125 -171.215637 C 190.128906 -171.352688 190.285156 -171.575885 190.503906 -171.885228 C 190.71875 -172.190655 190.921875 -172.48042 191.113281 -172.754522 L 192.328125 -174.504857 L 193.460938 -174.504857 L 193.460938 -175.154869 L 193.34375 -175.154869 C 193.199219 -175.13529 192.648438 -175.123543 191.699219 -175.123543 C 190.644531 -175.123543 190.019531 -175.13529 189.832031 -175.154869 L 189.695312 -175.154869 L 189.695312 -174.504857 L 190.085938 -174.504857 L 190.460938 -174.497025 L 188.910156 -172.284633 L 187.296875 -174.497025 C 187.296875 -174.500941 187.453125 -174.504857 187.765625 -174.504857 L 188.25 -174.504857 L 188.25 -175.154869 Z M 188.132812 -175.154869 " transform="matrix(1,0,0,-0.997577,-163,-166)"/>
<path style="fill-rule:nonzero;fill:rgb(30.195618%,30.195618%,30.195618%);fill-opacity:1;stroke-width:0.00741199;stroke-linecap:butt;stroke-linejoin:miter;stroke:rgb(30.195618%,30.195618%,30.195618%);stroke-opacity:0.00779999;stroke-miterlimit:10;" d="M 194.625 -173.549416 C 194.492188 -173.549416 194.382812 -173.502428 194.304688 -173.416281 C 194.226562 -173.326219 194.1875 -173.216579 194.1875 -173.087359 C 194.1875 -172.738859 194.316406 -172.433431 194.578125 -172.178908 C 194.839844 -171.92047 195.167969 -171.79125 195.558594 -171.79125 C 196.007812 -171.79125 196.382812 -171.928301 196.683594 -172.206318 C 196.984375 -172.484336 197.140625 -172.840668 197.144531 -173.283146 C 197.144531 -173.494596 197.09375 -173.698215 196.996094 -173.890086 C 196.898438 -174.081957 196.777344 -174.250334 196.640625 -174.395216 C 196.5 -174.536182 196.304688 -174.720222 196.046875 -174.943419 C 195.871094 -175.096133 195.621094 -175.323246 195.304688 -175.624758 L 194.867188 -176.039826 L 195.433594 -176.047657 C 196.207031 -176.047657 196.621094 -176.03591 196.667969 -176.0085 C 196.703125 -176.000668 196.765625 -175.781387 196.847656 -175.350656 L 196.847656 -175.327161 L 197.144531 -175.327161 L 197.144531 -175.350656 C 197.140625 -175.366319 197.105469 -175.589516 197.046875 -176.024163 C 196.988281 -176.45881 196.953125 -176.685922 196.9375 -176.705501 L 196.9375 -176.728996 L 194.1875 -176.728996 L 194.1875 -176.497967 C 194.1875 -176.462725 194.203125 -176.427484 194.230469 -176.388326 C 194.261719 -176.349169 194.335938 -176.263023 194.453125 -176.125972 C 194.597656 -175.969342 194.71875 -175.832292 194.824219 -175.710904 C 194.867188 -175.663915 194.953125 -175.573853 195.078125 -175.436802 C 195.199219 -175.303667 195.285156 -175.213605 195.328125 -175.1627 C 195.371094 -175.115712 195.445312 -175.033481 195.542969 -174.919925 C 195.640625 -174.806368 195.710938 -174.720222 195.75 -174.669318 C 195.789062 -174.614497 195.847656 -174.540098 195.921875 -174.44612 C 195.996094 -174.352143 196.046875 -174.273828 196.078125 -174.20726 C 196.105469 -174.144609 196.144531 -174.074125 196.1875 -173.991895 C 196.234375 -173.91358 196.265625 -173.835265 196.285156 -173.756951 C 196.304688 -173.678636 196.320312 -173.604237 196.335938 -173.533754 C 196.351562 -173.46327 196.359375 -173.38104 196.359375 -173.290978 C 196.359375 -172.977719 196.273438 -172.707533 196.105469 -172.48042 C 195.9375 -172.253307 195.699219 -172.139751 195.386719 -172.139751 C 195.222656 -172.139751 195.082031 -172.182824 194.957031 -172.265054 C 194.835938 -172.351201 194.746094 -172.433431 194.699219 -172.511746 C 194.648438 -172.590061 194.625 -172.63705 194.625 -172.652713 C 194.625 -172.656628 194.636719 -172.660544 194.660156 -172.660544 C 194.75 -172.660544 194.839844 -172.69187 194.933594 -172.762353 C 195.03125 -172.832836 195.078125 -172.946393 195.078125 -173.103022 C 195.078125 -173.228326 195.035156 -173.330135 194.957031 -173.416281 C 194.878906 -173.498512 194.765625 -173.545501 194.625 -173.549416 Z M 194.625 -173.549416 " transform="matrix(1,0,0,-0.997577,-163,-166)"/>
<path style="fill-rule:nonzero;fill:rgb(30.195618%,30.195618%,30.195618%);fill-opacity:1;stroke-width:0.0104837;stroke-linecap:butt;stroke-linejoin:miter;stroke:rgb(30.195618%,30.195618%,30.195618%);stroke-opacity:0.0118;stroke-miterlimit:10;" d="M 199.394531 -174.790705 C 199.394531 -174.790705 199.394531 -174.700643 199.394531 -174.528351 C 199.394531 -174.352143 199.449219 -174.203345 199.5625 -174.074125 C 199.671875 -173.948822 199.824219 -173.88617 200.011719 -173.88617 C 200.207031 -173.88617 200.382812 -173.976232 200.535156 -174.148524 C 200.691406 -174.324733 200.769531 -174.63016 200.777344 -175.072639 C 200.777344 -175.315414 200.746094 -175.554274 200.683594 -175.785303 C 200.621094 -176.016331 200.546875 -176.216034 200.464844 -176.380495 C 200.378906 -176.548872 200.289062 -176.693754 200.191406 -176.811226 C 200.09375 -176.932614 200.007812 -177.026592 199.9375 -177.097075 C 199.867188 -177.163643 199.824219 -177.194968 199.800781 -177.191053 C 199.773438 -177.191053 199.730469 -177.159727 199.667969 -177.097075 C 199.601562 -177.030507 199.570312 -176.987434 199.570312 -176.960024 C 199.570312 -176.932614 199.609375 -176.873878 199.6875 -176.791647 C 199.765625 -176.705501 199.851562 -176.603692 199.949219 -176.478388 C 200.046875 -176.349169 200.136719 -176.176877 200.222656 -175.95368 C 200.304688 -175.730482 200.363281 -175.472044 200.390625 -175.186195 L 200.390625 -175.060891 L 200.378906 -175.072639 C 200.363281 -175.08047 200.347656 -175.084386 200.328125 -175.092217 C 200.304688 -175.100049 200.285156 -175.111796 200.265625 -175.123543 C 200.242188 -175.139206 200.210938 -175.147038 200.167969 -175.147038 C 200.128906 -175.147038 200.085938 -175.147038 200.042969 -175.154869 C 199.855469 -175.154869 199.699219 -175.096133 199.582031 -174.978661 Z M 199.394531 -174.790705 " transform="matrix(1,0,0,-0.997577,-163,-166)"/>
<path style="fill-rule:nonzero;fill:rgb(30.195618%,30.195618%,30.195618%);fill-opacity:1;stroke-width:0.0104837;stroke-linecap:butt;stroke-linejoin:miter;stroke:rgb(30.195618%,30.195618%,30.195618%);stroke-opacity:0.0118;stroke-miterlimit:10;" d="M 204.058594 -174.528351 C 204.058594 -174.359974 204.117188 -174.211176 204.238281 -174.085873 C 204.355469 -173.960569 204.507812 -173.897917 204.6875 -173.897917 C 204.855469 -173.897917 205.003906 -173.952737 205.128906 -174.066294 C 205.253906 -174.175935 205.320312 -174.328648 205.328125 -174.516604 C 205.328125 -174.692812 205.269531 -174.84161 205.148438 -174.966914 C 205.03125 -175.092217 204.878906 -175.154869 204.699219 -175.154869 C 204.515625 -175.154869 204.367188 -175.096133 204.246094 -174.978661 C 204.128906 -174.857273 204.066406 -174.708475 204.058594 -174.528351 Z M 204.058594 -174.528351 " transform="matrix(1,0,0,-0.997577,-163,-166)"/>
<path style="fill-rule:nonzero;fill:rgb(30.195618%,30.195618%,30.195618%);fill-opacity:1;stroke-width:0.0104837;stroke-linecap:butt;stroke-linejoin:miter;stroke:rgb(30.195618%,30.195618%,30.195618%);stroke-opacity:0.0118;stroke-miterlimit:10;" d="M 208.722656 -174.528351 C 208.722656 -174.359974 208.785156 -174.211176 208.902344 -174.085873 C 209.019531 -173.960569 209.171875 -173.897917 209.351562 -173.897917 C 209.519531 -173.897917 209.667969 -173.952737 209.792969 -174.066294 C 209.917969 -174.175935 209.984375 -174.328648 209.992188 -174.516604 C 209.992188 -174.692812 209.933594 -174.84161 209.8125 -174.966914 C 209.695312 -175.092217 209.546875 -175.154869 209.363281 -175.154869 C 209.183594 -175.154869 209.03125 -175.096133 208.914062 -174.978661 C 208.792969 -174.857273 208.730469 -174.708475 208.722656 -174.528351 Z M 208.722656 -174.528351 " transform="matrix(1,0,0,-0.997577,-163,-166)"/>
<path style="fill-rule:nonzero;fill:rgb(30.195618%,30.195618%,30.195618%);fill-opacity:1;stroke-width:0.0104837;stroke-linecap:butt;stroke-linejoin:miter;stroke:rgb(30.195618%,30.195618%,30.195618%);stroke-opacity:0.0118;stroke-miterlimit:10;" d="M 213.390625 -174.528351 C 213.390625 -174.359974 213.449219 -174.211176 213.566406 -174.085873 C 213.6875 -173.960569 213.835938 -173.897917 214.019531 -173.897917 C 214.1875 -173.897917 214.332031 -173.952737 214.457031 -174.066294 C 214.585938 -174.175935 214.652344 -174.328648 214.65625 -174.516604 C 214.65625 -174.692812 214.597656 -174.84161 214.480469 -174.966914 C 214.359375 -175.092217 214.210938 -175.154869 214.027344 -175.154869 C 213.847656 -175.154869 213.695312 -175.096133 213.578125 -174.978661 C 213.460938 -174.857273 213.394531 -174.708475 213.390625 -174.528351 Z M 213.390625 -174.528351 " transform="matrix(1,0,0,-0.997577,-163,-166)"/>
<path style="fill-rule:nonzero;fill:rgb(30.195618%,30.195618%,30.195618%);fill-opacity:1;stroke-width:0.0104837;stroke-linecap:butt;stroke-linejoin:miter;stroke:rgb(30.195618%,30.195618%,30.195618%);stroke-opacity:0.0118;stroke-miterlimit:10;" d="M 218.066406 -174.790705 C 218.066406 -174.790705 218.066406 -174.700643 218.066406 -174.528351 C 218.066406 -174.352143 218.121094 -174.203345 218.234375 -174.074125 C 218.34375 -173.948822 218.496094 -173.88617 218.683594 -173.88617 C 218.878906 -173.88617 219.054688 -173.976232 219.207031 -174.148524 C 219.363281 -174.324733 219.441406 -174.63016 219.449219 -175.072639 C 219.449219 -175.315414 219.417969 -175.554274 219.355469 -175.785303 C 219.292969 -176.016331 219.21875 -176.216034 219.132812 -176.380495 C 219.050781 -176.548872 218.960938 -176.693754 218.863281 -176.811226 C 218.765625 -176.932614 218.679688 -177.026592 218.609375 -177.097075 C 218.539062 -177.163643 218.496094 -177.194968 218.472656 -177.191053 C 218.445312 -177.191053 218.402344 -177.159727 218.335938 -177.097075 C 218.273438 -177.030507 218.242188 -176.987434 218.242188 -176.960024 C 218.242188 -176.932614 218.28125 -176.873878 218.359375 -176.791647 C 218.433594 -176.705501 218.523438 -176.603692 218.621094 -176.478388 C 218.71875 -176.349169 218.808594 -176.176877 218.894531 -175.95368 C 218.976562 -175.730482 219.03125 -175.472044 219.0625 -175.186195 L 219.0625 -175.060891 L 219.050781 -175.072639 C 219.035156 -175.08047 219.019531 -175.084386 219 -175.092217 C 218.976562 -175.100049 218.957031 -175.111796 218.933594 -175.123543 C 218.914062 -175.139206 218.882812 -175.147038 218.839844 -175.147038 C 218.800781 -175.147038 218.757812 -175.147038 218.714844 -175.154869 C 218.527344 -175.154869 218.371094 -175.096133 218.253906 -174.978661 Z M 218.066406 -174.790705 " transform="matrix(1,0,0,-0.997577,-163,-166)"/>
<path style="fill-rule:nonzero;fill:rgb(30.195618%,30.195618%,30.195618%);fill-opacity:1;stroke-width:0.0104837;stroke-linecap:butt;stroke-linejoin:miter;stroke:rgb(30.195618%,30.195618%,30.195618%);stroke-opacity:0.0118;stroke-miterlimit:10;" d="M 225.339844 -175.154869 C 225.195312 -175.13529 224.660156 -175.123543 223.738281 -175.123543 C 222.882812 -175.123543 222.425781 -175.13529 222.363281 -175.154869 L 222.257812 -175.154869 L 222.257812 -174.504857 L 222.941406 -174.504857 L 223.609375 -174.497025 L 225.6875 -171.665947 L 223.558594 -168.615587 L 222.414062 -168.615587 L 222.414062 -167.965574 L 222.53125 -167.965574 C 222.679688 -167.985153 223.230469 -167.9969 224.1875 -167.9969 C 225.242188 -167.9969 225.863281 -167.985153 226.054688 -167.965574 L 226.191406 -167.965574 L 226.191406 -168.615587 L 225.425781 -168.615587 L 226.03125 -169.492712 L 226.652344 -170.354174 L 227.917969 -168.623418 C 227.917969 -168.615587 227.761719 -168.615587 227.449219 -168.615587 L 226.976562 -168.615587 L 226.976562 -167.965574 L 227.089844 -167.965574 C 227.238281 -167.985153 227.769531 -167.9969 228.683594 -167.9969 C 229.542969 -167.9969 230.007812 -167.985153 230.070312 -167.965574 L 230.164062 -167.965574 L 230.164062 -168.615587 L 228.8125 -168.615587 L 227.941406 -169.79814 C 227.367188 -170.589119 227.082031 -170.988524 227.082031 -170.99244 L 227.238281 -171.215637 C 227.335938 -171.352688 227.492188 -171.575885 227.710938 -171.885228 C 227.925781 -172.190655 228.128906 -172.48042 228.316406 -172.754522 L 229.535156 -174.504857 L 230.667969 -174.504857 L 230.667969 -175.154869 L 230.550781 -175.154869 C 230.40625 -175.13529 229.855469 -175.123543 228.90625 -175.123543 C 227.851562 -175.123543 227.226562 -175.13529 227.039062 -175.154869 L 226.902344 -175.154869 L 226.902344 -174.504857 L 227.289062 -174.504857 L 227.667969 -174.497025 L 226.117188 -172.284633 L 224.503906 -174.497025 C 224.503906 -174.500941 224.660156 -174.504857 224.972656 -174.504857 L 225.457031 -174.504857 L 225.457031 -175.154869 Z M 225.339844 -175.154869 " transform="matrix(1,0,0,-0.997577,-163,-166)"/>
<path style="fill-rule:nonzero;fill:rgb(30.195618%,30.195618%,30.195618%);fill-opacity:1;stroke-width:0.00741199;stroke-linecap:butt;stroke-linejoin:miter;stroke:rgb(30.195618%,30.195618%,30.195618%);stroke-opacity:0.00779999;stroke-miterlimit:10;" d="M 231.179688 -174.60275 C 231.183594 -174.571424 231.191406 -174.532267 231.199219 -174.481362 C 231.210938 -174.434373 231.242188 -174.340396 231.289062 -174.199429 C 231.339844 -174.062378 231.386719 -173.944906 231.4375 -173.850928 C 231.488281 -173.756951 231.570312 -173.666889 231.683594 -173.576827 C 231.796875 -173.49068 231.910156 -173.447607 232.023438 -173.451523 C 232.203125 -173.451523 232.351562 -173.498512 232.46875 -173.584658 C 232.585938 -173.67472 232.660156 -173.756951 232.691406 -173.839181 C 232.71875 -173.917496 232.734375 -173.9684 232.734375 -173.991895 C 232.734375 -174.003642 232.738281 -174.007558 232.742188 -174.007558 L 232.824219 -173.925327 C 233.125 -173.612068 233.46875 -173.451523 233.855469 -173.451523 C 234.121094 -173.451523 234.335938 -173.518091 234.5 -173.651226 C 234.664062 -173.784361 234.746094 -173.980148 234.75 -174.238586 C 234.757812 -174.493109 234.664062 -174.880767 234.46875 -175.40156 C 234.277344 -175.918438 234.183594 -176.235613 234.1875 -176.341338 C 234.1875 -176.470557 234.230469 -176.537124 234.3125 -176.537124 C 234.34375 -176.537124 234.367188 -176.533209 234.378906 -176.529293 C 234.523438 -176.501883 234.652344 -176.407905 234.765625 -176.24736 C 234.878906 -176.082899 234.964844 -175.887112 235.027344 -175.652168 C 235.035156 -175.61301 235.085938 -175.593432 235.171875 -175.593432 C 235.273438 -175.593432 235.320312 -175.61301 235.320312 -175.652168 C 235.320312 -175.659999 235.3125 -175.695241 235.292969 -175.765724 C 235.253906 -175.906691 235.199219 -176.047657 235.128906 -176.188624 C 235.058594 -176.325675 234.945312 -176.462725 234.789062 -176.603692 C 234.628906 -176.740743 234.460938 -176.80731 234.277344 -176.803395 C 234.042969 -176.803395 233.875 -176.736827 233.773438 -176.603692 C 233.667969 -176.470557 233.617188 -176.32959 233.617188 -176.188624 C 233.617188 -176.094646 233.707031 -175.79705 233.882812 -175.295836 C 234.0625 -174.798537 234.152344 -174.422626 234.160156 -174.172019 C 234.160156 -173.878338 234.050781 -173.733456 233.832031 -173.733456 L 233.796875 -173.733456 C 233.371094 -173.733456 233.011719 -173.984063 232.71875 -174.481362 L 232.667969 -174.571424 L 232.425781 -175.566021 C 232.261719 -176.212118 232.167969 -176.560619 232.140625 -176.611523 C 232.078125 -176.744659 231.972656 -176.811226 231.824219 -176.811226 C 231.757812 -176.811226 231.707031 -176.795563 231.667969 -176.764237 C 231.628906 -176.736827 231.601562 -176.705501 231.585938 -176.678091 C 231.570312 -176.646765 231.566406 -176.623271 231.570312 -176.603692 C 231.570312 -176.537124 231.664062 -176.133803 231.851562 -175.393729 C 232.039062 -174.653655 232.140625 -174.250334 232.148438 -174.187682 C 232.15625 -174.160272 232.15625 -174.105451 232.15625 -174.015389 C 232.15625 -173.823518 232.097656 -173.725625 231.980469 -173.725625 C 231.792969 -173.725625 231.636719 -173.972316 231.511719 -174.465699 C 231.484375 -174.567508 231.46875 -174.618413 231.46875 -174.622329 C 231.457031 -174.653655 231.410156 -174.669318 231.328125 -174.669318 L 231.222656 -174.669318 C 231.195312 -174.637992 231.179688 -174.614497 231.179688 -174.60275 Z M 231.179688 -174.60275 " transform="matrix(1,0,0,-0.997577,-163,-166)"/>
<g clip-path="url(#clip10)" clip-rule="nonzero">
<path style="fill-rule:nonzero;fill:rgb(30.195618%,30.195618%,30.195618%);fill-opacity:1;stroke-width:0.0104837;stroke-linecap:butt;stroke-linejoin:miter;stroke:rgb(30.195618%,30.195618%,30.195618%);stroke-opacity:0.0118;stroke-miterlimit:10;" d="M 236.757812 -167.711051 L 236.757812 -167.292067 L 238.195312 -167.292067 L 238.195312 -177.778413 L 236.757812 -177.778413 L 236.757812 -177.355514 L 237.773438 -177.355514 L 237.773438 -167.711051 Z M 236.757812 -167.711051 " transform="matrix(1,0,0,-0.997577,-163,-166)"/>
</g>
</g>
</defs>
<g id="surface1">
<g clip-path="url(#clip1)" clip-rule="nonzero">
<path style=" stroke:none;fill-rule:nonzero;fill:rgb(100%,100%,100%);fill-opacity:1;" d="M 0 0 L 230.125 0 L 230.125 152.929688 L 0 152.929688 Z M 0 0 "/>
</g>
<path style="fill-rule:nonzero;fill:rgb(85.488892%,90.979004%,98.822021%);fill-opacity:1;stroke-width:0.691062;stroke-linecap:butt;stroke-linejoin:miter;stroke:rgb(42.352295%,55.685425%,74.900818%);stroke-opacity:1;stroke-miterlimit:10;" d="M 159.980469 1.038449 L 215.265625 1.038449 L 215.265625 28.680791 L 159.980469 28.680791 Z M 159.980469 1.038449 " transform="matrix(1,0,0,0.996829,0,0)"/>
<path style="fill-rule:nonzero;fill:rgb(85.488892%,90.979004%,98.822021%);fill-opacity:1;stroke-width:0.691062;stroke-linecap:butt;stroke-linejoin:miter;stroke:rgb(42.352295%,55.685425%,74.900818%);stroke-opacity:1;stroke-miterlimit:10;" d="M 159.980469 28.680791 L 215.265625 28.680791 L 215.265625 56.323132 L 159.980469 56.323132 Z M 159.980469 28.680791 " transform="matrix(1,0,0,0.996829,0,0)"/>
<path style="fill-rule:nonzero;fill:rgb(85.488892%,90.979004%,98.822021%);fill-opacity:1;stroke-width:0.691062;stroke-linecap:butt;stroke-linejoin:miter;stroke:rgb(42.352295%,55.685425%,74.900818%);stroke-opacity:1;stroke-miterlimit:10;" d="M 159.980469 56.323132 L 215.265625 56.323132 L 215.265625 83.965473 L 159.980469 83.965473 Z M 159.980469 56.323132 " transform="matrix(1,0,0,0.996829,0,0)"/>
<path style="fill-rule:nonzero;fill:rgb(85.488892%,90.979004%,98.822021%);fill-opacity:1;stroke-width:0.691062;stroke-linecap:butt;stroke-linejoin:miter;stroke:rgb(42.352295%,55.685425%,74.900818%);stroke-opacity:1;stroke-miterlimit:10;" d="M 159.980469 83.965473 L 215.265625 83.965473 L 215.265625 111.607815 L 159.980469 111.607815 Z M 159.980469 83.965473 " transform="matrix(1,0,0,0.996829,0,0)"/>
<path style="fill-rule:nonzero;fill:rgb(85.488892%,90.979004%,98.822021%);fill-opacity:1;stroke-width:0.691062;stroke-linecap:butt;stroke-linejoin:miter;stroke:rgb(42.352295%,55.685425%,74.900818%);stroke-opacity:1;stroke-miterlimit:10;" d="M 159.980469 111.607815 L 215.265625 111.607815 L 215.265625 139.250156 L 159.980469 139.250156 Z M 159.980469 111.607815 " transform="matrix(1,0,0,0.996829,0,0)"/>
<path style="fill-rule:nonzero;fill:rgb(83.528137%,90.979004%,83.135986%);fill-opacity:1;stroke-width:0.691062;stroke-linecap:butt;stroke-linejoin:miter;stroke:rgb(50.979614%,70.195007%,39.99939%);stroke-opacity:1;stroke-miterlimit:10;" d="M 166.890625 7.947075 L 222.175781 7.947075 L 222.175781 146.158782 L 166.890625 146.158782 Z M 166.890625 7.947075 " transform="matrix(1,0,0,0.996829,0,0)"/>
<path style="fill-rule:nonzero;fill:rgb(83.528137%,90.979004%,83.135986%);fill-opacity:1;stroke-width:0.691062;stroke-linecap:butt;stroke-linejoin:miter;stroke:rgb(50.979614%,70.195007%,39.99939%);stroke-opacity:1;stroke-miterlimit:10;" d="M 166.890625 7.947075 L 222.175781 7.947075 L 222.175781 35.589417 L 166.890625 35.589417 Z M 166.890625 7.947075 " transform="matrix(1,0,0,0.996829,0,0)"/>
<path style="fill-rule:nonzero;fill:rgb(83.528137%,90.979004%,83.135986%);fill-opacity:1;stroke-width:0.691062;stroke-linecap:butt;stroke-linejoin:miter;stroke:rgb(50.979614%,70.195007%,39.99939%);stroke-opacity:1;stroke-miterlimit:10;" d="M 166.890625 35.589417 L 222.175781 35.589417 L 222.175781 63.231758 L 166.890625 63.231758 Z M 166.890625 35.589417 " transform="matrix(1,0,0,0.996829,0,0)"/>
<path style="fill-rule:nonzero;fill:rgb(83.528137%,90.979004%,83.135986%);fill-opacity:1;stroke-width:0.691062;stroke-linecap:butt;stroke-linejoin:miter;stroke:rgb(50.979614%,70.195007%,39.99939%);stroke-opacity:1;stroke-miterlimit:10;" d="M 166.890625 63.231758 L 222.175781 63.231758 L 222.175781 90.874099 L 166.890625 90.874099 Z M 166.890625 63.231758 " transform="matrix(1,0,0,0.996829,0,0)"/>
<path style="fill-rule:nonzero;fill:rgb(83.528137%,90.979004%,83.135986%);fill-opacity:1;stroke-width:0.691062;stroke-linecap:butt;stroke-linejoin:miter;stroke:rgb(50.979614%,70.195007%,39.99939%);stroke-opacity:1;stroke-miterlimit:10;" d="M 166.890625 90.874099 L 222.175781 90.874099 L 222.175781 118.516441 L 166.890625 118.516441 Z M 166.890625 90.874099 " transform="matrix(1,0,0,0.996829,0,0)"/>
<path style="fill-rule:nonzero;fill:rgb(83.528137%,90.979004%,83.135986%);fill-opacity:1;stroke-width:0.691062;stroke-linecap:butt;stroke-linejoin:miter;stroke:rgb(50.979614%,70.195007%,39.99939%);stroke-opacity:1;stroke-miterlimit:10;" d="M 166.890625 118.516441 L 222.175781 118.516441 L 222.175781 146.158782 L 166.890625 146.158782 Z M 166.890625 118.516441 " transform="matrix(1,0,0,0.996829,0,0)"/>
<path style="fill-rule:nonzero;fill:rgb(100%,90.194702%,79.998779%);fill-opacity:1;stroke-width:0.691062;stroke-linecap:butt;stroke-linejoin:miter;stroke:rgb(84.312439%,60.783386%,0%);stroke-opacity:1;stroke-miterlimit:10;" d="M 173.800781 14.85962 L 229.085938 14.85962 L 229.085938 42.501961 L 173.800781 42.501961 Z M 173.800781 14.85962 " transform="matrix(1,0,0,0.996829,0,0)"/>
<path style="fill-rule:nonzero;fill:rgb(100%,90.194702%,79.998779%);fill-opacity:1;stroke-width:0.691062;stroke-linecap:butt;stroke-linejoin:miter;stroke:rgb(84.312439%,60.783386%,0%);stroke-opacity:1;stroke-miterlimit:10;" d="M 173.800781 42.501961 L 229.085938 42.501961 L 229.085938 70.144303 L 173.800781 70.144303 Z M 173.800781 42.501961 " transform="matrix(1,0,0,0.996829,0,0)"/>
<path style="fill-rule:nonzero;fill:rgb(100%,90.194702%,79.998779%);fill-opacity:1;stroke-width:0.691062;stroke-linecap:butt;stroke-linejoin:miter;stroke:rgb(84.312439%,60.783386%,0%);stroke-opacity:1;stroke-miterlimit:10;" d="M 173.800781 70.144303 L 229.085938 70.144303 L 229.085938 97.786644 L 173.800781 97.786644 Z M 173.800781 70.144303 " transform="matrix(1,0,0,0.996829,0,0)"/>
<path style="fill-rule:nonzero;fill:rgb(100%,90.194702%,79.998779%);fill-opacity:1;stroke-width:0.691062;stroke-linecap:butt;stroke-linejoin:miter;stroke:rgb(84.312439%,60.783386%,0%);stroke-opacity:1;stroke-miterlimit:10;" d="M 173.800781 97.786644 L 229.085938 97.786644 L 229.085938 125.428985 L 173.800781 125.428985 Z M 173.800781 97.786644 " transform="matrix(1,0,0,0.996829,0,0)"/>
<g clip-path="url(#clip2)" clip-rule="nonzero">
<path style=" stroke:none;fill-rule:nonzero;fill:rgb(100%,90.194702%,79.998779%);fill-opacity:1;" d="M 173.800781 125.03125 L 229.085938 125.03125 L 229.085938 152.585938 L 173.800781 152.585938 Z M 173.800781 125.03125 "/>
</g>
<g clip-path="url(#clip3)" clip-rule="nonzero">
<path style="fill:none;stroke-width:0.691062;stroke-linecap:butt;stroke-linejoin:miter;stroke:rgb(84.312439%,60.783386%,0%);stroke-opacity:1;stroke-miterlimit:10;" d="M 173.800781 125.428985 L 229.085938 125.428985 L 229.085938 153.071327 L 173.800781 153.071327 Z M 173.800781 125.428985 " transform="matrix(1,0,0,0.996829,0,0)"/>
</g>
<path style="fill-rule:nonzero;fill:rgb(96.076965%,96.076965%,96.076965%);fill-opacity:1;stroke-width:0.691062;stroke-linecap:butt;stroke-linejoin:miter;stroke:rgb(39.99939%,39.99939%,39.99939%);stroke-opacity:1;stroke-miterlimit:10;" d="M 1.035156 7.947075 L 139.25 7.947075 L 139.25 146.158782 L 1.035156 146.158782 Z M 1.035156 7.947075 " transform="matrix(1,0,0,0.996829,0,0)"/>
<path style="fill-rule:nonzero;fill:rgb(100%,100%,100%);fill-opacity:1;stroke-width:0.691062;stroke-linecap:butt;stroke-linejoin:miter;stroke:rgb(59.999084%,59.999084%,59.999084%);stroke-opacity:1;stroke-miterlimit:10;" d="M 1.035156 7.947075 L 28.679688 7.947075 L 28.679688 35.589417 L 1.035156 35.589417 Z M 1.035156 7.947075 " transform="matrix(1,0,0,0.996829,0,0)"/>
<path style="fill-rule:nonzero;fill:rgb(100%,100%,100%);fill-opacity:1;stroke-width:0.691062;stroke-linecap:butt;stroke-linejoin:miter;stroke:rgb(59.999084%,59.999084%,59.999084%);stroke-opacity:1;stroke-miterlimit:10;" d="M 28.679688 35.589417 L 56.320312 35.589417 L 56.320312 63.231758 L 28.679688 63.231758 Z M 28.679688 35.589417 " transform="matrix(1,0,0,0.996829,0,0)"/>
<path style="fill-rule:nonzero;fill:rgb(100%,100%,100%);fill-opacity:1;stroke-width:0.691062;stroke-linecap:butt;stroke-linejoin:miter;stroke:rgb(59.999084%,59.999084%,59.999084%);stroke-opacity:1;stroke-miterlimit:10;" d="M 56.320312 7.947075 L 83.964844 7.947075 L 83.964844 35.589417 L 56.320312 35.589417 Z M 56.320312 7.947075 " transform="matrix(1,0,0,0.996829,0,0)"/>
<path style="fill-rule:nonzero;fill:rgb(100%,100%,100%);fill-opacity:1;stroke-width:0.691062;stroke-linecap:butt;stroke-linejoin:miter;stroke:rgb(59.999084%,59.999084%,59.999084%);stroke-opacity:1;stroke-miterlimit:10;" d="M 56.320312 35.589417 L 83.964844 35.589417 L 83.964844 63.231758 L 56.320312 63.231758 Z M 56.320312 35.589417 " transform="matrix(1,0,0,0.996829,0,0)"/>
<path style="fill-rule:nonzero;fill:rgb(100%,100%,100%);fill-opacity:1;stroke-width:0.691062;stroke-linecap:butt;stroke-linejoin:miter;stroke:rgb(59.999084%,59.999084%,59.999084%);stroke-opacity:1;stroke-miterlimit:10;" d="M 83.964844 35.589417 L 111.605469 35.589417 L 111.605469 63.231758 L 83.964844 63.231758 Z M 83.964844 35.589417 " transform="matrix(1,0,0,0.996829,0,0)"/>
<path style="fill-rule:nonzero;fill:rgb(100%,100%,100%);fill-opacity:1;stroke-width:0.691062;stroke-linecap:butt;stroke-linejoin:miter;stroke:rgb(59.999084%,59.999084%,59.999084%);stroke-opacity:1;stroke-miterlimit:10;" d="M 1.035156 63.231758 L 28.679688 63.231758 L 28.679688 90.874099 L 1.035156 90.874099 Z M 1.035156 63.231758 " transform="matrix(1,0,0,0.996829,0,0)"/>
<path style="fill-rule:nonzero;fill:rgb(100%,100%,100%);fill-opacity:1;stroke-width:0.691062;stroke-linecap:butt;stroke-linejoin:miter;stroke:rgb(59.999084%,59.999084%,59.999084%);stroke-opacity:1;stroke-miterlimit:10;" d="M 28.679688 63.231758 L 56.320312 63.231758 L 56.320312 90.874099 L 28.679688 90.874099 Z M 28.679688 63.231758 " transform="matrix(1,0,0,0.996829,0,0)"/>
<path style="fill-rule:nonzero;fill:rgb(100%,100%,100%);fill-opacity:1;stroke-width:0.691062;stroke-linecap:butt;stroke-linejoin:miter;stroke:rgb(59.999084%,59.999084%,59.999084%);stroke-opacity:1;stroke-miterlimit:10;" d="M 28.679688 90.874099 L 56.320312 90.874099 L 56.320312 118.516441 L 28.679688 118.516441 Z M 28.679688 90.874099 " transform="matrix(1,0,0,0.996829,0,0)"/>
<path style="fill-rule:nonzero;fill:rgb(100%,100%,100%);fill-opacity:1;stroke-width:0.691062;stroke-linecap:butt;stroke-linejoin:miter;stroke:rgb(59.999084%,59.999084%,59.999084%);stroke-opacity:1;stroke-miterlimit:10;" d="M 56.320312 63.231758 L 83.964844 63.231758 L 83.964844 90.874099 L 56.320312 90.874099 Z M 56.320312 63.231758 " transform="matrix(1,0,0,0.996829,0,0)"/>
<path style="fill-rule:nonzero;fill:rgb(100%,100%,100%);fill-opacity:1;stroke-width:0.691062;stroke-linecap:butt;stroke-linejoin:miter;stroke:rgb(59.999084%,59.999084%,59.999084%);stroke-opacity:1;stroke-miterlimit:10;" d="M 83.964844 90.874099 L 111.605469 90.874099 L 111.605469 118.516441 L 83.964844 118.516441 Z M 83.964844 90.874099 " transform="matrix(1,0,0,0.996829,0,0)"/>
<path style="fill-rule:nonzero;fill:rgb(100%,100%,100%);fill-opacity:1;stroke-width:0.691062;stroke-linecap:butt;stroke-linejoin:miter;stroke:rgb(59.999084%,59.999084%,59.999084%);stroke-opacity:1;stroke-miterlimit:10;" d="M 1.035156 118.516441 L 28.679688 118.516441 L 28.679688 146.158782 L 1.035156 146.158782 Z M 1.035156 118.516441 " transform="matrix(1,0,0,0.996829,0,0)"/>
<path style="fill-rule:nonzero;fill:rgb(100%,100%,100%);fill-opacity:1;stroke-width:0.691062;stroke-linecap:butt;stroke-linejoin:miter;stroke:rgb(59.999084%,59.999084%,59.999084%);stroke-opacity:1;stroke-miterlimit:10;" d="M 28.679688 118.516441 L 56.320312 118.516441 L 56.320312 146.158782 L 28.679688 146.158782 Z M 28.679688 118.516441 " transform="matrix(1,0,0,0.996829,0,0)"/>
<path style="fill-rule:nonzero;fill:rgb(100%,100%,100%);fill-opacity:1;stroke-width:0.691062;stroke-linecap:butt;stroke-linejoin:miter;stroke:rgb(59.999084%,59.999084%,59.999084%);stroke-opacity:1;stroke-miterlimit:10;" d="M 56.320312 118.516441 L 83.964844 118.516441 L 83.964844 146.158782 L 56.320312 146.158782 Z M 56.320312 118.516441 " transform="matrix(1,0,0,0.996829,0,0)"/>
<path style="fill-rule:nonzero;fill:rgb(100%,100%,100%);fill-opacity:1;stroke-width:0.691062;stroke-linecap:butt;stroke-linejoin:miter;stroke:rgb(59.999084%,59.999084%,59.999084%);stroke-opacity:1;stroke-miterlimit:10;" d="M 111.605469 7.947075 L 139.25 7.947075 L 139.25 35.589417 L 111.605469 35.589417 Z M 111.605469 7.947075 " transform="matrix(1,0,0,0.996829,0,0)"/>
<path style="fill-rule:nonzero;fill:rgb(100%,100%,100%);fill-opacity:1;stroke-width:0.691062;stroke-linecap:butt;stroke-linejoin:miter;stroke:rgb(59.999084%,59.999084%,59.999084%);stroke-opacity:1;stroke-miterlimit:10;" d="M 111.605469 35.589417 L 139.25 35.589417 L 139.25 63.231758 L 111.605469 63.231758 Z M 111.605469 35.589417 " transform="matrix(1,0,0,0.996829,0,0)"/>
<path style="fill-rule:nonzero;fill:rgb(100%,100%,100%);fill-opacity:1;stroke-width:0.691062;stroke-linecap:butt;stroke-linejoin:miter;stroke:rgb(59.999084%,59.999084%,59.999084%);stroke-opacity:1;stroke-miterlimit:10;" d="M 111.605469 63.231758 L 139.25 63.231758 L 139.25 90.874099 L 111.605469 90.874099 Z M 111.605469 63.231758 " transform="matrix(1,0,0,0.996829,0,0)"/>
<path style="fill-rule:nonzero;fill:rgb(100%,100%,100%);fill-opacity:1;stroke-width:0.691062;stroke-linecap:butt;stroke-linejoin:miter;stroke:rgb(59.999084%,59.999084%,59.999084%);stroke-opacity:1;stroke-miterlimit:10;" d="M 111.605469 118.516441 L 139.25 118.516441 L 139.25 146.158782 L 111.605469 146.158782 Z M 111.605469 118.516441 " transform="matrix(1,0,0,0.996829,0,0)"/>
<path style="fill-rule:nonzero;fill:rgb(96.076965%,96.076965%,96.076965%);fill-opacity:1;stroke-width:0.691062;stroke-linecap:butt;stroke-linejoin:miter;stroke:rgb(39.99939%,39.99939%,39.99939%);stroke-opacity:1;stroke-miterlimit:10;" d="M 28.679688 7.947075 L 56.320312 7.947075 L 56.320312 35.589417 L 28.679688 35.589417 Z M 28.679688 7.947075 " transform="matrix(1,0,0,0.996829,0,0)"/>
<path style="fill-rule:nonzero;fill:rgb(96.076965%,96.076965%,96.076965%);fill-opacity:1;stroke-width:0.691062;stroke-linecap:butt;stroke-linejoin:miter;stroke:rgb(39.99939%,39.99939%,39.99939%);stroke-opacity:1;stroke-miterlimit:10;" d="M 1.035156 35.589417 L 28.679688 35.589417 L 28.679688 63.231758 L 1.035156 63.231758 Z M 1.035156 35.589417 " transform="matrix(1,0,0,0.996829,0,0)"/>
<path style="fill-rule:nonzero;fill:rgb(96.076965%,96.076965%,96.076965%);fill-opacity:1;stroke-width:0.691062;stroke-linecap:butt;stroke-linejoin:miter;stroke:rgb(39.99939%,39.99939%,39.99939%);stroke-opacity:1;stroke-miterlimit:10;" d="M 83.964844 7.947075 L 111.605469 7.947075 L 111.605469 35.589417 L 83.964844 35.589417 Z M 83.964844 7.947075 " transform="matrix(1,0,0,0.996829,0,0)"/>
<path style="fill-rule:nonzero;fill:rgb(96.076965%,96.076965%,96.076965%);fill-opacity:1;stroke-width:0.691062;stroke-linecap:butt;stroke-linejoin:miter;stroke:rgb(39.99939%,39.99939%,39.99939%);stroke-opacity:1;stroke-miterlimit:10;" d="M 1.035156 90.874099 L 28.679688 90.874099 L 28.679688 118.516441 L 1.035156 118.516441 Z M 1.035156 90.874099 " transform="matrix(1,0,0,0.996829,0,0)"/>
<path style="fill-rule:nonzero;fill:rgb(96.076965%,96.076965%,96.076965%);fill-opacity:1;stroke-width:0.691062;stroke-linecap:butt;stroke-linejoin:miter;stroke:rgb(39.99939%,39.99939%,39.99939%);stroke-opacity:1;stroke-miterlimit:10;" d="M 83.964844 63.231758 L 111.605469 63.231758 L 111.605469 90.874099 L 83.964844 90.874099 Z M 83.964844 63.231758 " transform="matrix(1,0,0,0.996829,0,0)"/>
<path style="fill-rule:nonzero;fill:rgb(96.076965%,96.076965%,96.076965%);fill-opacity:1;stroke-width:0.691062;stroke-linecap:butt;stroke-linejoin:miter;stroke:rgb(39.99939%,39.99939%,39.99939%);stroke-opacity:1;stroke-miterlimit:10;" d="M 56.320312 90.874099 L 83.964844 90.874099 L 83.964844 118.516441 L 56.320312 118.516441 Z M 56.320312 90.874099 " transform="matrix(1,0,0,0.996829,0,0)"/>
<path style="fill-rule:nonzero;fill:rgb(96.076965%,96.076965%,96.076965%);fill-opacity:1;stroke-width:0.691062;stroke-linecap:butt;stroke-linejoin:miter;stroke:rgb(39.99939%,39.99939%,39.99939%);stroke-opacity:1;stroke-miterlimit:10;" d="M 83.964844 118.516441 L 111.605469 118.516441 L 111.605469 146.158782 L 83.964844 146.158782 Z M 83.964844 118.516441 " transform="matrix(1,0,0,0.996829,0,0)"/>
<path style="fill-rule:nonzero;fill:rgb(96.076965%,96.076965%,96.076965%);fill-opacity:1;stroke-width:0.691062;stroke-linecap:butt;stroke-linejoin:miter;stroke:rgb(39.99939%,39.99939%,39.99939%);stroke-opacity:1;stroke-miterlimit:10;" d="M 111.605469 90.874099 L 139.25 90.874099 L 139.25 118.516441 L 111.605469 118.516441 Z M 111.605469 90.874099 " transform="matrix(1,0,0,0.996829,0,0)"/>
<g clip-path="url(#clip4)" clip-rule="nonzero">
<use xlink:href="#surface7" transform="matrix(1,0,0,1,63,166)"/>
</g>
<g clip-path="url(#clip7)" clip-rule="nonzero">
<use xlink:href="#surface6" transform="matrix(1,0,0,1,163,166)"/>
</g>
</g>
</svg>
