<?xml version="1.0" encoding="UTF-8"?>
<svg xmlns="http://www.w3.org/2000/svg" xmlns:xlink="http://www.w3.org/1999/xlink" width="245.210175pt" height="174.349899pt" viewBox="0 0 245.210175 174.349899" version="1.1">
<defs>
<clipPath id="clip1">
  <path d="M 0 0 L 235.691406 0 L 235.691406 152.890625 L 0 152.890625 Z M 0 0 "/>
</clipPath>
<clipPath id="clip2">
  <path d="M 179 14 L 235.691406 14 L 235.691406 43 L 179 43 Z M 179 14 "/>
</clipPath>
<clipPath id="clip3">
  <path d="M 179 41 L 235.691406 41 L 235.691406 70 L 179 70 Z M 179 41 "/>
</clipPath>
<clipPath id="clip4">
  <path d="M 179 69 L 235.691406 69 L 235.691406 98 L 179 98 Z M 179 69 "/>
</clipPath>
<clipPath id="clip5">
  <path d="M 179 96 L 235.691406 96 L 235.691406 125 L 179 125 Z M 179 96 "/>
</clipPath>
<clipPath id="clip6">
  <path d="M 179 124 L 235.691406 124 L 235.691406 152.203125 L 179 152.203125 Z M 179 124 "/>
</clipPath>
<clipPath id="clip7">
  <path d="M 14 14 L 153 14 L 153 152.203125 L 14 152.203125 Z M 14 14 "/>
</clipPath>
<clipPath id="clip8">
  <path d="M 14 124 L 43 124 L 43 152.203125 L 14 152.203125 Z M 14 124 "/>
</clipPath>
<clipPath id="clip9">
  <path d="M 41 124 L 71 124 L 71 152.203125 L 41 152.203125 Z M 41 124 "/>
</clipPath>
<clipPath id="clip10">
  <path d="M 69 124 L 98 124 L 98 152.203125 L 69 152.203125 Z M 69 124 "/>
</clipPath>
<clipPath id="clip11">
  <path d="M 124 124 L 153 124 L 153 152.203125 L 124 152.203125 Z M 124 124 "/>
</clipPath>
<clipPath id="clip12">
  <path d="M 96 124 L 126 124 L 126 152.203125 L 96 152.203125 Z M 96 124 "/>
</clipPath>
<clipPath id="clip13">
  <path d="M 44.550781 163.117188 L 120.71875 163.117188 L 120.71875 174.351562 L 44.550781 174.351562 Z M 44.550781 163.117188 "/>
</clipPath>
<clipPath id="clip15">
  <path d="M 1 0.117188 L 4 0.117188 L 4 11.351562 L 1 11.351562 Z M 1 0.117188 "/>
</clipPath>
<clipPath id="clip16">
  <path d="M 74 0.117188 L 76 0.117188 L 76 11.351562 L 74 11.351562 Z M 74 0.117188 "/>
</clipPath>
<clipPath id="clip14">
  <rect width="77" height="12"/>
</clipPath>
<g id="surface7" clip-path="url(#clip14)">
<g clip-path="url(#clip15)" clip-rule="nonzero">
<path style="fill-rule:nonzero;fill:rgb(30.195618%,30.195618%,30.195618%);fill-opacity:1;stroke-width:0.0104761;stroke-linecap:butt;stroke-linejoin:miter;stroke:rgb(30.195618%,30.195618%,30.195618%);stroke-opacity:0.0118;stroke-miterlimit:10;" d="M 45.796875 -174.767211 L 45.796875 -164.292612 L 47.230469 -164.292612 L 47.230469 -164.711596 L 46.214844 -164.711596 L 46.214844 -174.348227 L 47.230469 -174.348227 L 47.230469 -174.767211 Z M 45.796875 -174.767211 " transform="matrix(1,0,0,-0.997577,-44,-163)"/>
</g>
<path style="fill-rule:nonzero;fill:rgb(30.195618%,30.195618%,30.195618%);fill-opacity:1;stroke-width:0.0104761;stroke-linecap:butt;stroke-linejoin:miter;stroke:rgb(30.195618%,30.195618%,30.195618%);stroke-opacity:0.0118;stroke-miterlimit:10;" d="M 50.574219 -172.147582 C 50.449219 -172.128004 49.988281 -172.116256 49.191406 -172.116256 C 48.449219 -172.116256 48.046875 -172.128004 47.984375 -172.147582 L 47.890625 -172.147582 L 47.890625 -171.501486 L 48.4375 -171.501486 C 48.800781 -171.501486 48.980469 -171.493654 48.980469 -171.477991 C 50.683594 -167.162848 51.570312 -164.981782 51.632812 -164.930878 C 51.671875 -164.868226 51.800781 -164.8369 52.019531 -164.8369 C 52.222656 -164.8369 52.351562 -164.868226 52.40625 -164.930878 C 52.433594 -164.950456 52.667969 -165.506491 53.109375 -166.595066 C 53.546875 -167.687557 53.984375 -168.776132 54.417969 -169.864707 L 55.058594 -171.477991 C 55.058594 -171.493654 55.238281 -171.501486 55.601562 -171.501486 L 56.144531 -171.501486 L 56.144531 -172.147582 L 56.03125 -172.147582 C 55.882812 -172.128004 55.328125 -172.116256 54.367188 -172.116256 C 53.324219 -172.116256 52.722656 -172.128004 52.554688 -172.147582 L 52.417969 -172.147582 L 52.417969 -171.501486 L 52.886719 -171.501486 C 53.195312 -171.501486 53.347656 -171.49757 53.347656 -171.489738 L 52.886719 -170.315017 L 50.21875 -170.315017 L 49.988281 -170.89063 C 49.832031 -171.274373 49.753906 -171.47016 49.746094 -171.477991 C 49.746094 -171.493654 49.898438 -171.501486 50.207031 -171.501486 L 50.679688 -171.501486 L 50.679688 -172.147582 Z M 51.558594 -169.665005 L 52.625 -169.657173 L 52.082031 -168.325822 C 51.734375 -167.444781 51.550781 -167.006219 51.535156 -167.006219 C 50.832031 -168.764385 50.480469 -169.653257 50.480469 -169.665005 Z M 51.558594 -169.665005 " transform="matrix(1,0,0,-0.997577,-44,-163)"/>
<path style="fill-rule:nonzero;fill:rgb(30.195618%,30.195618%,30.195618%);fill-opacity:1;stroke-width:0.00740661;stroke-linecap:butt;stroke-linejoin:miter;stroke:rgb(30.195618%,30.195618%,30.195618%);stroke-opacity:0.00779999;stroke-miterlimit:10;" d="M 58.152344 -169.437892 L 58.058594 -169.477049 C 57.988281 -169.500544 57.890625 -169.524038 57.761719 -169.551448 C 57.632812 -169.574943 57.488281 -169.594521 57.332031 -169.602353 L 57.191406 -169.602353 L 57.191406 -169.261684 L 57.332031 -169.261684 C 57.5625 -169.249936 57.777344 -169.214695 57.976562 -169.152043 C 58.171875 -169.085475 58.3125 -169.026739 58.390625 -168.971919 C 58.46875 -168.917099 58.539062 -168.866194 58.597656 -168.811374 C 58.609375 -168.795711 58.636719 -168.787879 58.6875 -168.787879 C 58.730469 -168.787879 58.773438 -168.803542 58.8125 -168.830952 L 58.8125 -171.04726 L 58.820312 -173.267483 C 58.855469 -173.302725 58.882812 -173.326219 58.910156 -173.334051 C 58.933594 -173.345798 58.992188 -173.35363 59.085938 -173.365377 C 59.179688 -173.373208 59.332031 -173.38104 59.546875 -173.38104 L 59.738281 -173.38104 L 59.738281 -173.721709 L 59.65625 -173.721709 C 59.554688 -173.706046 59.160156 -173.698215 58.480469 -173.698215 C 57.808594 -173.698215 57.421875 -173.706046 57.316406 -173.721709 L 57.226562 -173.721709 L 57.226562 -173.38104 L 57.421875 -173.38104 C 57.527344 -173.38104 57.621094 -173.38104 57.703125 -173.38104 C 57.78125 -173.38104 57.84375 -173.377124 57.886719 -173.373208 C 57.929688 -173.369293 57.972656 -173.361461 58.003906 -173.349714 C 58.039062 -173.341882 58.058594 -173.334051 58.066406 -173.334051 C 58.070312 -173.334051 58.085938 -173.322304 58.109375 -173.298809 C 58.132812 -173.275315 58.148438 -173.263568 58.152344 -173.267483 Z M 58.152344 -169.437892 " transform="matrix(1,0,0,-0.997577,-44,-163)"/>
<path style="fill-rule:nonzero;fill:rgb(30.195618%,30.195618%,30.195618%);fill-opacity:1;stroke-width:0.0104761;stroke-linecap:butt;stroke-linejoin:miter;stroke:rgb(30.195618%,30.195618%,30.195618%);stroke-opacity:0.0118;stroke-miterlimit:10;" d="M 62.148438 -171.783419 C 62.148438 -171.783419 62.148438 -171.693357 62.148438 -171.521064 C 62.148438 -171.344856 62.207031 -171.196058 62.316406 -171.070754 C 62.429688 -170.945451 62.578125 -170.882799 62.765625 -170.882799 C 62.964844 -170.882799 63.136719 -170.968945 63.292969 -171.145153 C 63.445312 -171.317446 63.523438 -171.626789 63.53125 -172.065352 C 63.53125 -172.308128 63.5 -172.546988 63.4375 -172.778016 C 63.375 -173.009045 63.300781 -173.208747 63.21875 -173.373208 C 63.132812 -173.541585 63.042969 -173.686467 62.945312 -173.803939 C 62.847656 -173.921412 62.765625 -174.019305 62.695312 -174.085873 C 62.625 -174.156356 62.578125 -174.187682 62.558594 -174.17985 C 62.53125 -174.17985 62.484375 -174.148524 62.421875 -174.085873 C 62.359375 -174.023221 62.328125 -173.980148 62.328125 -173.952737 C 62.328125 -173.921412 62.367188 -173.866591 62.441406 -173.784361 C 62.519531 -173.698215 62.605469 -173.596405 62.703125 -173.467186 C 62.800781 -173.341882 62.894531 -173.16959 62.976562 -172.946393 C 63.0625 -172.723196 63.117188 -172.468673 63.144531 -172.178908 L 63.144531 -172.053605 L 63.132812 -172.065352 C 63.121094 -172.073183 63.101562 -172.081015 63.082031 -172.084931 C 63.0625 -172.092762 63.039062 -172.104509 63.019531 -172.116256 C 62.996094 -172.131919 62.964844 -172.139751 62.925781 -172.139751 C 62.882812 -172.139751 62.839844 -172.143667 62.796875 -172.147582 C 62.609375 -172.147582 62.457031 -172.088846 62.335938 -171.971374 Z M 62.148438 -171.783419 " transform="matrix(1,0,0,-0.997577,-44,-163)"/>
<path style="fill-rule:nonzero;fill:rgb(30.195618%,30.195618%,30.195618%);fill-opacity:1;stroke-width:0.0104761;stroke-linecap:butt;stroke-linejoin:miter;stroke:rgb(30.195618%,30.195618%,30.195618%);stroke-opacity:0.0118;stroke-miterlimit:10;" d="M 69.105469 -172.147582 C 68.980469 -172.128004 68.519531 -172.116256 67.722656 -172.116256 C 66.980469 -172.116256 66.582031 -172.128004 66.519531 -172.147582 L 66.421875 -172.147582 L 66.421875 -171.501486 L 66.96875 -171.501486 C 67.332031 -171.501486 67.511719 -171.493654 67.511719 -171.477991 C 69.21875 -167.162848 70.101562 -164.981782 70.164062 -164.930878 C 70.207031 -164.868226 70.335938 -164.8369 70.550781 -164.8369 C 70.753906 -164.8369 70.882812 -164.868226 70.9375 -164.930878 C 70.964844 -164.950456 71.199219 -165.506491 71.640625 -166.595066 C 72.082031 -167.687557 72.515625 -168.776132 72.949219 -169.864707 L 73.589844 -171.477991 C 73.589844 -171.493654 73.769531 -171.501486 74.132812 -171.501486 L 74.679688 -171.501486 L 74.679688 -172.147582 L 74.5625 -172.147582 C 74.417969 -172.128004 73.863281 -172.116256 72.898438 -172.116256 C 71.855469 -172.116256 71.253906 -172.128004 71.085938 -172.147582 L 70.949219 -172.147582 L 70.949219 -171.501486 L 71.421875 -171.501486 C 71.726562 -171.501486 71.882812 -171.49757 71.882812 -171.489738 L 71.421875 -170.315017 L 68.75 -170.315017 L 68.519531 -170.89063 C 68.363281 -171.274373 68.285156 -171.47016 68.277344 -171.477991 C 68.277344 -171.493654 68.429688 -171.501486 68.738281 -171.501486 L 69.210938 -171.501486 L 69.210938 -172.147582 Z M 70.089844 -169.665005 L 71.160156 -169.657173 L 70.613281 -168.325822 C 70.265625 -167.444781 70.082031 -167.006219 70.070312 -167.006219 C 69.363281 -168.764385 69.011719 -169.653257 69.011719 -169.665005 Z M 70.089844 -169.665005 " transform="matrix(1,0,0,-0.997577,-44,-163)"/>
<path style="fill-rule:nonzero;fill:rgb(30.195618%,30.195618%,30.195618%);fill-opacity:1;stroke-width:0.00740661;stroke-linecap:butt;stroke-linejoin:miter;stroke:rgb(30.195618%,30.195618%,30.195618%);stroke-opacity:0.00779999;stroke-miterlimit:10;" d="M 75.914062 -170.54213 C 75.78125 -170.54213 75.675781 -170.499057 75.597656 -170.408995 C 75.519531 -170.322849 75.480469 -170.213208 75.480469 -170.083989 C 75.480469 -169.731572 75.609375 -169.43006 75.871094 -169.171622 C 76.132812 -168.917099 76.457031 -168.787879 76.847656 -168.787879 C 77.296875 -168.787879 77.671875 -168.92493 77.972656 -169.202947 C 78.277344 -169.480965 78.429688 -169.837297 78.433594 -170.27586 C 78.433594 -170.48731 78.382812 -170.690928 78.285156 -170.882799 C 78.1875 -171.07467 78.070312 -171.243047 77.929688 -171.387929 C 77.792969 -171.528896 77.59375 -171.712935 77.335938 -171.936132 C 77.160156 -172.088846 76.914062 -172.315959 76.597656 -172.617471 L 76.160156 -173.032539 L 76.722656 -173.040371 C 77.5 -173.040371 77.910156 -173.028623 77.960938 -173.001213 C 77.996094 -172.993382 78.054688 -172.7741 78.136719 -172.343369 L 78.136719 -172.319875 L 78.433594 -172.319875 L 78.433594 -172.343369 C 78.429688 -172.359032 78.398438 -172.582229 78.335938 -173.016876 C 78.277344 -173.451523 78.242188 -173.678636 78.226562 -173.698215 L 78.226562 -173.721709 L 75.480469 -173.721709 L 75.480469 -173.49068 C 75.480469 -173.455439 75.492188 -173.420197 75.523438 -173.38104 C 75.550781 -173.341882 75.625 -173.255736 75.746094 -173.118685 C 75.886719 -172.962056 76.011719 -172.825005 76.117188 -172.707533 C 76.160156 -172.656628 76.242188 -172.566566 76.367188 -172.433431 C 76.492188 -172.300296 76.574219 -172.206318 76.621094 -172.15933 C 76.664062 -172.108425 76.734375 -172.026194 76.832031 -171.912638 C 76.933594 -171.799082 77 -171.716851 77.042969 -171.662031 C 77.082031 -171.607211 77.136719 -171.532812 77.210938 -171.438834 C 77.285156 -171.344856 77.335938 -171.266541 77.367188 -171.20389 C 77.398438 -171.137322 77.433594 -171.066839 77.476562 -170.988524 C 77.523438 -170.910209 77.554688 -170.827979 77.574219 -170.749664 C 77.59375 -170.671349 77.613281 -170.59695 77.625 -170.526467 C 77.640625 -170.459899 77.648438 -170.377669 77.648438 -170.283691 C 77.648438 -169.974348 77.566406 -169.704162 77.398438 -169.477049 C 77.230469 -169.249936 76.988281 -169.13638 76.679688 -169.13638 C 76.515625 -169.13638 76.371094 -169.179453 76.25 -169.261684 C 76.125 -169.343914 76.039062 -169.426145 75.988281 -169.504459 C 75.941406 -169.58669 75.914062 -169.633679 75.914062 -169.645426 C 75.914062 -169.653257 75.929688 -169.653257 75.953125 -169.653257 C 76.042969 -169.653257 76.132812 -169.688499 76.226562 -169.758982 C 76.320312 -169.82555 76.367188 -169.939106 76.367188 -170.099651 C 76.367188 -170.221039 76.328125 -170.326764 76.25 -170.408995 C 76.167969 -170.495141 76.058594 -170.538214 75.914062 -170.54213 Z M 75.914062 -170.54213 " transform="matrix(1,0,0,-0.997577,-44,-163)"/>
<path style="fill-rule:nonzero;fill:rgb(30.195618%,30.195618%,30.195618%);fill-opacity:1;stroke-width:0.0104761;stroke-linecap:butt;stroke-linejoin:miter;stroke:rgb(30.195618%,30.195618%,30.195618%);stroke-opacity:0.0118;stroke-miterlimit:10;" d="M 80.679688 -171.783419 C 80.679688 -171.783419 80.679688 -171.693357 80.679688 -171.521064 C 80.679688 -171.344856 80.738281 -171.196058 80.847656 -171.070754 C 80.960938 -170.945451 81.109375 -170.882799 81.300781 -170.882799 C 81.496094 -170.882799 81.667969 -170.968945 81.824219 -171.145153 C 81.976562 -171.317446 82.058594 -171.626789 82.0625 -172.065352 C 82.0625 -172.308128 82.03125 -172.546988 81.96875 -172.778016 C 81.90625 -173.009045 81.832031 -173.208747 81.75 -173.373208 C 81.667969 -173.541585 81.574219 -173.686467 81.476562 -173.803939 C 81.378906 -173.921412 81.296875 -174.019305 81.226562 -174.085873 C 81.15625 -174.156356 81.109375 -174.187682 81.089844 -174.17985 C 81.0625 -174.17985 81.015625 -174.148524 80.953125 -174.085873 C 80.890625 -174.023221 80.859375 -173.980148 80.859375 -173.952737 C 80.859375 -173.921412 80.898438 -173.866591 80.976562 -173.784361 C 81.050781 -173.698215 81.140625 -173.596405 81.238281 -173.467186 C 81.335938 -173.341882 81.425781 -173.16959 81.507812 -172.946393 C 81.59375 -172.723196 81.648438 -172.468673 81.675781 -172.178908 L 81.675781 -172.053605 L 81.667969 -172.065352 C 81.652344 -172.073183 81.636719 -172.081015 81.613281 -172.084931 C 81.59375 -172.092762 81.570312 -172.104509 81.550781 -172.116256 C 81.53125 -172.131919 81.5 -172.139751 81.457031 -172.139751 C 81.414062 -172.139751 81.371094 -172.143667 81.332031 -172.147582 C 81.140625 -172.147582 80.988281 -172.088846 80.871094 -171.971374 Z M 80.679688 -171.783419 " transform="matrix(1,0,0,-0.997577,-44,-163)"/>
<path style="fill-rule:nonzero;fill:rgb(30.195618%,30.195618%,30.195618%);fill-opacity:1;stroke-width:0.0104761;stroke-linecap:butt;stroke-linejoin:miter;stroke:rgb(30.195618%,30.195618%,30.195618%);stroke-opacity:0.0118;stroke-miterlimit:10;" d="M 85.34375 -171.521064 C 85.34375 -171.352688 85.402344 -171.207805 85.519531 -171.082502 C 85.640625 -170.953282 85.789062 -170.89063 85.972656 -170.89063 C 86.140625 -170.89063 86.285156 -170.949367 86.410156 -171.059007 C 86.539062 -171.172564 86.605469 -171.321362 86.609375 -171.509317 C 86.609375 -171.685525 86.550781 -171.834323 86.433594 -171.959627 C 86.3125 -172.084931 86.164062 -172.147582 85.984375 -172.147582 C 85.800781 -172.147582 85.652344 -172.088846 85.53125 -171.971374 C 85.414062 -171.853902 85.351562 -171.701188 85.34375 -171.521064 Z M 85.34375 -171.521064 " transform="matrix(1,0,0,-0.997577,-44,-163)"/>
<path style="fill-rule:nonzero;fill:rgb(30.195618%,30.195618%,30.195618%);fill-opacity:1;stroke-width:0.0104761;stroke-linecap:butt;stroke-linejoin:miter;stroke:rgb(30.195618%,30.195618%,30.195618%);stroke-opacity:0.0118;stroke-miterlimit:10;" d="M 90.003906 -171.521064 C 90.003906 -171.352688 90.066406 -171.207805 90.183594 -171.082502 C 90.300781 -170.953282 90.453125 -170.89063 90.632812 -170.89063 C 90.800781 -170.89063 90.949219 -170.949367 91.074219 -171.059007 C 91.199219 -171.172564 91.265625 -171.321362 91.273438 -171.509317 C 91.273438 -171.685525 91.214844 -171.834323 91.09375 -171.959627 C 90.976562 -172.084931 90.824219 -172.147582 90.644531 -172.147582 C 90.460938 -172.147582 90.3125 -172.088846 90.195312 -171.971374 C 90.074219 -171.853902 90.011719 -171.701188 90.003906 -171.521064 Z M 90.003906 -171.521064 " transform="matrix(1,0,0,-0.997577,-44,-163)"/>
<path style="fill-rule:nonzero;fill:rgb(30.195618%,30.195618%,30.195618%);fill-opacity:1;stroke-width:0.0104761;stroke-linecap:butt;stroke-linejoin:miter;stroke:rgb(30.195618%,30.195618%,30.195618%);stroke-opacity:0.0118;stroke-miterlimit:10;" d="M 94.667969 -171.521064 C 94.667969 -171.352688 94.726562 -171.207805 94.84375 -171.082502 C 94.964844 -170.953282 95.113281 -170.89063 95.296875 -170.89063 C 95.464844 -170.89063 95.609375 -170.949367 95.734375 -171.059007 C 95.863281 -171.172564 95.929688 -171.321362 95.933594 -171.509317 C 95.933594 -171.685525 95.875 -171.834323 95.757812 -171.959627 C 95.636719 -172.084931 95.488281 -172.147582 95.304688 -172.147582 C 95.125 -172.147582 94.972656 -172.088846 94.855469 -171.971374 C 94.738281 -171.853902 94.675781 -171.701188 94.667969 -171.521064 Z M 94.667969 -171.521064 " transform="matrix(1,0,0,-0.997577,-44,-163)"/>
<path style="fill-rule:nonzero;fill:rgb(30.195618%,30.195618%,30.195618%);fill-opacity:1;stroke-width:0.0104761;stroke-linecap:butt;stroke-linejoin:miter;stroke:rgb(30.195618%,30.195618%,30.195618%);stroke-opacity:0.0118;stroke-miterlimit:10;" d="M 99.339844 -171.783419 C 99.339844 -171.783419 99.339844 -171.693357 99.339844 -171.521064 C 99.339844 -171.344856 99.394531 -171.196058 99.507812 -171.070754 C 99.617188 -170.945451 99.769531 -170.882799 99.957031 -170.882799 C 100.152344 -170.882799 100.328125 -170.968945 100.480469 -171.145153 C 100.636719 -171.317446 100.714844 -171.626789 100.722656 -172.065352 C 100.722656 -172.308128 100.691406 -172.546988 100.628906 -172.778016 C 100.566406 -173.009045 100.492188 -173.208747 100.40625 -173.373208 C 100.324219 -173.541585 100.234375 -173.686467 100.136719 -173.803939 C 100.039062 -173.921412 99.953125 -174.019305 99.882812 -174.085873 C 99.8125 -174.156356 99.769531 -174.187682 99.746094 -174.17985 C 99.71875 -174.17985 99.675781 -174.148524 99.613281 -174.085873 C 99.550781 -174.023221 99.515625 -173.980148 99.515625 -173.952737 C 99.515625 -173.921412 99.554688 -173.866591 99.632812 -173.784361 C 99.710938 -173.698215 99.796875 -173.596405 99.894531 -173.467186 C 99.992188 -173.341882 100.082031 -173.16959 100.167969 -172.946393 C 100.25 -172.723196 100.308594 -172.468673 100.335938 -172.178908 L 100.335938 -172.053605 L 100.324219 -172.065352 C 100.308594 -172.073183 100.292969 -172.081015 100.273438 -172.084931 C 100.25 -172.092762 100.230469 -172.104509 100.207031 -172.116256 C 100.1875 -172.131919 100.15625 -172.139751 100.113281 -172.139751 C 100.074219 -172.139751 100.03125 -172.143667 99.988281 -172.147582 C 99.800781 -172.147582 99.648438 -172.088846 99.527344 -171.971374 Z M 99.339844 -171.783419 " transform="matrix(1,0,0,-0.997577,-44,-163)"/>
<path style="fill-rule:nonzero;fill:rgb(30.195618%,30.195618%,30.195618%);fill-opacity:1;stroke-width:0.0104761;stroke-linecap:butt;stroke-linejoin:miter;stroke:rgb(30.195618%,30.195618%,30.195618%);stroke-opacity:0.0118;stroke-miterlimit:10;" d="M 106.285156 -172.147582 C 106.160156 -172.128004 105.699219 -172.116256 104.902344 -172.116256 C 104.160156 -172.116256 103.761719 -172.128004 103.699219 -172.147582 L 103.601562 -172.147582 L 103.601562 -171.501486 L 104.148438 -171.501486 C 104.511719 -171.501486 104.691406 -171.493654 104.691406 -171.477991 C 106.398438 -167.162848 107.28125 -164.981782 107.34375 -164.930878 C 107.386719 -164.868226 107.515625 -164.8369 107.730469 -164.8369 C 107.933594 -164.8369 108.0625 -164.868226 108.117188 -164.930878 C 108.144531 -164.950456 108.378906 -165.506491 108.820312 -166.595066 C 109.261719 -167.687557 109.695312 -168.776132 110.128906 -169.864707 L 110.769531 -171.477991 C 110.769531 -171.493654 110.949219 -171.501486 111.3125 -171.501486 L 111.859375 -171.501486 L 111.859375 -172.147582 L 111.742188 -172.147582 C 111.597656 -172.128004 111.042969 -172.116256 110.078125 -172.116256 C 109.035156 -172.116256 108.433594 -172.128004 108.265625 -172.147582 L 108.128906 -172.147582 L 108.128906 -171.501486 L 108.601562 -171.501486 C 108.90625 -171.501486 109.0625 -171.49757 109.0625 -171.489738 L 108.601562 -170.315017 L 105.929688 -170.315017 L 105.699219 -170.89063 C 105.542969 -171.274373 105.464844 -171.47016 105.457031 -171.477991 C 105.457031 -171.493654 105.609375 -171.501486 105.917969 -171.501486 L 106.390625 -171.501486 L 106.390625 -172.147582 Z M 107.269531 -169.665005 L 108.339844 -169.657173 L 107.792969 -168.325822 C 107.445312 -167.444781 107.261719 -167.006219 107.25 -167.006219 C 106.542969 -168.764385 106.191406 -169.653257 106.191406 -169.665005 Z M 107.269531 -169.665005 " transform="matrix(1,0,0,-0.997577,-44,-163)"/>
<path style="fill-rule:nonzero;fill:rgb(30.195618%,30.195618%,30.195618%);fill-opacity:1;stroke-width:0.00740661;stroke-linecap:butt;stroke-linejoin:miter;stroke:rgb(30.195618%,30.195618%,30.195618%);stroke-opacity:0.00779999;stroke-miterlimit:10;" d="M 112.445312 -171.595463 C 112.449219 -171.564137 112.457031 -171.52498 112.464844 -171.477991 C 112.476562 -171.427087 112.503906 -171.333109 112.554688 -171.196058 C 112.605469 -171.055091 112.652344 -170.941535 112.703125 -170.847557 C 112.753906 -170.75358 112.832031 -170.663518 112.945312 -170.573456 C 113.0625 -170.483394 113.175781 -170.440321 113.289062 -170.448152 C 113.464844 -170.448152 113.613281 -170.491225 113.730469 -170.581287 C 113.851562 -170.667433 113.925781 -170.75358 113.953125 -170.831894 C 113.984375 -170.910209 114 -170.961114 114 -170.988524 C 114 -170.996355 114 -171.004187 114.007812 -171.004187 L 114.085938 -170.921956 C 114.390625 -170.604782 114.730469 -170.448152 115.117188 -170.448152 C 115.382812 -170.448152 115.597656 -170.51472 115.761719 -170.647855 C 115.925781 -170.78099 116.007812 -170.976777 116.011719 -171.2313 C 116.019531 -171.489738 115.925781 -171.877396 115.730469 -172.394274 C 115.539062 -172.915067 115.445312 -173.228326 115.449219 -173.334051 C 115.449219 -173.46327 115.492188 -173.529838 115.578125 -173.529838 C 115.605469 -173.529838 115.628906 -173.525922 115.644531 -173.522006 C 115.785156 -173.494596 115.914062 -173.400618 116.027344 -173.240073 C 116.140625 -173.075612 116.226562 -172.879825 116.289062 -172.644881 C 116.296875 -172.605724 116.347656 -172.586145 116.4375 -172.586145 C 116.535156 -172.586145 116.582031 -172.605724 116.582031 -172.644881 C 116.582031 -172.652713 116.574219 -172.687954 116.554688 -172.758437 C 116.515625 -172.899404 116.460938 -173.040371 116.390625 -173.181337 C 116.320312 -173.318388 116.207031 -173.455439 116.050781 -173.596405 C 115.890625 -173.733456 115.722656 -173.800024 115.539062 -173.796108 C 115.308594 -173.796108 115.140625 -173.72954 115.035156 -173.596405 C 114.933594 -173.459355 114.878906 -173.322304 114.878906 -173.181337 C 114.878906 -173.087359 114.96875 -172.789763 115.148438 -172.292465 C 115.324219 -171.79125 115.414062 -171.415339 115.421875 -171.164732 C 115.421875 -170.874968 115.3125 -170.730085 115.09375 -170.730085 L 115.058594 -170.730085 C 114.632812 -170.730085 114.273438 -170.976777 113.984375 -171.477991 L 113.933594 -171.564137 L 113.6875 -172.558735 C 113.523438 -173.204832 113.429688 -173.553332 113.40625 -173.600321 C 113.34375 -173.733456 113.234375 -173.803939 113.085938 -173.803939 C 113.023438 -173.803939 112.972656 -173.788276 112.933594 -173.756951 C 112.894531 -173.72954 112.867188 -173.698215 112.851562 -173.666889 C 112.835938 -173.639478 112.832031 -173.615984 112.835938 -173.596405 C 112.835938 -173.529838 112.929688 -173.126517 113.117188 -172.386442 C 113.304688 -171.646368 113.402344 -171.243047 113.414062 -171.180395 C 113.417969 -171.156901 113.421875 -171.098165 113.421875 -171.008103 C 113.421875 -170.816231 113.363281 -170.722254 113.242188 -170.722254 C 113.054688 -170.722254 112.898438 -170.968945 112.777344 -171.462328 C 112.746094 -171.560222 112.730469 -171.611126 112.730469 -171.618958 C 112.722656 -171.646368 112.675781 -171.662031 112.589844 -171.662031 L 112.488281 -171.662031 C 112.457031 -171.630705 112.445312 -171.611126 112.445312 -171.595463 Z M 112.445312 -171.595463 " transform="matrix(1,0,0,-0.997577,-44,-163)"/>
<g clip-path="url(#clip16)" clip-rule="nonzero">
<path style="fill-rule:nonzero;fill:rgb(30.195618%,30.195618%,30.195618%);fill-opacity:1;stroke-width:0.0104761;stroke-linecap:butt;stroke-linejoin:miter;stroke:rgb(30.195618%,30.195618%,30.195618%);stroke-opacity:0.0118;stroke-miterlimit:10;" d="M 118.019531 -164.711596 L 118.019531 -164.292612 L 119.453125 -164.292612 L 119.453125 -174.767211 L 118.019531 -174.767211 L 118.019531 -174.348227 L 119.035156 -174.348227 L 119.035156 -164.711596 Z M 118.019531 -164.711596 " transform="matrix(1,0,0,-0.997577,-44,-163)"/>
</g>
</g>
<clipPath id="clip17">
  <path d="M 170.300781 163.117188 L 245.210938 163.117188 L 245.210938 174.351562 L 170.300781 174.351562 Z M 170.300781 163.117188 "/>
</clipPath>
<clipPath id="clip19">
  <path d="M 1 0.117188 L 3 0.117188 L 3 11.351562 L 1 11.351562 Z M 1 0.117188 "/>
</clipPath>
<clipPath id="clip20">
  <path d="M 73 0.117188 L 75.210938 0.117188 L 75.210938 11.351562 L 73 11.351562 Z M 73 0.117188 "/>
</clipPath>
<clipPath id="clip18">
  <rect width="76" height="12"/>
</clipPath>
<g id="surface6" clip-path="url(#clip18)">
<g clip-path="url(#clip19)" clip-rule="nonzero">
<path style="fill-rule:nonzero;fill:rgb(30.195618%,30.195618%,30.195618%);fill-opacity:1;stroke-width:0.0104761;stroke-linecap:butt;stroke-linejoin:miter;stroke:rgb(30.195618%,30.195618%,30.195618%);stroke-opacity:0.0118;stroke-miterlimit:10;" d="M 171.546875 -174.767211 L 171.546875 -164.292612 L 172.984375 -164.292612 L 172.984375 -164.711596 L 171.964844 -164.711596 L 171.964844 -174.348227 L 172.984375 -174.348227 L 172.984375 -174.767211 Z M 171.546875 -174.767211 " transform="matrix(1,0,0,-0.997577,-170,-163)"/>
</g>
<path style="fill-rule:nonzero;fill:rgb(30.195618%,30.195618%,30.195618%);fill-opacity:1;stroke-width:0.0104761;stroke-linecap:butt;stroke-linejoin:miter;stroke:rgb(30.195618%,30.195618%,30.195618%);stroke-opacity:0.0118;stroke-miterlimit:10;" d="M 176.648438 -172.147582 C 176.503906 -172.128004 175.96875 -172.116256 175.046875 -172.116256 C 174.195312 -172.116256 173.738281 -172.128004 173.675781 -172.147582 L 173.570312 -172.147582 L 173.570312 -171.501486 L 174.25 -171.501486 L 174.921875 -171.489738 L 176.996094 -168.65866 L 174.867188 -165.612216 L 173.726562 -165.612216 L 173.726562 -164.962203 L 173.839844 -164.962203 C 173.988281 -164.981782 174.539062 -164.993529 175.496094 -164.993529 C 176.550781 -164.993529 177.171875 -164.981782 177.363281 -164.962203 L 177.496094 -164.962203 L 177.496094 -165.612216 L 176.734375 -165.612216 L 177.339844 -166.493257 L 177.957031 -167.350803 L 179.226562 -165.623963 C 179.226562 -165.616132 179.070312 -165.612216 178.753906 -165.612216 L 178.285156 -165.612216 L 178.285156 -164.962203 L 178.398438 -164.962203 C 178.546875 -164.981782 179.078125 -164.993529 179.992188 -164.993529 C 180.851562 -164.993529 181.3125 -164.981782 181.375 -164.962203 L 181.46875 -164.962203 L 181.46875 -165.612216 L 180.117188 -165.612216 L 179.246094 -166.794769 C 178.675781 -167.585748 178.386719 -167.981237 178.386719 -167.989069 L 178.546875 -168.20835 C 178.644531 -168.349317 178.800781 -168.572514 179.015625 -168.881857 C 179.234375 -169.187285 179.4375 -169.477049 179.625 -169.751151 L 180.839844 -171.501486 L 181.972656 -171.501486 L 181.972656 -172.147582 L 181.855469 -172.147582 C 181.710938 -172.128004 181.160156 -172.116256 180.210938 -172.116256 C 179.15625 -172.116256 178.535156 -172.128004 178.347656 -172.147582 L 178.210938 -172.147582 L 178.210938 -171.501486 L 178.597656 -171.501486 L 178.976562 -171.489738 L 177.425781 -169.277347 L 175.8125 -171.489738 C 175.8125 -171.49757 175.96875 -171.501486 176.28125 -171.501486 L 176.765625 -171.501486 L 176.765625 -172.147582 Z M 176.648438 -172.147582 " transform="matrix(1,0,0,-0.997577,-170,-163)"/>
<path style="fill-rule:nonzero;fill:rgb(30.195618%,30.195618%,30.195618%);fill-opacity:1;stroke-width:0.00740661;stroke-linecap:butt;stroke-linejoin:miter;stroke:rgb(30.195618%,30.195618%,30.195618%);stroke-opacity:0.00779999;stroke-miterlimit:10;" d="M 183.90625 -169.437892 L 183.808594 -169.477049 C 183.738281 -169.500544 183.640625 -169.524038 183.511719 -169.551448 C 183.382812 -169.574943 183.242188 -169.594521 183.082031 -169.602353 L 182.941406 -169.602353 L 182.941406 -169.261684 L 183.082031 -169.261684 C 183.316406 -169.249936 183.53125 -169.214695 183.726562 -169.152043 C 183.925781 -169.085475 184.0625 -169.026739 184.140625 -168.971919 C 184.222656 -168.917099 184.289062 -168.866194 184.347656 -168.811374 C 184.359375 -168.795711 184.390625 -168.787879 184.4375 -168.787879 C 184.484375 -168.787879 184.523438 -168.803542 184.5625 -168.830952 L 184.5625 -171.04726 L 184.570312 -173.267483 C 184.605469 -173.302725 184.636719 -173.326219 184.660156 -173.334051 C 184.683594 -173.345798 184.746094 -173.35363 184.839844 -173.365377 C 184.933594 -173.373208 185.085938 -173.38104 185.296875 -173.38104 L 185.488281 -173.38104 L 185.488281 -173.721709 L 185.410156 -173.721709 C 185.304688 -173.706046 184.914062 -173.698215 184.230469 -173.698215 C 183.558594 -173.698215 183.171875 -173.706046 183.066406 -173.721709 L 182.980469 -173.721709 L 182.980469 -173.38104 L 183.171875 -173.38104 C 183.28125 -173.38104 183.375 -173.38104 183.453125 -173.38104 C 183.53125 -173.38104 183.59375 -173.377124 183.636719 -173.373208 C 183.683594 -173.369293 183.722656 -173.361461 183.757812 -173.349714 C 183.792969 -173.341882 183.8125 -173.334051 183.816406 -173.334051 C 183.820312 -173.334051 183.835938 -173.322304 183.859375 -173.298809 C 183.886719 -173.275315 183.898438 -173.263568 183.90625 -173.267483 Z M 183.90625 -169.437892 " transform="matrix(1,0,0,-0.997577,-170,-163)"/>
<path style="fill-rule:nonzero;fill:rgb(30.195618%,30.195618%,30.195618%);fill-opacity:1;stroke-width:0.0104761;stroke-linecap:butt;stroke-linejoin:miter;stroke:rgb(30.195618%,30.195618%,30.195618%);stroke-opacity:0.0118;stroke-miterlimit:10;" d="M 187.902344 -171.783419 C 187.902344 -171.783419 187.902344 -171.693357 187.902344 -171.521064 C 187.902344 -171.344856 187.957031 -171.196058 188.066406 -171.070754 C 188.179688 -170.945451 188.332031 -170.882799 188.519531 -170.882799 C 188.714844 -170.882799 188.890625 -170.968945 189.042969 -171.145153 C 189.195312 -171.317446 189.277344 -171.626789 189.285156 -172.065352 C 189.285156 -172.308128 189.253906 -172.546988 189.1875 -172.778016 C 189.125 -173.009045 189.054688 -173.208747 188.96875 -173.373208 C 188.886719 -173.541585 188.792969 -173.686467 188.695312 -173.803939 C 188.597656 -173.921412 188.515625 -174.019305 188.445312 -174.085873 C 188.375 -174.156356 188.332031 -174.187682 188.308594 -174.17985 C 188.28125 -174.17985 188.234375 -174.148524 188.171875 -174.085873 C 188.109375 -174.023221 188.078125 -173.980148 188.078125 -173.952737 C 188.078125 -173.921412 188.117188 -173.866591 188.195312 -173.784361 C 188.269531 -173.698215 188.359375 -173.596405 188.457031 -173.467186 C 188.554688 -173.341882 188.644531 -173.16959 188.726562 -172.946393 C 188.8125 -172.723196 188.867188 -172.468673 188.894531 -172.178908 L 188.894531 -172.053605 L 188.886719 -172.065352 C 188.871094 -172.073183 188.855469 -172.081015 188.832031 -172.084931 C 188.8125 -172.092762 188.792969 -172.104509 188.769531 -172.116256 C 188.75 -172.131919 188.71875 -172.139751 188.675781 -172.139751 C 188.632812 -172.139751 188.59375 -172.143667 188.550781 -172.147582 C 188.363281 -172.147582 188.207031 -172.088846 188.089844 -171.971374 Z M 187.902344 -171.783419 " transform="matrix(1,0,0,-0.997577,-170,-163)"/>
<path style="fill-rule:nonzero;fill:rgb(30.195618%,30.195618%,30.195618%);fill-opacity:1;stroke-width:0.0104761;stroke-linecap:butt;stroke-linejoin:miter;stroke:rgb(30.195618%,30.195618%,30.195618%);stroke-opacity:0.0118;stroke-miterlimit:10;" d="M 195.179688 -172.147582 C 195.035156 -172.128004 194.5 -172.116256 193.578125 -172.116256 C 192.726562 -172.116256 192.269531 -172.128004 192.207031 -172.147582 L 192.101562 -172.147582 L 192.101562 -171.501486 L 192.78125 -171.501486 L 193.453125 -171.489738 L 195.527344 -168.65866 L 193.402344 -165.612216 L 192.257812 -165.612216 L 192.257812 -164.962203 L 192.375 -164.962203 C 192.519531 -164.981782 193.074219 -164.993529 194.027344 -164.993529 C 195.082031 -164.993529 195.707031 -164.981782 195.894531 -164.962203 L 196.03125 -164.962203 L 196.03125 -165.612216 L 195.265625 -165.612216 L 195.871094 -166.493257 L 196.492188 -167.350803 L 197.757812 -165.623963 C 197.757812 -165.616132 197.601562 -165.612216 197.289062 -165.612216 L 196.816406 -165.612216 L 196.816406 -164.962203 L 196.929688 -164.962203 C 197.078125 -164.981782 197.609375 -164.993529 198.523438 -164.993529 C 199.382812 -164.993529 199.84375 -164.981782 199.90625 -164.962203 L 200 -164.962203 L 200 -165.612216 L 198.648438 -165.612216 L 197.78125 -166.794769 C 197.207031 -167.585748 196.921875 -167.981237 196.921875 -167.989069 L 197.078125 -168.20835 C 197.175781 -168.349317 197.332031 -168.572514 197.550781 -168.881857 C 197.765625 -169.187285 197.96875 -169.477049 198.15625 -169.751151 L 199.371094 -171.501486 L 200.503906 -171.501486 L 200.503906 -172.147582 L 200.386719 -172.147582 C 200.242188 -172.128004 199.691406 -172.116256 198.742188 -172.116256 C 197.6875 -172.116256 197.066406 -172.128004 196.878906 -172.147582 L 196.742188 -172.147582 L 196.742188 -171.501486 L 197.128906 -171.501486 L 197.507812 -171.489738 L 195.957031 -169.277347 L 194.34375 -171.489738 C 194.34375 -171.49757 194.5 -171.501486 194.816406 -171.501486 L 195.296875 -171.501486 L 195.296875 -172.147582 Z M 195.179688 -172.147582 " transform="matrix(1,0,0,-0.997577,-170,-163)"/>
<path style="fill-rule:nonzero;fill:rgb(30.195618%,30.195618%,30.195618%);fill-opacity:1;stroke-width:0.00740661;stroke-linecap:butt;stroke-linejoin:miter;stroke:rgb(30.195618%,30.195618%,30.195618%);stroke-opacity:0.00779999;stroke-miterlimit:10;" d="M 201.667969 -170.54213 C 201.535156 -170.54213 201.425781 -170.499057 201.347656 -170.408995 C 201.269531 -170.322849 201.230469 -170.213208 201.230469 -170.083989 C 201.230469 -169.731572 201.359375 -169.43006 201.621094 -169.171622 C 201.882812 -168.917099 202.210938 -168.787879 202.601562 -168.787879 C 203.050781 -168.787879 203.425781 -168.92493 203.726562 -169.202947 C 204.027344 -169.480965 204.179688 -169.837297 204.183594 -170.27586 C 204.183594 -170.48731 204.136719 -170.690928 204.035156 -170.882799 C 203.9375 -171.07467 203.820312 -171.243047 203.679688 -171.387929 C 203.542969 -171.528896 203.347656 -171.712935 203.089844 -171.936132 C 202.910156 -172.088846 202.664062 -172.315959 202.347656 -172.617471 L 201.910156 -173.032539 L 202.472656 -173.040371 C 203.25 -173.040371 203.660156 -173.028623 203.710938 -173.001213 C 203.746094 -172.993382 203.804688 -172.7741 203.890625 -172.343369 L 203.890625 -172.319875 L 204.183594 -172.319875 L 204.183594 -172.343369 C 204.179688 -172.359032 204.148438 -172.582229 204.089844 -173.016876 C 204.03125 -173.451523 203.992188 -173.678636 203.976562 -173.698215 L 203.976562 -173.721709 L 201.230469 -173.721709 L 201.230469 -173.49068 C 201.230469 -173.455439 201.246094 -173.420197 201.273438 -173.38104 C 201.304688 -173.341882 201.378906 -173.255736 201.496094 -173.118685 C 201.640625 -172.962056 201.761719 -172.825005 201.867188 -172.707533 C 201.910156 -172.656628 201.996094 -172.566566 202.117188 -172.433431 C 202.242188 -172.300296 202.324219 -172.206318 202.371094 -172.15933 C 202.414062 -172.108425 202.488281 -172.026194 202.585938 -171.912638 C 202.683594 -171.799082 202.753906 -171.716851 202.792969 -171.662031 C 202.832031 -171.607211 202.890625 -171.532812 202.964844 -171.438834 C 203.039062 -171.344856 203.089844 -171.266541 203.117188 -171.20389 C 203.148438 -171.137322 203.183594 -171.066839 203.230469 -170.988524 C 203.273438 -170.910209 203.304688 -170.827979 203.324219 -170.749664 C 203.347656 -170.671349 203.363281 -170.59695 203.378906 -170.526467 C 203.394531 -170.459899 203.398438 -170.377669 203.398438 -170.283691 C 203.398438 -169.974348 203.316406 -169.704162 203.148438 -169.477049 C 202.980469 -169.249936 202.742188 -169.13638 202.429688 -169.13638 C 202.265625 -169.13638 202.125 -169.179453 202 -169.261684 C 201.875 -169.343914 201.789062 -169.426145 201.742188 -169.504459 C 201.691406 -169.58669 201.667969 -169.633679 201.667969 -169.645426 C 201.667969 -169.653257 201.679688 -169.653257 201.703125 -169.653257 C 201.792969 -169.653257 201.882812 -169.688499 201.976562 -169.758982 C 202.070312 -169.82555 202.117188 -169.939106 202.117188 -170.099651 C 202.117188 -170.221039 202.078125 -170.326764 202 -170.408995 C 201.921875 -170.495141 201.808594 -170.538214 201.667969 -170.54213 Z M 201.667969 -170.54213 " transform="matrix(1,0,0,-0.997577,-170,-163)"/>
<path style="fill-rule:nonzero;fill:rgb(30.195618%,30.195618%,30.195618%);fill-opacity:1;stroke-width:0.0104761;stroke-linecap:butt;stroke-linejoin:miter;stroke:rgb(30.195618%,30.195618%,30.195618%);stroke-opacity:0.0118;stroke-miterlimit:10;" d="M 206.433594 -171.783419 C 206.433594 -171.783419 206.433594 -171.693357 206.433594 -171.521064 C 206.433594 -171.344856 206.488281 -171.196058 206.601562 -171.070754 C 206.710938 -170.945451 206.863281 -170.882799 207.050781 -170.882799 C 207.246094 -170.882799 207.421875 -170.968945 207.574219 -171.145153 C 207.726562 -171.317446 207.808594 -171.626789 207.816406 -172.065352 C 207.816406 -172.308128 207.785156 -172.546988 207.722656 -172.778016 C 207.660156 -173.009045 207.585938 -173.208747 207.5 -173.373208 C 207.417969 -173.541585 207.328125 -173.686467 207.230469 -173.803939 C 207.132812 -173.921412 207.046875 -174.019305 206.976562 -174.085873 C 206.90625 -174.156356 206.863281 -174.187682 206.839844 -174.17985 C 206.8125 -174.17985 206.769531 -174.148524 206.707031 -174.085873 C 206.640625 -174.023221 206.609375 -173.980148 206.609375 -173.952737 C 206.609375 -173.921412 206.648438 -173.866591 206.726562 -173.784361 C 206.804688 -173.698215 206.890625 -173.596405 206.988281 -173.467186 C 207.085938 -173.341882 207.175781 -173.16959 207.261719 -172.946393 C 207.34375 -172.723196 207.398438 -172.468673 207.429688 -172.178908 L 207.429688 -172.053605 L 207.417969 -172.065352 C 207.402344 -172.073183 207.386719 -172.081015 207.367188 -172.084931 C 207.34375 -172.092762 207.324219 -172.104509 207.300781 -172.116256 C 207.28125 -172.131919 207.25 -172.139751 207.207031 -172.139751 C 207.167969 -172.139751 207.125 -172.143667 207.082031 -172.147582 C 206.894531 -172.147582 206.738281 -172.088846 206.621094 -171.971374 Z M 206.433594 -171.783419 " transform="matrix(1,0,0,-0.997577,-170,-163)"/>
<path style="fill-rule:nonzero;fill:rgb(30.195618%,30.195618%,30.195618%);fill-opacity:1;stroke-width:0.0104761;stroke-linecap:butt;stroke-linejoin:miter;stroke:rgb(30.195618%,30.195618%,30.195618%);stroke-opacity:0.0118;stroke-miterlimit:10;" d="M 211.09375 -171.521064 C 211.09375 -171.352688 211.152344 -171.207805 211.273438 -171.082502 C 211.390625 -170.953282 211.542969 -170.89063 211.722656 -170.89063 C 211.890625 -170.89063 212.039062 -170.949367 212.164062 -171.059007 C 212.289062 -171.172564 212.355469 -171.321362 212.363281 -171.509317 C 212.363281 -171.685525 212.304688 -171.834323 212.183594 -171.959627 C 212.066406 -172.084931 211.914062 -172.147582 211.734375 -172.147582 C 211.550781 -172.147582 211.402344 -172.088846 211.285156 -171.971374 C 211.164062 -171.853902 211.101562 -171.701188 211.09375 -171.521064 Z M 211.09375 -171.521064 " transform="matrix(1,0,0,-0.997577,-170,-163)"/>
<path style="fill-rule:nonzero;fill:rgb(30.195618%,30.195618%,30.195618%);fill-opacity:1;stroke-width:0.0104761;stroke-linecap:butt;stroke-linejoin:miter;stroke:rgb(30.195618%,30.195618%,30.195618%);stroke-opacity:0.0118;stroke-miterlimit:10;" d="M 215.757812 -171.521064 C 215.757812 -171.352688 215.816406 -171.207805 215.933594 -171.082502 C 216.054688 -170.953282 216.203125 -170.89063 216.386719 -170.89063 C 216.554688 -170.89063 216.699219 -170.949367 216.824219 -171.059007 C 216.949219 -171.172564 217.015625 -171.321362 217.023438 -171.509317 C 217.023438 -171.685525 216.964844 -171.834323 216.847656 -171.959627 C 216.726562 -172.084931 216.578125 -172.147582 216.394531 -172.147582 C 216.214844 -172.147582 216.0625 -172.088846 215.945312 -171.971374 C 215.828125 -171.853902 215.761719 -171.701188 215.757812 -171.521064 Z M 215.757812 -171.521064 " transform="matrix(1,0,0,-0.997577,-170,-163)"/>
<path style="fill-rule:nonzero;fill:rgb(30.195618%,30.195618%,30.195618%);fill-opacity:1;stroke-width:0.0104761;stroke-linecap:butt;stroke-linejoin:miter;stroke:rgb(30.195618%,30.195618%,30.195618%);stroke-opacity:0.0118;stroke-miterlimit:10;" d="M 220.417969 -171.521064 C 220.417969 -171.352688 220.476562 -171.207805 220.597656 -171.082502 C 220.714844 -170.953282 220.867188 -170.89063 221.046875 -170.89063 C 221.214844 -170.89063 221.363281 -170.949367 221.488281 -171.059007 C 221.613281 -171.172564 221.679688 -171.321362 221.6875 -171.509317 C 221.6875 -171.685525 221.625 -171.834323 221.507812 -171.959627 C 221.390625 -172.084931 221.238281 -172.147582 221.058594 -172.147582 C 220.875 -172.147582 220.726562 -172.088846 220.605469 -171.971374 C 220.488281 -171.853902 220.425781 -171.701188 220.417969 -171.521064 Z M 220.417969 -171.521064 " transform="matrix(1,0,0,-0.997577,-170,-163)"/>
<path style="fill-rule:nonzero;fill:rgb(30.195618%,30.195618%,30.195618%);fill-opacity:1;stroke-width:0.0104761;stroke-linecap:butt;stroke-linejoin:miter;stroke:rgb(30.195618%,30.195618%,30.195618%);stroke-opacity:0.0118;stroke-miterlimit:10;" d="M 225.089844 -171.783419 C 225.089844 -171.783419 225.089844 -171.693357 225.089844 -171.521064 C 225.089844 -171.344856 225.148438 -171.196058 225.257812 -171.070754 C 225.371094 -170.945451 225.519531 -170.882799 225.707031 -170.882799 C 225.90625 -170.882799 226.078125 -170.968945 226.234375 -171.145153 C 226.386719 -171.317446 226.464844 -171.626789 226.472656 -172.065352 C 226.472656 -172.308128 226.441406 -172.546988 226.378906 -172.778016 C 226.316406 -173.009045 226.242188 -173.208747 226.160156 -173.373208 C 226.074219 -173.541585 225.984375 -173.686467 225.886719 -173.803939 C 225.789062 -173.921412 225.707031 -174.019305 225.636719 -174.085873 C 225.566406 -174.156356 225.519531 -174.187682 225.5 -174.17985 C 225.472656 -174.17985 225.425781 -174.148524 225.363281 -174.085873 C 225.300781 -174.023221 225.269531 -173.980148 225.269531 -173.952737 C 225.269531 -173.921412 225.308594 -173.866591 225.382812 -173.784361 C 225.460938 -173.698215 225.546875 -173.596405 225.644531 -173.467186 C 225.742188 -173.341882 225.835938 -173.16959 225.917969 -172.946393 C 226.003906 -172.723196 226.058594 -172.468673 226.085938 -172.178908 L 226.085938 -172.053605 L 226.074219 -172.065352 C 226.0625 -172.073183 226.042969 -172.081015 226.023438 -172.084931 C 226.003906 -172.092762 225.980469 -172.104509 225.960938 -172.116256 C 225.9375 -172.131919 225.90625 -172.139751 225.867188 -172.139751 C 225.824219 -172.139751 225.78125 -172.143667 225.742188 -172.147582 C 225.550781 -172.147582 225.398438 -172.088846 225.28125 -171.971374 Z M 225.089844 -171.783419 " transform="matrix(1,0,0,-0.997577,-170,-163)"/>
<path style="fill-rule:nonzero;fill:rgb(30.195618%,30.195618%,30.195618%);fill-opacity:1;stroke-width:0.0104761;stroke-linecap:butt;stroke-linejoin:miter;stroke:rgb(30.195618%,30.195618%,30.195618%);stroke-opacity:0.0118;stroke-miterlimit:10;" d="M 232.359375 -172.147582 C 232.214844 -172.128004 231.679688 -172.116256 230.757812 -172.116256 C 229.90625 -172.116256 229.449219 -172.128004 229.386719 -172.147582 L 229.28125 -172.147582 L 229.28125 -171.501486 L 229.960938 -171.501486 L 230.632812 -171.489738 L 232.707031 -168.65866 L 230.582031 -165.612216 L 229.4375 -165.612216 L 229.4375 -164.962203 L 229.554688 -164.962203 C 229.699219 -164.981782 230.253906 -164.993529 231.207031 -164.993529 C 232.261719 -164.993529 232.886719 -164.981782 233.074219 -164.962203 L 233.210938 -164.962203 L 233.210938 -165.612216 L 232.445312 -165.612216 L 233.050781 -166.493257 L 233.671875 -167.350803 L 234.9375 -165.623963 C 234.9375 -165.616132 234.78125 -165.612216 234.46875 -165.612216 L 233.996094 -165.612216 L 233.996094 -164.962203 L 234.109375 -164.962203 C 234.257812 -164.981782 234.789062 -164.993529 235.703125 -164.993529 C 236.5625 -164.993529 237.023438 -164.981782 237.085938 -164.962203 L 237.179688 -164.962203 L 237.179688 -165.612216 L 235.828125 -165.612216 L 234.960938 -166.794769 C 234.386719 -167.585748 234.101562 -167.981237 234.101562 -167.989069 L 234.257812 -168.20835 C 234.355469 -168.349317 234.511719 -168.572514 234.730469 -168.881857 C 234.945312 -169.187285 235.148438 -169.477049 235.335938 -169.751151 L 236.550781 -171.501486 L 237.683594 -171.501486 L 237.683594 -172.147582 L 237.566406 -172.147582 C 237.421875 -172.128004 236.871094 -172.116256 235.921875 -172.116256 C 234.867188 -172.116256 234.246094 -172.128004 234.058594 -172.147582 L 233.921875 -172.147582 L 233.921875 -171.501486 L 234.308594 -171.501486 L 234.6875 -171.489738 L 233.136719 -169.277347 L 231.523438 -171.489738 C 231.523438 -171.49757 231.679688 -171.501486 231.996094 -171.501486 L 232.476562 -171.501486 L 232.476562 -172.147582 Z M 232.359375 -172.147582 " transform="matrix(1,0,0,-0.997577,-170,-163)"/>
<path style="fill-rule:nonzero;fill:rgb(30.195618%,30.195618%,30.195618%);fill-opacity:1;stroke-width:0.00740661;stroke-linecap:butt;stroke-linejoin:miter;stroke:rgb(30.195618%,30.195618%,30.195618%);stroke-opacity:0.00779999;stroke-miterlimit:10;" d="M 238.195312 -171.595463 C 238.199219 -171.564137 238.207031 -171.52498 238.21875 -171.477991 C 238.226562 -171.427087 238.257812 -171.333109 238.304688 -171.196058 C 238.355469 -171.055091 238.40625 -170.941535 238.453125 -170.847557 C 238.503906 -170.75358 238.585938 -170.663518 238.699219 -170.573456 C 238.8125 -170.483394 238.925781 -170.440321 239.039062 -170.448152 C 239.21875 -170.448152 239.363281 -170.491225 239.484375 -170.581287 C 239.601562 -170.667433 239.675781 -170.75358 239.707031 -170.831894 C 239.734375 -170.910209 239.75 -170.961114 239.75 -170.988524 C 239.75 -170.996355 239.753906 -171.004187 239.757812 -171.004187 L 239.839844 -170.921956 C 240.140625 -170.604782 240.484375 -170.448152 240.867188 -170.448152 C 241.136719 -170.448152 241.351562 -170.51472 241.511719 -170.647855 C 241.675781 -170.78099 241.761719 -170.976777 241.765625 -171.2313 C 241.769531 -171.489738 241.675781 -171.877396 241.484375 -172.394274 C 241.289062 -172.915067 241.195312 -173.228326 241.203125 -173.334051 C 241.203125 -173.46327 241.242188 -173.529838 241.328125 -173.529838 C 241.359375 -173.529838 241.378906 -173.525922 241.394531 -173.522006 C 241.539062 -173.494596 241.667969 -173.400618 241.78125 -173.240073 C 241.894531 -173.075612 241.980469 -172.879825 242.039062 -172.644881 C 242.046875 -172.605724 242.097656 -172.586145 242.1875 -172.586145 C 242.285156 -172.586145 242.335938 -172.605724 242.335938 -172.644881 C 242.335938 -172.652713 242.324219 -172.687954 242.304688 -172.758437 C 242.265625 -172.899404 242.210938 -173.040371 242.140625 -173.181337 C 242.074219 -173.318388 241.960938 -173.455439 241.800781 -173.596405 C 241.644531 -173.733456 241.472656 -173.800024 241.289062 -173.796108 C 241.058594 -173.796108 240.890625 -173.72954 240.789062 -173.596405 C 240.683594 -173.459355 240.632812 -173.322304 240.632812 -173.181337 C 240.632812 -173.087359 240.71875 -172.789763 240.898438 -172.292465 C 241.074219 -171.79125 241.167969 -171.415339 241.171875 -171.164732 C 241.171875 -170.874968 241.0625 -170.730085 240.847656 -170.730085 L 240.808594 -170.730085 C 240.382812 -170.730085 240.027344 -170.976777 239.734375 -171.477991 L 239.683594 -171.564137 L 239.4375 -172.558735 C 239.277344 -173.204832 239.183594 -173.553332 239.15625 -173.600321 C 239.09375 -173.733456 238.988281 -173.803939 238.839844 -173.803939 C 238.773438 -173.803939 238.722656 -173.788276 238.683594 -173.756951 C 238.644531 -173.72954 238.617188 -173.698215 238.601562 -173.666889 C 238.585938 -173.639478 238.582031 -173.615984 238.585938 -173.596405 C 238.585938 -173.529838 238.679688 -173.126517 238.867188 -172.386442 C 239.054688 -171.646368 239.15625 -171.243047 239.164062 -171.180395 C 239.171875 -171.156901 239.171875 -171.098165 239.171875 -171.008103 C 239.171875 -170.816231 239.113281 -170.722254 238.996094 -170.722254 C 238.808594 -170.722254 238.652344 -170.968945 238.527344 -171.462328 C 238.5 -171.560222 238.484375 -171.611126 238.484375 -171.618958 C 238.472656 -171.646368 238.425781 -171.662031 238.34375 -171.662031 L 238.238281 -171.662031 C 238.210938 -171.630705 238.195312 -171.611126 238.195312 -171.595463 Z M 238.195312 -171.595463 " transform="matrix(1,0,0,-0.997577,-170,-163)"/>
<g clip-path="url(#clip20)" clip-rule="nonzero">
<path style="fill-rule:nonzero;fill:rgb(30.195618%,30.195618%,30.195618%);fill-opacity:1;stroke-width:0.0104761;stroke-linecap:butt;stroke-linejoin:miter;stroke:rgb(30.195618%,30.195618%,30.195618%);stroke-opacity:0.0118;stroke-miterlimit:10;" d="M 243.769531 -164.711596 L 243.769531 -164.292612 L 245.203125 -164.292612 L 245.203125 -174.767211 L 243.769531 -174.767211 L 243.769531 -174.348227 L 244.785156 -174.348227 L 244.785156 -164.711596 Z M 243.769531 -164.711596 " transform="matrix(1,0,0,-0.997577,-170,-163)"/>
</g>
</g>
</defs>
<g id="surface1">
<g clip-path="url(#clip1)" clip-rule="nonzero">
<path style=" stroke:none;fill-rule:nonzero;fill:rgb(100%,100%,100%);fill-opacity:1;" d="M 0 0 L 235.703125 0 L 235.703125 152.890625 L 0 152.890625 Z M 0 0 "/>
</g>
<path style="fill:none;stroke-width:0.687177;stroke-linecap:butt;stroke-linejoin:miter;stroke:rgb(59.999084%,59.999084%,59.999084%);stroke-opacity:1;stroke-miterlimit:10;" d="M 1.03125 1.029704 L 138.464844 1.029704 L 138.464844 138.465801 L 1.03125 138.465801 Z M 1.03125 1.029704 " transform="matrix(1,0,0,0.997708,0,0)"/>
<path style="fill-rule:nonzero;fill:rgb(100%,100%,100%);fill-opacity:1;stroke-width:0.687177;stroke-linecap:butt;stroke-linejoin:miter;stroke:rgb(59.999084%,59.999084%,59.999084%);stroke-opacity:1;stroke-miterlimit:10;" d="M 1.03125 1.029704 L 28.519531 1.029704 L 28.519531 28.518489 L 1.03125 28.518489 Z M 1.03125 1.029704 " transform="matrix(1,0,0,0.997708,0,0)"/>
<path style="fill-rule:nonzero;fill:rgb(100%,100%,100%);fill-opacity:1;stroke-width:0.687177;stroke-linecap:butt;stroke-linejoin:miter;stroke:rgb(0%,0%,0%);stroke-opacity:1;stroke-miterlimit:10;" d="M 28.519531 28.518489 L 56.003906 28.518489 L 56.003906 56.00336 L 28.519531 56.00336 Z M 28.519531 28.518489 " transform="matrix(1,0,0,0.997708,0,0)"/>
<path style="fill-rule:nonzero;fill:rgb(100%,100%,100%);fill-opacity:1;stroke-width:0.687177;stroke-linecap:butt;stroke-linejoin:miter;stroke:rgb(59.999084%,59.999084%,59.999084%);stroke-opacity:1;stroke-miterlimit:10;" d="M 56.003906 1.029704 L 83.492188 1.029704 L 83.492188 28.518489 L 56.003906 28.518489 Z M 56.003906 1.029704 " transform="matrix(1,0,0,0.997708,0,0)"/>
<path style="fill-rule:nonzero;fill:rgb(100%,100%,100%);fill-opacity:1;stroke-width:0.687177;stroke-linecap:butt;stroke-linejoin:miter;stroke:rgb(0%,0%,0%);stroke-opacity:1;stroke-miterlimit:10;" d="M 56.003906 28.518489 L 83.492188 28.518489 L 83.492188 56.00336 L 56.003906 56.00336 Z M 56.003906 28.518489 " transform="matrix(1,0,0,0.997708,0,0)"/>
<path style="fill-rule:nonzero;fill:rgb(100%,100%,100%);fill-opacity:1;stroke-width:0.687177;stroke-linecap:butt;stroke-linejoin:miter;stroke:rgb(0%,0%,0%);stroke-opacity:1;stroke-miterlimit:10;" d="M 83.492188 28.518489 L 110.980469 28.518489 L 110.980469 56.00336 L 83.492188 56.00336 Z M 83.492188 28.518489 " transform="matrix(1,0,0,0.997708,0,0)"/>
<path style="fill-rule:nonzero;fill:rgb(100%,100%,100%);fill-opacity:1;stroke-width:0.687177;stroke-linecap:butt;stroke-linejoin:miter;stroke:rgb(59.999084%,59.999084%,59.999084%);stroke-opacity:1;stroke-miterlimit:10;" d="M 1.03125 56.00336 L 28.519531 56.00336 L 28.519531 83.492145 L 1.03125 83.492145 Z M 1.03125 56.00336 " transform="matrix(1,0,0,0.997708,0,0)"/>
<path style="fill-rule:nonzero;fill:rgb(100%,100%,100%);fill-opacity:1;stroke-width:0.687177;stroke-linecap:butt;stroke-linejoin:miter;stroke:rgb(0%,0%,0%);stroke-opacity:1;stroke-miterlimit:10;" d="M 28.519531 56.00336 L 56.003906 56.00336 L 56.003906 83.492145 L 28.519531 83.492145 Z M 28.519531 56.00336 " transform="matrix(1,0,0,0.997708,0,0)"/>
<path style="fill-rule:nonzero;fill:rgb(100%,100%,100%);fill-opacity:1;stroke-width:0.687177;stroke-linecap:butt;stroke-linejoin:miter;stroke:rgb(0%,0%,0%);stroke-opacity:1;stroke-miterlimit:10;" d="M 28.519531 83.492145 L 56.003906 83.492145 L 56.003906 110.980931 L 28.519531 110.980931 Z M 28.519531 83.492145 " transform="matrix(1,0,0,0.997708,0,0)"/>
<path style="fill-rule:nonzero;fill:rgb(100%,100%,100%);fill-opacity:1;stroke-width:0.687177;stroke-linecap:butt;stroke-linejoin:miter;stroke:rgb(0%,0%,0%);stroke-opacity:1;stroke-miterlimit:10;" d="M 56.003906 56.00336 L 83.492188 56.00336 L 83.492188 83.492145 L 56.003906 83.492145 Z M 56.003906 56.00336 " transform="matrix(1,0,0,0.997708,0,0)"/>
<path style="fill-rule:nonzero;fill:rgb(100%,100%,100%);fill-opacity:1;stroke-width:0.687177;stroke-linecap:butt;stroke-linejoin:miter;stroke:rgb(0%,0%,0%);stroke-opacity:1;stroke-miterlimit:10;" d="M 83.492188 83.492145 L 110.980469 83.492145 L 110.980469 110.980931 L 83.492188 110.980931 Z M 83.492188 83.492145 " transform="matrix(1,0,0,0.997708,0,0)"/>
<path style="fill-rule:nonzero;fill:rgb(100%,100%,100%);fill-opacity:1;stroke-width:0.687177;stroke-linecap:butt;stroke-linejoin:miter;stroke:rgb(59.999084%,59.999084%,59.999084%);stroke-opacity:1;stroke-miterlimit:10;" d="M 1.03125 110.980931 L 28.519531 110.980931 L 28.519531 138.465801 L 1.03125 138.465801 Z M 1.03125 110.980931 " transform="matrix(1,0,0,0.997708,0,0)"/>
<path style="fill-rule:nonzero;fill:rgb(100%,100%,100%);fill-opacity:1;stroke-width:0.687177;stroke-linecap:butt;stroke-linejoin:miter;stroke:rgb(0%,0%,0%);stroke-opacity:1;stroke-miterlimit:10;" d="M 28.519531 110.980931 L 56.003906 110.980931 L 56.003906 138.465801 L 28.519531 138.465801 Z M 28.519531 110.980931 " transform="matrix(1,0,0,0.997708,0,0)"/>
<path style="fill-rule:nonzero;fill:rgb(100%,100%,100%);fill-opacity:1;stroke-width:0.687177;stroke-linecap:butt;stroke-linejoin:miter;stroke:rgb(0%,0%,0%);stroke-opacity:1;stroke-miterlimit:10;" d="M 56.003906 110.980931 L 83.492188 110.980931 L 83.492188 138.465801 L 56.003906 138.465801 Z M 56.003906 110.980931 " transform="matrix(1,0,0,0.997708,0,0)"/>
<path style="fill-rule:nonzero;fill:rgb(100%,100%,100%);fill-opacity:1;stroke-width:0.687177;stroke-linecap:butt;stroke-linejoin:miter;stroke:rgb(59.999084%,59.999084%,59.999084%);stroke-opacity:1;stroke-miterlimit:10;" d="M 110.980469 1.029704 L 138.464844 1.029704 L 138.464844 28.518489 L 110.980469 28.518489 Z M 110.980469 1.029704 " transform="matrix(1,0,0,0.997708,0,0)"/>
<path style="fill-rule:nonzero;fill:rgb(100%,100%,100%);fill-opacity:1;stroke-width:0.687177;stroke-linecap:butt;stroke-linejoin:miter;stroke:rgb(0%,0%,0%);stroke-opacity:1;stroke-miterlimit:10;" d="M 110.980469 28.518489 L 138.464844 28.518489 L 138.464844 56.00336 L 110.980469 56.00336 Z M 110.980469 28.518489 " transform="matrix(1,0,0,0.997708,0,0)"/>
<path style="fill-rule:nonzero;fill:rgb(100%,100%,100%);fill-opacity:1;stroke-width:0.687177;stroke-linecap:butt;stroke-linejoin:miter;stroke:rgb(0%,0%,0%);stroke-opacity:1;stroke-miterlimit:10;" d="M 110.980469 56.00336 L 138.464844 56.00336 L 138.464844 83.492145 L 110.980469 83.492145 Z M 110.980469 56.00336 " transform="matrix(1,0,0,0.997708,0,0)"/>
<path style="fill-rule:nonzero;fill:rgb(100%,100%,100%);fill-opacity:1;stroke-width:0.687177;stroke-linecap:butt;stroke-linejoin:miter;stroke:rgb(0%,0%,0%);stroke-opacity:1;stroke-miterlimit:10;" d="M 110.980469 110.980931 L 138.464844 110.980931 L 138.464844 138.465801 L 110.980469 138.465801 Z M 110.980469 110.980931 " transform="matrix(1,0,0,0.997708,0,0)"/>
<path style="fill-rule:nonzero;fill:rgb(85.488892%,90.979004%,98.822021%);fill-opacity:1;stroke-width:0.687177;stroke-linecap:butt;stroke-linejoin:miter;stroke:rgb(42.352295%,55.685425%,74.900818%);stroke-opacity:1;stroke-miterlimit:10;" d="M 28.519531 1.029704 L 56.003906 1.029704 L 56.003906 28.518489 L 28.519531 28.518489 Z M 28.519531 1.029704 " transform="matrix(1,0,0,0.997708,0,0)"/>
<path style="fill-rule:nonzero;fill:rgb(85.488892%,90.979004%,98.822021%);fill-opacity:1;stroke-width:0.687177;stroke-linecap:butt;stroke-linejoin:miter;stroke:rgb(42.352295%,55.685425%,74.900818%);stroke-opacity:1;stroke-miterlimit:10;" d="M 1.03125 28.518489 L 28.519531 28.518489 L 28.519531 56.00336 L 1.03125 56.00336 Z M 1.03125 28.518489 " transform="matrix(1,0,0,0.997708,0,0)"/>
<path style="fill-rule:nonzero;fill:rgb(85.488892%,90.979004%,98.822021%);fill-opacity:1;stroke-width:0.687177;stroke-linecap:butt;stroke-linejoin:miter;stroke:rgb(42.352295%,55.685425%,74.900818%);stroke-opacity:1;stroke-miterlimit:10;" d="M 83.492188 1.029704 L 110.980469 1.029704 L 110.980469 28.518489 L 83.492188 28.518489 Z M 83.492188 1.029704 " transform="matrix(1,0,0,0.997708,0,0)"/>
<path style="fill-rule:nonzero;fill:rgb(85.488892%,90.979004%,98.822021%);fill-opacity:1;stroke-width:0.687177;stroke-linecap:butt;stroke-linejoin:miter;stroke:rgb(42.352295%,55.685425%,74.900818%);stroke-opacity:1;stroke-miterlimit:10;" d="M 1.03125 83.492145 L 28.519531 83.492145 L 28.519531 110.980931 L 1.03125 110.980931 Z M 1.03125 83.492145 " transform="matrix(1,0,0,0.997708,0,0)"/>
<path style="fill-rule:nonzero;fill:rgb(85.488892%,90.979004%,98.822021%);fill-opacity:1;stroke-width:0.687177;stroke-linecap:butt;stroke-linejoin:miter;stroke:rgb(42.352295%,55.685425%,74.900818%);stroke-opacity:1;stroke-miterlimit:10;" d="M 83.492188 56.00336 L 110.980469 56.00336 L 110.980469 83.492145 L 83.492188 83.492145 Z M 83.492188 56.00336 " transform="matrix(1,0,0,0.997708,0,0)"/>
<path style="fill-rule:nonzero;fill:rgb(85.488892%,90.979004%,98.822021%);fill-opacity:1;stroke-width:0.687177;stroke-linecap:butt;stroke-linejoin:miter;stroke:rgb(42.352295%,55.685425%,74.900818%);stroke-opacity:1;stroke-miterlimit:10;" d="M 56.003906 83.492145 L 83.492188 83.492145 L 83.492188 110.980931 L 56.003906 110.980931 Z M 56.003906 83.492145 " transform="matrix(1,0,0,0.997708,0,0)"/>
<path style="fill-rule:nonzero;fill:rgb(85.488892%,90.979004%,98.822021%);fill-opacity:1;stroke-width:0.687177;stroke-linecap:butt;stroke-linejoin:miter;stroke:rgb(42.352295%,55.685425%,74.900818%);stroke-opacity:1;stroke-miterlimit:10;" d="M 83.492188 110.980931 L 110.980469 110.980931 L 110.980469 138.465801 L 83.492188 138.465801 Z M 83.492188 110.980931 " transform="matrix(1,0,0,0.997708,0,0)"/>
<path style="fill-rule:nonzero;fill:rgb(85.488892%,90.979004%,98.822021%);fill-opacity:1;stroke-width:0.687177;stroke-linecap:butt;stroke-linejoin:miter;stroke:rgb(42.352295%,55.685425%,74.900818%);stroke-opacity:1;stroke-miterlimit:10;" d="M 110.980469 83.492145 L 138.464844 83.492145 L 138.464844 110.980931 L 110.980469 110.980931 Z M 110.980469 83.492145 " transform="matrix(1,0,0,0.997708,0,0)"/>
<path style="fill-rule:nonzero;fill:rgb(85.488892%,90.979004%,98.822021%);fill-opacity:1;stroke-width:0.687177;stroke-linecap:butt;stroke-linejoin:miter;stroke:rgb(42.352295%,55.685425%,74.900818%);stroke-opacity:1;stroke-miterlimit:10;" d="M 165.953125 1.029704 L 220.925781 1.029704 L 220.925781 28.518489 L 165.953125 28.518489 Z M 165.953125 1.029704 " transform="matrix(1,0,0,0.997708,0,0)"/>
<path style="fill-rule:nonzero;fill:rgb(85.488892%,90.979004%,98.822021%);fill-opacity:1;stroke-width:0.687177;stroke-linecap:butt;stroke-linejoin:miter;stroke:rgb(42.352295%,55.685425%,74.900818%);stroke-opacity:1;stroke-miterlimit:10;" d="M 165.953125 28.518489 L 220.925781 28.518489 L 220.925781 56.00336 L 165.953125 56.00336 Z M 165.953125 28.518489 " transform="matrix(1,0,0,0.997708,0,0)"/>
<path style="fill-rule:nonzero;fill:rgb(85.488892%,90.979004%,98.822021%);fill-opacity:1;stroke-width:0.687177;stroke-linecap:butt;stroke-linejoin:miter;stroke:rgb(42.352295%,55.685425%,74.900818%);stroke-opacity:1;stroke-miterlimit:10;" d="M 165.953125 56.00336 L 220.925781 56.00336 L 220.925781 83.492145 L 165.953125 83.492145 Z M 165.953125 56.00336 " transform="matrix(1,0,0,0.997708,0,0)"/>
<path style="fill-rule:nonzero;fill:rgb(85.488892%,90.979004%,98.822021%);fill-opacity:1;stroke-width:0.687177;stroke-linecap:butt;stroke-linejoin:miter;stroke:rgb(42.352295%,55.685425%,74.900818%);stroke-opacity:1;stroke-miterlimit:10;" d="M 165.953125 83.492145 L 220.925781 83.492145 L 220.925781 110.980931 L 165.953125 110.980931 Z M 165.953125 83.492145 " transform="matrix(1,0,0,0.997708,0,0)"/>
<path style="fill-rule:nonzero;fill:rgb(85.488892%,90.979004%,98.822021%);fill-opacity:1;stroke-width:0.687177;stroke-linecap:butt;stroke-linejoin:miter;stroke:rgb(42.352295%,55.685425%,74.900818%);stroke-opacity:1;stroke-miterlimit:10;" d="M 165.953125 110.980931 L 220.925781 110.980931 L 220.925781 138.465801 L 165.953125 138.465801 Z M 165.953125 110.980931 " transform="matrix(1,0,0,0.997708,0,0)"/>
<path style="fill:none;stroke-width:0.687177;stroke-linecap:butt;stroke-linejoin:miter;stroke:rgb(59.999084%,59.999084%,59.999084%);stroke-opacity:1;stroke-miterlimit:10;" d="M 7.902344 7.900921 L 145.335938 7.900921 L 145.335938 145.337019 L 7.902344 145.337019 Z M 7.902344 7.900921 " transform="matrix(1,0,0,0.997708,0,0)"/>
<path style="fill-rule:nonzero;fill:rgb(100%,100%,100%);fill-opacity:1;stroke-width:0.687177;stroke-linecap:butt;stroke-linejoin:miter;stroke:rgb(59.999084%,59.999084%,59.999084%);stroke-opacity:1;stroke-miterlimit:10;" d="M 7.902344 7.900921 L 35.390625 7.900921 L 35.390625 35.389707 L 7.902344 35.389707 Z M 7.902344 7.900921 " transform="matrix(1,0,0,0.997708,0,0)"/>
<path style="fill-rule:nonzero;fill:rgb(100%,100%,100%);fill-opacity:1;stroke-width:0.687177;stroke-linecap:butt;stroke-linejoin:miter;stroke:rgb(0%,0%,0%);stroke-opacity:1;stroke-miterlimit:10;" d="M 35.390625 35.389707 L 62.875 35.389707 L 62.875 62.878493 L 35.390625 62.878493 Z M 35.390625 35.389707 " transform="matrix(1,0,0,0.997708,0,0)"/>
<path style="fill-rule:nonzero;fill:rgb(100%,100%,100%);fill-opacity:1;stroke-width:0.687177;stroke-linecap:butt;stroke-linejoin:miter;stroke:rgb(59.999084%,59.999084%,59.999084%);stroke-opacity:1;stroke-miterlimit:10;" d="M 62.875 7.900921 L 90.363281 7.900921 L 90.363281 35.389707 L 62.875 35.389707 Z M 62.875 7.900921 " transform="matrix(1,0,0,0.997708,0,0)"/>
<path style="fill-rule:nonzero;fill:rgb(100%,100%,100%);fill-opacity:1;stroke-width:0.687177;stroke-linecap:butt;stroke-linejoin:miter;stroke:rgb(0%,0%,0%);stroke-opacity:1;stroke-miterlimit:10;" d="M 62.875 35.389707 L 90.363281 35.389707 L 90.363281 62.878493 L 62.875 62.878493 Z M 62.875 35.389707 " transform="matrix(1,0,0,0.997708,0,0)"/>
<path style="fill-rule:nonzero;fill:rgb(100%,100%,100%);fill-opacity:1;stroke-width:0.687177;stroke-linecap:butt;stroke-linejoin:miter;stroke:rgb(0%,0%,0%);stroke-opacity:1;stroke-miterlimit:10;" d="M 90.363281 35.389707 L 117.851562 35.389707 L 117.851562 62.878493 L 90.363281 62.878493 Z M 90.363281 35.389707 " transform="matrix(1,0,0,0.997708,0,0)"/>
<path style="fill-rule:nonzero;fill:rgb(100%,100%,100%);fill-opacity:1;stroke-width:0.687177;stroke-linecap:butt;stroke-linejoin:miter;stroke:rgb(59.999084%,59.999084%,59.999084%);stroke-opacity:1;stroke-miterlimit:10;" d="M 7.902344 62.878493 L 35.390625 62.878493 L 35.390625 90.363363 L 7.902344 90.363363 Z M 7.902344 62.878493 " transform="matrix(1,0,0,0.997708,0,0)"/>
<path style="fill-rule:nonzero;fill:rgb(100%,100%,100%);fill-opacity:1;stroke-width:0.687177;stroke-linecap:butt;stroke-linejoin:miter;stroke:rgb(0%,0%,0%);stroke-opacity:1;stroke-miterlimit:10;" d="M 35.390625 62.878493 L 62.875 62.878493 L 62.875 90.363363 L 35.390625 90.363363 Z M 35.390625 62.878493 " transform="matrix(1,0,0,0.997708,0,0)"/>
<path style="fill-rule:nonzero;fill:rgb(100%,100%,100%);fill-opacity:1;stroke-width:0.687177;stroke-linecap:butt;stroke-linejoin:miter;stroke:rgb(0%,0%,0%);stroke-opacity:1;stroke-miterlimit:10;" d="M 35.390625 90.363363 L 62.875 90.363363 L 62.875 117.852148 L 35.390625 117.852148 Z M 35.390625 90.363363 " transform="matrix(1,0,0,0.997708,0,0)"/>
<path style="fill-rule:nonzero;fill:rgb(100%,100%,100%);fill-opacity:1;stroke-width:0.687177;stroke-linecap:butt;stroke-linejoin:miter;stroke:rgb(0%,0%,0%);stroke-opacity:1;stroke-miterlimit:10;" d="M 62.875 62.878493 L 90.363281 62.878493 L 90.363281 90.363363 L 62.875 90.363363 Z M 62.875 62.878493 " transform="matrix(1,0,0,0.997708,0,0)"/>
<path style="fill-rule:nonzero;fill:rgb(100%,100%,100%);fill-opacity:1;stroke-width:0.687177;stroke-linecap:butt;stroke-linejoin:miter;stroke:rgb(0%,0%,0%);stroke-opacity:1;stroke-miterlimit:10;" d="M 90.363281 90.363363 L 117.851562 90.363363 L 117.851562 117.852148 L 90.363281 117.852148 Z M 90.363281 90.363363 " transform="matrix(1,0,0,0.997708,0,0)"/>
<path style="fill-rule:nonzero;fill:rgb(100%,100%,100%);fill-opacity:1;stroke-width:0.687177;stroke-linecap:butt;stroke-linejoin:miter;stroke:rgb(59.999084%,59.999084%,59.999084%);stroke-opacity:1;stroke-miterlimit:10;" d="M 7.902344 117.852148 L 35.390625 117.852148 L 35.390625 145.337019 L 7.902344 145.337019 Z M 7.902344 117.852148 " transform="matrix(1,0,0,0.997708,0,0)"/>
<path style="fill-rule:nonzero;fill:rgb(100%,100%,100%);fill-opacity:1;stroke-width:0.687177;stroke-linecap:butt;stroke-linejoin:miter;stroke:rgb(0%,0%,0%);stroke-opacity:1;stroke-miterlimit:10;" d="M 35.390625 117.852148 L 62.875 117.852148 L 62.875 145.337019 L 35.390625 145.337019 Z M 35.390625 117.852148 " transform="matrix(1,0,0,0.997708,0,0)"/>
<path style="fill-rule:nonzero;fill:rgb(100%,100%,100%);fill-opacity:1;stroke-width:0.687177;stroke-linecap:butt;stroke-linejoin:miter;stroke:rgb(0%,0%,0%);stroke-opacity:1;stroke-miterlimit:10;" d="M 62.875 117.852148 L 90.363281 117.852148 L 90.363281 145.337019 L 62.875 145.337019 Z M 62.875 117.852148 " transform="matrix(1,0,0,0.997708,0,0)"/>
<path style="fill-rule:nonzero;fill:rgb(100%,100%,100%);fill-opacity:1;stroke-width:0.687177;stroke-linecap:butt;stroke-linejoin:miter;stroke:rgb(59.999084%,59.999084%,59.999084%);stroke-opacity:1;stroke-miterlimit:10;" d="M 117.851562 7.900921 L 145.335938 7.900921 L 145.335938 35.389707 L 117.851562 35.389707 Z M 117.851562 7.900921 " transform="matrix(1,0,0,0.997708,0,0)"/>
<path style="fill-rule:nonzero;fill:rgb(100%,100%,100%);fill-opacity:1;stroke-width:0.687177;stroke-linecap:butt;stroke-linejoin:miter;stroke:rgb(0%,0%,0%);stroke-opacity:1;stroke-miterlimit:10;" d="M 117.851562 35.389707 L 145.335938 35.389707 L 145.335938 62.878493 L 117.851562 62.878493 Z M 117.851562 35.389707 " transform="matrix(1,0,0,0.997708,0,0)"/>
<path style="fill-rule:nonzero;fill:rgb(100%,100%,100%);fill-opacity:1;stroke-width:0.687177;stroke-linecap:butt;stroke-linejoin:miter;stroke:rgb(0%,0%,0%);stroke-opacity:1;stroke-miterlimit:10;" d="M 117.851562 62.878493 L 145.335938 62.878493 L 145.335938 90.363363 L 117.851562 90.363363 Z M 117.851562 62.878493 " transform="matrix(1,0,0,0.997708,0,0)"/>
<path style="fill-rule:nonzero;fill:rgb(100%,100%,100%);fill-opacity:1;stroke-width:0.687177;stroke-linecap:butt;stroke-linejoin:miter;stroke:rgb(0%,0%,0%);stroke-opacity:1;stroke-miterlimit:10;" d="M 117.851562 117.852148 L 145.335938 117.852148 L 145.335938 145.337019 L 117.851562 145.337019 Z M 117.851562 117.852148 " transform="matrix(1,0,0,0.997708,0,0)"/>
<path style="fill-rule:nonzero;fill:rgb(83.528137%,90.979004%,83.135986%);fill-opacity:1;stroke-width:0.687177;stroke-linecap:butt;stroke-linejoin:miter;stroke:rgb(50.979614%,70.195007%,39.99939%);stroke-opacity:1;stroke-miterlimit:10;" d="M 35.390625 7.900921 L 62.875 7.900921 L 62.875 35.389707 L 35.390625 35.389707 Z M 35.390625 7.900921 " transform="matrix(1,0,0,0.997708,0,0)"/>
<path style="fill-rule:nonzero;fill:rgb(83.528137%,90.979004%,83.135986%);fill-opacity:1;stroke-width:0.687177;stroke-linecap:butt;stroke-linejoin:miter;stroke:rgb(50.979614%,70.195007%,39.99939%);stroke-opacity:1;stroke-miterlimit:10;" d="M 7.902344 35.389707 L 35.390625 35.389707 L 35.390625 62.878493 L 7.902344 62.878493 Z M 7.902344 35.389707 " transform="matrix(1,0,0,0.997708,0,0)"/>
<path style="fill-rule:nonzero;fill:rgb(83.528137%,90.979004%,83.135986%);fill-opacity:1;stroke-width:0.687177;stroke-linecap:butt;stroke-linejoin:miter;stroke:rgb(50.979614%,70.195007%,39.99939%);stroke-opacity:1;stroke-miterlimit:10;" d="M 90.363281 7.900921 L 117.851562 7.900921 L 117.851562 35.389707 L 90.363281 35.389707 Z M 90.363281 7.900921 " transform="matrix(1,0,0,0.997708,0,0)"/>
<path style="fill-rule:nonzero;fill:rgb(83.528137%,90.979004%,83.135986%);fill-opacity:1;stroke-width:0.687177;stroke-linecap:butt;stroke-linejoin:miter;stroke:rgb(50.979614%,70.195007%,39.99939%);stroke-opacity:1;stroke-miterlimit:10;" d="M 7.902344 90.363363 L 35.390625 90.363363 L 35.390625 117.852148 L 7.902344 117.852148 Z M 7.902344 90.363363 " transform="matrix(1,0,0,0.997708,0,0)"/>
<path style="fill-rule:nonzero;fill:rgb(83.528137%,90.979004%,83.135986%);fill-opacity:1;stroke-width:0.687177;stroke-linecap:butt;stroke-linejoin:miter;stroke:rgb(50.979614%,70.195007%,39.99939%);stroke-opacity:1;stroke-miterlimit:10;" d="M 90.363281 62.878493 L 117.851562 62.878493 L 117.851562 90.363363 L 90.363281 90.363363 Z M 90.363281 62.878493 " transform="matrix(1,0,0,0.997708,0,0)"/>
<path style="fill-rule:nonzero;fill:rgb(83.528137%,90.979004%,83.135986%);fill-opacity:1;stroke-width:0.687177;stroke-linecap:butt;stroke-linejoin:miter;stroke:rgb(50.979614%,70.195007%,39.99939%);stroke-opacity:1;stroke-miterlimit:10;" d="M 62.875 90.363363 L 90.363281 90.363363 L 90.363281 117.852148 L 62.875 117.852148 Z M 62.875 90.363363 " transform="matrix(1,0,0,0.997708,0,0)"/>
<path style="fill-rule:nonzero;fill:rgb(83.528137%,90.979004%,83.135986%);fill-opacity:1;stroke-width:0.687177;stroke-linecap:butt;stroke-linejoin:miter;stroke:rgb(50.979614%,70.195007%,39.99939%);stroke-opacity:1;stroke-miterlimit:10;" d="M 90.363281 117.852148 L 117.851562 117.852148 L 117.851562 145.337019 L 90.363281 145.337019 Z M 90.363281 117.852148 " transform="matrix(1,0,0,0.997708,0,0)"/>
<path style="fill-rule:nonzero;fill:rgb(83.528137%,90.979004%,83.135986%);fill-opacity:1;stroke-width:0.687177;stroke-linecap:butt;stroke-linejoin:miter;stroke:rgb(50.979614%,70.195007%,39.99939%);stroke-opacity:1;stroke-miterlimit:10;" d="M 117.851562 90.363363 L 145.335938 90.363363 L 145.335938 117.852148 L 117.851562 117.852148 Z M 117.851562 90.363363 " transform="matrix(1,0,0,0.997708,0,0)"/>
<path style="fill-rule:nonzero;fill:rgb(83.528137%,90.979004%,83.135986%);fill-opacity:1;stroke-width:0.687177;stroke-linecap:butt;stroke-linejoin:miter;stroke:rgb(50.979614%,70.195007%,39.99939%);stroke-opacity:1;stroke-miterlimit:10;" d="M 172.824219 7.900921 L 227.800781 7.900921 L 227.800781 145.337019 L 172.824219 145.337019 Z M 172.824219 7.900921 " transform="matrix(1,0,0,0.997708,0,0)"/>
<path style="fill-rule:nonzero;fill:rgb(83.528137%,90.979004%,83.135986%);fill-opacity:1;stroke-width:0.687177;stroke-linecap:butt;stroke-linejoin:miter;stroke:rgb(50.979614%,70.195007%,39.99939%);stroke-opacity:1;stroke-miterlimit:10;" d="M 172.824219 7.900921 L 227.800781 7.900921 L 227.800781 35.389707 L 172.824219 35.389707 Z M 172.824219 7.900921 " transform="matrix(1,0,0,0.997708,0,0)"/>
<path style="fill-rule:nonzero;fill:rgb(83.528137%,90.979004%,83.135986%);fill-opacity:1;stroke-width:0.687177;stroke-linecap:butt;stroke-linejoin:miter;stroke:rgb(50.979614%,70.195007%,39.99939%);stroke-opacity:1;stroke-miterlimit:10;" d="M 172.824219 35.389707 L 227.800781 35.389707 L 227.800781 62.878493 L 172.824219 62.878493 Z M 172.824219 35.389707 " transform="matrix(1,0,0,0.997708,0,0)"/>
<path style="fill-rule:nonzero;fill:rgb(83.528137%,90.979004%,83.135986%);fill-opacity:1;stroke-width:0.687177;stroke-linecap:butt;stroke-linejoin:miter;stroke:rgb(50.979614%,70.195007%,39.99939%);stroke-opacity:1;stroke-miterlimit:10;" d="M 172.824219 62.878493 L 227.800781 62.878493 L 227.800781 90.363363 L 172.824219 90.363363 Z M 172.824219 62.878493 " transform="matrix(1,0,0,0.997708,0,0)"/>
<path style="fill-rule:nonzero;fill:rgb(83.528137%,90.979004%,83.135986%);fill-opacity:1;stroke-width:0.687177;stroke-linecap:butt;stroke-linejoin:miter;stroke:rgb(50.979614%,70.195007%,39.99939%);stroke-opacity:1;stroke-miterlimit:10;" d="M 172.824219 90.363363 L 227.800781 90.363363 L 227.800781 117.852148 L 172.824219 117.852148 Z M 172.824219 90.363363 " transform="matrix(1,0,0,0.997708,0,0)"/>
<path style="fill-rule:nonzero;fill:rgb(83.528137%,90.979004%,83.135986%);fill-opacity:1;stroke-width:0.687177;stroke-linecap:butt;stroke-linejoin:miter;stroke:rgb(50.979614%,70.195007%,39.99939%);stroke-opacity:1;stroke-miterlimit:10;" d="M 172.824219 117.852148 L 227.800781 117.852148 L 227.800781 145.337019 L 172.824219 145.337019 Z M 172.824219 117.852148 " transform="matrix(1,0,0,0.997708,0,0)"/>
<path style=" stroke:none;fill-rule:nonzero;fill:rgb(100%,90.194702%,79.998779%);fill-opacity:1;" d="M 179.695312 14.742188 L 234.671875 14.742188 L 234.671875 42.164062 L 179.695312 42.164062 Z M 179.695312 14.742188 "/>
<g clip-path="url(#clip2)" clip-rule="nonzero">
<path style="fill:none;stroke-width:0.687177;stroke-linecap:butt;stroke-linejoin:miter;stroke:rgb(84.312439%,60.783386%,0%);stroke-opacity:1;stroke-miterlimit:10;" d="M 179.695312 14.776054 L 234.671875 14.776054 L 234.671875 42.260925 L 179.695312 42.260925 Z M 179.695312 14.776054 " transform="matrix(1,0,0,0.997708,0,0)"/>
</g>
<path style=" stroke:none;fill-rule:nonzero;fill:rgb(100%,90.194702%,79.998779%);fill-opacity:1;" d="M 179.695312 42.164062 L 234.671875 42.164062 L 234.671875 69.589844 L 179.695312 69.589844 Z M 179.695312 42.164062 "/>
<g clip-path="url(#clip3)" clip-rule="nonzero">
<path style="fill:none;stroke-width:0.687177;stroke-linecap:butt;stroke-linejoin:miter;stroke:rgb(84.312439%,60.783386%,0%);stroke-opacity:1;stroke-miterlimit:10;" d="M 179.695312 42.260925 L 234.671875 42.260925 L 234.671875 69.74971 L 179.695312 69.74971 Z M 179.695312 42.260925 " transform="matrix(1,0,0,0.997708,0,0)"/>
</g>
<path style=" stroke:none;fill-rule:nonzero;fill:rgb(100%,90.194702%,79.998779%);fill-opacity:1;" d="M 179.695312 69.589844 L 234.671875 69.589844 L 234.671875 97.011719 L 179.695312 97.011719 Z M 179.695312 69.589844 "/>
<g clip-path="url(#clip4)" clip-rule="nonzero">
<path style="fill:none;stroke-width:0.687177;stroke-linecap:butt;stroke-linejoin:miter;stroke:rgb(84.312439%,60.783386%,0%);stroke-opacity:1;stroke-miterlimit:10;" d="M 179.695312 69.74971 L 234.671875 69.74971 L 234.671875 97.23458 L 179.695312 97.23458 Z M 179.695312 69.74971 " transform="matrix(1,0,0,0.997708,0,0)"/>
</g>
<path style=" stroke:none;fill-rule:nonzero;fill:rgb(100%,90.194702%,79.998779%);fill-opacity:1;" d="M 179.695312 97.011719 L 234.671875 97.011719 L 234.671875 124.4375 L 179.695312 124.4375 Z M 179.695312 97.011719 "/>
<g clip-path="url(#clip5)" clip-rule="nonzero">
<path style="fill:none;stroke-width:0.687177;stroke-linecap:butt;stroke-linejoin:miter;stroke:rgb(84.312439%,60.783386%,0%);stroke-opacity:1;stroke-miterlimit:10;" d="M 179.695312 97.23458 L 234.671875 97.23458 L 234.671875 124.723366 L 179.695312 124.723366 Z M 179.695312 97.23458 " transform="matrix(1,0,0,0.997708,0,0)"/>
</g>
<path style=" stroke:none;fill-rule:nonzero;fill:rgb(100%,90.194702%,79.998779%);fill-opacity:1;" d="M 179.695312 124.4375 L 234.671875 124.4375 L 234.671875 151.859375 L 179.695312 151.859375 Z M 179.695312 124.4375 "/>
<g clip-path="url(#clip6)" clip-rule="nonzero">
<path style="fill:none;stroke-width:0.687177;stroke-linecap:butt;stroke-linejoin:miter;stroke:rgb(84.312439%,60.783386%,0%);stroke-opacity:1;stroke-miterlimit:10;" d="M 179.695312 124.723366 L 234.671875 124.723366 L 234.671875 152.208236 L 179.695312 152.208236 Z M 179.695312 124.723366 " transform="matrix(1,0,0,0.997708,0,0)"/>
</g>
<g clip-path="url(#clip7)" clip-rule="nonzero">
<path style="fill:none;stroke-width:0.687177;stroke-linecap:butt;stroke-linejoin:miter;stroke:rgb(59.999084%,59.999084%,59.999084%);stroke-opacity:1;stroke-miterlimit:10;" d="M 14.773438 14.776054 L 152.210938 14.776054 L 152.210938 152.208236 L 14.773438 152.208236 Z M 14.773438 14.776054 " transform="matrix(1,0,0,0.997708,0,0)"/>
</g>
<path style="fill-rule:nonzero;fill:rgb(100%,100%,100%);fill-opacity:1;stroke-width:0.687177;stroke-linecap:butt;stroke-linejoin:miter;stroke:rgb(59.999084%,59.999084%,59.999084%);stroke-opacity:1;stroke-miterlimit:10;" d="M 14.773438 14.776054 L 42.261719 14.776054 L 42.261719 42.260925 L 14.773438 42.260925 Z M 14.773438 14.776054 " transform="matrix(1,0,0,0.997708,0,0)"/>
<path style="fill-rule:nonzero;fill:rgb(100%,100%,100%);fill-opacity:1;stroke-width:0.687177;stroke-linecap:butt;stroke-linejoin:miter;stroke:rgb(59.999084%,59.999084%,59.999084%);stroke-opacity:1;stroke-miterlimit:10;" d="M 42.261719 42.260925 L 69.75 42.260925 L 69.75 69.74971 L 42.261719 69.74971 Z M 42.261719 42.260925 " transform="matrix(1,0,0,0.997708,0,0)"/>
<path style="fill-rule:nonzero;fill:rgb(100%,100%,100%);fill-opacity:1;stroke-width:0.687177;stroke-linecap:butt;stroke-linejoin:miter;stroke:rgb(59.999084%,59.999084%,59.999084%);stroke-opacity:1;stroke-miterlimit:10;" d="M 69.75 14.776054 L 97.234375 14.776054 L 97.234375 42.260925 L 69.75 42.260925 Z M 69.75 14.776054 " transform="matrix(1,0,0,0.997708,0,0)"/>
<path style="fill-rule:nonzero;fill:rgb(100%,100%,100%);fill-opacity:1;stroke-width:0.687177;stroke-linecap:butt;stroke-linejoin:miter;stroke:rgb(59.999084%,59.999084%,59.999084%);stroke-opacity:1;stroke-miterlimit:10;" d="M 69.75 42.260925 L 97.234375 42.260925 L 97.234375 69.74971 L 69.75 69.74971 Z M 69.75 42.260925 " transform="matrix(1,0,0,0.997708,0,0)"/>
<path style="fill-rule:nonzero;fill:rgb(100%,100%,100%);fill-opacity:1;stroke-width:0.687177;stroke-linecap:butt;stroke-linejoin:miter;stroke:rgb(59.999084%,59.999084%,59.999084%);stroke-opacity:1;stroke-miterlimit:10;" d="M 97.234375 42.260925 L 124.722656 42.260925 L 124.722656 69.74971 L 97.234375 69.74971 Z M 97.234375 42.260925 " transform="matrix(1,0,0,0.997708,0,0)"/>
<path style="fill-rule:nonzero;fill:rgb(100%,100%,100%);fill-opacity:1;stroke-width:0.687177;stroke-linecap:butt;stroke-linejoin:miter;stroke:rgb(59.999084%,59.999084%,59.999084%);stroke-opacity:1;stroke-miterlimit:10;" d="M 14.773438 69.74971 L 42.261719 69.74971 L 42.261719 97.23458 L 14.773438 97.23458 Z M 14.773438 69.74971 " transform="matrix(1,0,0,0.997708,0,0)"/>
<path style="fill-rule:nonzero;fill:rgb(100%,100%,100%);fill-opacity:1;stroke-width:0.687177;stroke-linecap:butt;stroke-linejoin:miter;stroke:rgb(59.999084%,59.999084%,59.999084%);stroke-opacity:1;stroke-miterlimit:10;" d="M 42.261719 69.74971 L 69.75 69.74971 L 69.75 97.23458 L 42.261719 97.23458 Z M 42.261719 69.74971 " transform="matrix(1,0,0,0.997708,0,0)"/>
<path style="fill-rule:nonzero;fill:rgb(100%,100%,100%);fill-opacity:1;stroke-width:0.687177;stroke-linecap:butt;stroke-linejoin:miter;stroke:rgb(59.999084%,59.999084%,59.999084%);stroke-opacity:1;stroke-miterlimit:10;" d="M 42.261719 97.23458 L 69.75 97.23458 L 69.75 124.723366 L 42.261719 124.723366 Z M 42.261719 97.23458 " transform="matrix(1,0,0,0.997708,0,0)"/>
<path style="fill-rule:nonzero;fill:rgb(100%,100%,100%);fill-opacity:1;stroke-width:0.687177;stroke-linecap:butt;stroke-linejoin:miter;stroke:rgb(59.999084%,59.999084%,59.999084%);stroke-opacity:1;stroke-miterlimit:10;" d="M 69.75 69.74971 L 97.234375 69.74971 L 97.234375 97.23458 L 69.75 97.23458 Z M 69.75 69.74971 " transform="matrix(1,0,0,0.997708,0,0)"/>
<path style="fill-rule:nonzero;fill:rgb(100%,100%,100%);fill-opacity:1;stroke-width:0.687177;stroke-linecap:butt;stroke-linejoin:miter;stroke:rgb(59.999084%,59.999084%,59.999084%);stroke-opacity:1;stroke-miterlimit:10;" d="M 97.234375 97.23458 L 124.722656 97.23458 L 124.722656 124.723366 L 97.234375 124.723366 Z M 97.234375 97.23458 " transform="matrix(1,0,0,0.997708,0,0)"/>
<path style=" stroke:none;fill-rule:nonzero;fill:rgb(100%,100%,100%);fill-opacity:1;" d="M 14.773438 124.4375 L 42.261719 124.4375 L 42.261719 151.859375 L 14.773438 151.859375 Z M 14.773438 124.4375 "/>
<g clip-path="url(#clip8)" clip-rule="nonzero">
<path style="fill:none;stroke-width:0.687177;stroke-linecap:butt;stroke-linejoin:miter;stroke:rgb(59.999084%,59.999084%,59.999084%);stroke-opacity:1;stroke-miterlimit:10;" d="M 14.773438 124.723366 L 42.261719 124.723366 L 42.261719 152.208236 L 14.773438 152.208236 Z M 14.773438 124.723366 " transform="matrix(1,0,0,0.997708,0,0)"/>
</g>
<path style=" stroke:none;fill-rule:nonzero;fill:rgb(100%,100%,100%);fill-opacity:1;" d="M 42.261719 124.4375 L 69.75 124.4375 L 69.75 151.859375 L 42.261719 151.859375 Z M 42.261719 124.4375 "/>
<g clip-path="url(#clip9)" clip-rule="nonzero">
<path style="fill:none;stroke-width:0.687177;stroke-linecap:butt;stroke-linejoin:miter;stroke:rgb(59.999084%,59.999084%,59.999084%);stroke-opacity:1;stroke-miterlimit:10;" d="M 42.261719 124.723366 L 69.75 124.723366 L 69.75 152.208236 L 42.261719 152.208236 Z M 42.261719 124.723366 " transform="matrix(1,0,0,0.997708,0,0)"/>
</g>
<path style=" stroke:none;fill-rule:nonzero;fill:rgb(100%,100%,100%);fill-opacity:1;" d="M 69.75 124.4375 L 97.234375 124.4375 L 97.234375 151.859375 L 69.75 151.859375 Z M 69.75 124.4375 "/>
<g clip-path="url(#clip10)" clip-rule="nonzero">
<path style="fill:none;stroke-width:0.687177;stroke-linecap:butt;stroke-linejoin:miter;stroke:rgb(59.999084%,59.999084%,59.999084%);stroke-opacity:1;stroke-miterlimit:10;" d="M 69.75 124.723366 L 97.234375 124.723366 L 97.234375 152.208236 L 69.75 152.208236 Z M 69.75 124.723366 " transform="matrix(1,0,0,0.997708,0,0)"/>
</g>
<path style="fill-rule:nonzero;fill:rgb(100%,100%,100%);fill-opacity:1;stroke-width:0.687177;stroke-linecap:butt;stroke-linejoin:miter;stroke:rgb(59.999084%,59.999084%,59.999084%);stroke-opacity:1;stroke-miterlimit:10;" d="M 124.722656 14.776054 L 152.210938 14.776054 L 152.210938 42.260925 L 124.722656 42.260925 Z M 124.722656 14.776054 " transform="matrix(1,0,0,0.997708,0,0)"/>
<path style="fill-rule:nonzero;fill:rgb(100%,100%,100%);fill-opacity:1;stroke-width:0.687177;stroke-linecap:butt;stroke-linejoin:miter;stroke:rgb(59.999084%,59.999084%,59.999084%);stroke-opacity:1;stroke-miterlimit:10;" d="M 124.722656 42.260925 L 152.210938 42.260925 L 152.210938 69.74971 L 124.722656 69.74971 Z M 124.722656 42.260925 " transform="matrix(1,0,0,0.997708,0,0)"/>
<path style="fill-rule:nonzero;fill:rgb(100%,100%,100%);fill-opacity:1;stroke-width:0.687177;stroke-linecap:butt;stroke-linejoin:miter;stroke:rgb(59.999084%,59.999084%,59.999084%);stroke-opacity:1;stroke-miterlimit:10;" d="M 124.722656 69.74971 L 152.210938 69.74971 L 152.210938 97.23458 L 124.722656 97.23458 Z M 124.722656 69.74971 " transform="matrix(1,0,0,0.997708,0,0)"/>
<path style=" stroke:none;fill-rule:nonzero;fill:rgb(100%,100%,100%);fill-opacity:1;" d="M 124.722656 124.4375 L 152.210938 124.4375 L 152.210938 151.859375 L 124.722656 151.859375 Z M 124.722656 124.4375 "/>
<g clip-path="url(#clip11)" clip-rule="nonzero">
<path style="fill:none;stroke-width:0.687177;stroke-linecap:butt;stroke-linejoin:miter;stroke:rgb(59.999084%,59.999084%,59.999084%);stroke-opacity:1;stroke-miterlimit:10;" d="M 124.722656 124.723366 L 152.210938 124.723366 L 152.210938 152.208236 L 124.722656 152.208236 Z M 124.722656 124.723366 " transform="matrix(1,0,0,0.997708,0,0)"/>
</g>
<path style="fill-rule:nonzero;fill:rgb(100%,90.194702%,79.998779%);fill-opacity:1;stroke-width:0.687177;stroke-linecap:butt;stroke-linejoin:miter;stroke:rgb(84.312439%,60.783386%,0%);stroke-opacity:1;stroke-miterlimit:10;" d="M 42.261719 14.776054 L 69.75 14.776054 L 69.75 42.260925 L 42.261719 42.260925 Z M 42.261719 14.776054 " transform="matrix(1,0,0,0.997708,0,0)"/>
<path style="fill-rule:nonzero;fill:rgb(100%,90.194702%,79.998779%);fill-opacity:1;stroke-width:0.687177;stroke-linecap:butt;stroke-linejoin:miter;stroke:rgb(84.312439%,60.783386%,0%);stroke-opacity:1;stroke-miterlimit:10;" d="M 14.773438 42.260925 L 42.261719 42.260925 L 42.261719 69.74971 L 14.773438 69.74971 Z M 14.773438 42.260925 " transform="matrix(1,0,0,0.997708,0,0)"/>
<path style="fill-rule:nonzero;fill:rgb(100%,90.194702%,79.998779%);fill-opacity:1;stroke-width:0.687177;stroke-linecap:butt;stroke-linejoin:miter;stroke:rgb(84.312439%,60.783386%,0%);stroke-opacity:1;stroke-miterlimit:10;" d="M 97.234375 14.776054 L 124.722656 14.776054 L 124.722656 42.260925 L 97.234375 42.260925 Z M 97.234375 14.776054 " transform="matrix(1,0,0,0.997708,0,0)"/>
<path style="fill-rule:nonzero;fill:rgb(100%,90.194702%,79.998779%);fill-opacity:1;stroke-width:0.687177;stroke-linecap:butt;stroke-linejoin:miter;stroke:rgb(84.312439%,60.783386%,0%);stroke-opacity:1;stroke-miterlimit:10;" d="M 14.773438 97.23458 L 42.261719 97.23458 L 42.261719 124.723366 L 14.773438 124.723366 Z M 14.773438 97.23458 " transform="matrix(1,0,0,0.997708,0,0)"/>
<path style="fill-rule:nonzero;fill:rgb(100%,90.194702%,79.998779%);fill-opacity:1;stroke-width:0.687177;stroke-linecap:butt;stroke-linejoin:miter;stroke:rgb(84.312439%,60.783386%,0%);stroke-opacity:1;stroke-miterlimit:10;" d="M 97.234375 69.74971 L 124.722656 69.74971 L 124.722656 97.23458 L 97.234375 97.23458 Z M 97.234375 69.74971 " transform="matrix(1,0,0,0.997708,0,0)"/>
<path style="fill-rule:nonzero;fill:rgb(100%,90.194702%,79.998779%);fill-opacity:1;stroke-width:0.687177;stroke-linecap:butt;stroke-linejoin:miter;stroke:rgb(84.312439%,60.783386%,0%);stroke-opacity:1;stroke-miterlimit:10;" d="M 69.75 97.23458 L 97.234375 97.23458 L 97.234375 124.723366 L 69.75 124.723366 Z M 69.75 97.23458 " transform="matrix(1,0,0,0.997708,0,0)"/>
<path style=" stroke:none;fill-rule:nonzero;fill:rgb(100%,90.194702%,79.998779%);fill-opacity:1;" d="M 97.234375 124.4375 L 124.722656 124.4375 L 124.722656 151.859375 L 97.234375 151.859375 Z M 97.234375 124.4375 "/>
<g clip-path="url(#clip12)" clip-rule="nonzero">
<path style="fill:none;stroke-width:0.687177;stroke-linecap:butt;stroke-linejoin:miter;stroke:rgb(84.312439%,60.783386%,0%);stroke-opacity:1;stroke-miterlimit:10;" d="M 97.234375 124.723366 L 124.722656 124.723366 L 124.722656 152.208236 L 97.234375 152.208236 Z M 97.234375 124.723366 " transform="matrix(1,0,0,0.997708,0,0)"/>
</g>
<path style="fill-rule:nonzero;fill:rgb(100%,90.194702%,79.998779%);fill-opacity:1;stroke-width:0.687177;stroke-linecap:butt;stroke-linejoin:miter;stroke:rgb(84.312439%,60.783386%,0%);stroke-opacity:1;stroke-miterlimit:10;" d="M 124.722656 97.23458 L 152.210938 97.23458 L 152.210938 124.723366 L 124.722656 124.723366 Z M 124.722656 97.23458 " transform="matrix(1,0,0,0.997708,0,0)"/>
<g clip-path="url(#clip13)" clip-rule="nonzero">
<use xlink:href="#surface7" transform="matrix(1,0,0,1,44,163)"/>
</g>
<g clip-path="url(#clip17)" clip-rule="nonzero">
<use xlink:href="#surface6" transform="matrix(1,0,0,1,170,163)"/>
</g>
</g>
</svg>
