<?xml version="1.0" encoding="UTF-8"?>
<svg xmlns="http://www.w3.org/2000/svg" xmlns:xlink="http://www.w3.org/1999/xlink" width="221.516312pt" height="138.932587pt" viewBox="0 0 221.516312 138.932587" version="1.1">
<defs>
<clipPath id="clip1">
  <path d="M 0 0 L 221.515625 0 L 221.515625 138.933594 L 0 138.933594 Z M 0 0 "/>
</clipPath>
<clipPath id="clip2">
  <path d="M 0 55 L 84 55 L 84 138.25 L 0 138.25 Z M 0 55 "/>
</clipPath>
<clipPath id="clip3">
  <path d="M 82 82 L 139 82 L 139 138.25 L 82 138.25 Z M 82 82 "/>
</clipPath>
<clipPath id="clip4">
  <path d="M 82 123 L 98 123 L 98 138.25 L 82 138.25 Z M 82 123 "/>
</clipPath>
<clipPath id="clip5">
  <path d="M 96 123 L 112 123 L 112 138.25 L 96 138.25 Z M 96 123 "/>
</clipPath>
<clipPath id="clip6">
  <path d="M 110 123 L 125 123 L 125 138.25 L 110 138.25 Z M 110 123 "/>
</clipPath>
<clipPath id="clip7">
  <path d="M 124 123 L 139 123 L 139 138.25 L 124 138.25 Z M 124 123 "/>
</clipPath>
<clipPath id="clip8">
  <path d="M 165 82 L 221 82 L 221 138.25 L 165 138.25 Z M 165 82 "/>
</clipPath>
<clipPath id="clip9">
  <path d="M 165 123 L 221 123 L 221 138.25 L 165 138.25 Z M 165 123 "/>
</clipPath>
<clipPath id="clip10">
  <path d="M 24.398438 21.53125 L 38.035156 21.53125 L 38.035156 33.730469 L 24.398438 33.730469 Z M 24.398438 21.53125 "/>
</clipPath>
<clipPath id="clip12">
  <path d="M 0.398438 1 L 9 1 L 9 10 L 0.398438 10 Z M 0.398438 1 "/>
</clipPath>
<clipPath id="clip13">
  <path d="M 0.398438 1 L 10 1 L 10 10 L 0.398438 10 Z M 0.398438 1 "/>
</clipPath>
<clipPath id="clip11">
  <rect width="15" height="13"/>
</clipPath>
<g id="surface7" clip-path="url(#clip11)">
<g clip-path="url(#clip12)" clip-rule="nonzero">
<path style=" stroke:none;fill-rule:nonzero;fill:rgb(30.195618%,30.195618%,30.195618%);fill-opacity:1;" d="M 3.449219 9.667969 C 3.324219 9.644531 2.871094 9.636719 2.089844 9.636719 C 1.359375 9.636719 0.964844 9.644531 0.90625 9.667969 L 0.8125 9.667969 L 0.8125 8.980469 L 1.347656 8.980469 C 1.703125 8.980469 1.882812 8.972656 1.882812 8.957031 C 3.558594 4.390625 4.429688 2.082031 4.488281 2.03125 C 4.53125 1.964844 4.65625 1.929688 4.871094 1.929688 C 5.070312 1.929688 5.199219 1.964844 5.253906 2.03125 C 5.28125 2.050781 5.511719 2.640625 5.941406 3.792969 C 6.375 4.945312 6.804688 6.097656 7.230469 7.25 L 7.859375 8.957031 C 7.859375 8.972656 8.039062 8.980469 8.394531 8.980469 L 8.929688 8.980469 L 8.929688 9.667969 L 8.816406 9.667969 C 8.671875 9.644531 8.125 9.636719 7.179688 9.636719 C 6.15625 9.636719 5.5625 9.644531 5.398438 9.667969 L 5.261719 9.667969 L 5.261719 8.980469 L 5.726562 8.980469 C 6.027344 8.980469 6.179688 8.976562 6.179688 8.96875 L 5.726562 7.726562 L 3.097656 7.726562 L 2.871094 8.339844 C 2.722656 8.746094 2.640625 8.953125 2.636719 8.957031 C 2.636719 8.972656 2.785156 8.980469 3.089844 8.980469 L 3.550781 8.980469 L 3.550781 9.667969 Z M 4.417969 7.039062 L 5.46875 7.03125 L 4.933594 5.621094 C 4.589844 4.691406 4.410156 4.226562 4.398438 4.226562 C 3.703125 6.085938 3.355469 7.027344 3.355469 7.039062 Z M 4.417969 7.039062 "/>
</g>
<g clip-path="url(#clip13)" clip-rule="nonzero">
<path style="fill:none;stroke-width:0.0110869;stroke-linecap:butt;stroke-linejoin:miter;stroke:rgb(30.195618%,30.195618%,30.195618%);stroke-opacity:0.0118;stroke-miterlimit:10;" d="M 29.538825 -30.667969 C 29.404309 -30.644531 28.916689 -30.636719 28.075966 -30.636719 C 27.289889 -30.636719 26.865324 -30.644531 26.802269 -30.667969 L 26.701382 -30.667969 L 26.701382 -29.980469 L 27.277278 -29.980469 C 27.659807 -29.980469 27.853174 -29.972656 27.853174 -29.957031 C 29.656526 -25.390625 30.593933 -23.082031 30.656987 -23.03125 C 30.703227 -22.964844 30.837743 -22.929688 31.068942 -22.929688 C 31.283326 -22.929688 31.422046 -22.964844 31.480896 -23.03125 C 31.510322 -23.050781 31.758335 -23.640625 32.220733 -24.792969 C 32.687335 -25.945312 33.149733 -27.097656 33.607927 -28.25 L 34.28471 -29.957031 C 34.28471 -29.972656 34.478076 -29.980469 34.860605 -29.980469 L 35.436501 -29.980469 L 35.436501 -30.667969 L 35.314596 -30.667969 C 35.159062 -30.644531 34.570556 -30.636719 33.55328 -30.636719 C 32.451932 -30.636719 31.812982 -30.644531 31.63643 -30.667969 L 31.489304 -30.667969 L 31.489304 -29.980469 L 31.989534 -29.980469 C 32.313213 -29.980469 32.477154 -29.976562 32.477154 -29.96875 L 31.989534 -28.726562 L 29.160499 -28.726562 L 28.916689 -29.339844 C 28.756952 -29.746094 28.668676 -29.953125 28.664472 -29.957031 C 28.664472 -29.972656 28.82421 -29.980469 29.152092 -29.980469 L 29.648119 -29.980469 L 29.648119 -30.667969 Z M 30.581322 -28.039062 L 31.712095 -28.03125 L 31.1362 -26.621094 C 30.766281 -25.691406 30.572915 -25.226562 30.560304 -25.226562 C 29.81206 -27.085938 29.437938 -28.027344 29.437938 -28.039062 Z M 30.581322 -28.039062 " transform="matrix(0.929259,0,0,-1,-24,-21)"/>
</g>
<path style="fill-rule:nonzero;fill:rgb(30.195618%,30.195618%,30.195618%);fill-opacity:1;stroke-width:0.00783842;stroke-linecap:butt;stroke-linejoin:miter;stroke:rgb(30.195618%,30.195618%,30.195618%);stroke-opacity:0.00779999;stroke-miterlimit:10;" d="M 37.559328 -27.800781 L 37.458441 -27.839844 C 37.38698 -27.867188 37.281889 -27.890625 37.147374 -27.917969 C 37.008654 -27.945312 36.857324 -27.960938 36.689179 -27.972656 L 36.542053 -27.972656 L 36.542053 -27.613281 L 36.689179 -27.613281 C 36.937193 -27.601562 37.164188 -27.5625 37.374369 -27.496094 C 37.580346 -27.425781 37.727473 -27.363281 37.811545 -27.308594 C 37.895618 -27.25 37.967079 -27.191406 38.030133 -27.132812 C 38.042744 -27.117188 38.07217 -27.109375 38.126817 -27.109375 C 38.173056 -27.109375 38.215093 -27.125 38.257129 -27.15625 L 38.257129 -29.5 L 38.265536 -31.851562 C 38.303369 -31.890625 38.332794 -31.914062 38.362219 -31.921875 C 38.387441 -31.933594 38.450495 -31.945312 38.547178 -31.957031 C 38.648065 -31.964844 38.812006 -31.972656 39.034798 -31.972656 L 39.240775 -31.972656 L 39.240775 -32.332031 L 39.152499 -32.332031 C 39.043205 -32.316406 38.627047 -32.308594 37.908228 -32.308594 C 37.193613 -32.308594 36.785862 -32.316406 36.676568 -32.332031 L 36.579885 -32.332031 L 36.579885 -31.972656 L 36.785862 -31.972656 C 36.89936 -31.972656 37.000247 -31.972656 37.084319 -31.972656 C 37.168392 -31.972656 37.231446 -31.96875 37.277686 -31.964844 C 37.328129 -31.957031 37.365962 -31.949219 37.403794 -31.9375 C 37.441627 -31.929688 37.462645 -31.921875 37.466849 -31.921875 C 37.471052 -31.921875 37.487867 -31.910156 37.513088 -31.882812 C 37.53831 -31.859375 37.555125 -31.847656 37.559328 -31.851562 Z M 37.559328 -27.800781 " transform="matrix(0.929259,0,0,-1,-24,-21)"/>
</g>
<clipPath id="clip14">
  <path d="M 64.585938 63.871094 L 78.222656 63.871094 L 78.222656 76.070312 L 64.585938 76.070312 Z M 64.585938 63.871094 "/>
</clipPath>
<clipPath id="clip16">
  <path d="M 0.585938 2 L 10 2 L 10 11 L 0.585938 11 Z M 0.585938 2 "/>
</clipPath>
<clipPath id="clip15">
  <rect width="15" height="14"/>
</clipPath>
<g id="surface10" clip-path="url(#clip15)">
<path style=" stroke:none;fill-rule:nonzero;fill:rgb(30.195618%,30.195618%,30.195618%);fill-opacity:1;" d="M 3.636719 10.007812 C 3.515625 9.988281 3.0625 9.976562 2.277344 9.976562 C 1.550781 9.976562 1.15625 9.988281 1.09375 10.007812 L 1 10.007812 L 1 9.320312 L 1.535156 9.320312 C 1.894531 9.320312 2.070312 9.316406 2.070312 9.300781 C 3.746094 4.730469 4.617188 2.421875 4.679688 2.371094 C 4.71875 2.304688 4.847656 2.269531 5.058594 2.269531 C 5.257812 2.269531 5.386719 2.304688 5.441406 2.371094 C 5.46875 2.394531 5.699219 2.980469 6.128906 4.132812 C 6.5625 5.285156 6.992188 6.441406 7.417969 7.59375 L 8.046875 9.300781 C 8.046875 9.316406 8.226562 9.320312 8.582031 9.320312 L 9.117188 9.320312 L 9.117188 10.007812 L 9.003906 10.007812 C 8.859375 9.988281 8.316406 9.976562 7.367188 9.976562 C 6.34375 9.976562 5.75 9.988281 5.585938 10.007812 L 5.449219 10.007812 L 5.449219 9.320312 L 5.914062 9.320312 C 6.214844 9.320312 6.367188 9.320312 6.367188 9.3125 L 5.914062 8.070312 L 3.289062 8.070312 L 3.0625 8.679688 C 2.910156 9.085938 2.832031 9.292969 2.824219 9.300781 C 2.824219 9.316406 2.976562 9.320312 3.277344 9.320312 L 3.742188 9.320312 L 3.742188 10.007812 Z M 4.605469 7.382812 L 5.65625 7.371094 L 5.121094 5.960938 C 4.777344 5.03125 4.597656 4.566406 4.585938 4.566406 C 3.890625 6.429688 3.542969 7.367188 3.542969 7.382812 Z M 4.605469 7.382812 "/>
<g clip-path="url(#clip16)" clip-rule="nonzero">
<path style="fill:none;stroke-width:0.0110869;stroke-linecap:butt;stroke-linejoin:miter;stroke:rgb(30.195618%,30.195618%,30.195618%);stroke-opacity:0.0118;stroke-miterlimit:10;" d="M 72.785648 -73.007812 C 72.655336 -72.988281 72.167716 -72.976562 71.322789 -72.976562 C 70.540916 -72.976562 70.116351 -72.988281 70.049093 -73.007812 L 69.948206 -73.007812 L 69.948206 -72.320312 L 70.524102 -72.320312 C 70.910835 -72.320312 71.099997 -72.316406 71.099997 -72.300781 C 72.90335 -67.730469 73.840756 -65.421875 73.908014 -65.371094 C 73.950051 -65.304688 74.08877 -65.269531 74.315765 -65.269531 C 74.53015 -65.269531 74.668869 -65.304688 74.72772 -65.371094 C 74.757145 -65.394531 75.005159 -65.980469 75.467557 -67.132812 C 75.934158 -68.285156 76.396556 -69.441406 76.854751 -70.59375 L 77.531533 -72.300781 C 77.531533 -72.316406 77.7249 -72.320312 78.107429 -72.320312 L 78.683325 -72.320312 L 78.683325 -73.007812 L 78.56142 -73.007812 C 78.405886 -72.988281 77.821583 -72.976562 76.800104 -72.976562 C 75.698756 -72.976562 75.059806 -72.988281 74.883254 -73.007812 L 74.736127 -73.007812 L 74.736127 -72.320312 L 75.236358 -72.320312 C 75.560036 -72.320312 75.723977 -72.320312 75.723977 -72.3125 L 75.236358 -71.070312 L 72.411526 -71.070312 L 72.167716 -71.679688 C 72.003775 -72.085938 71.919703 -72.292969 71.911296 -72.300781 C 71.911296 -72.316406 72.075237 -72.320312 72.398915 -72.320312 L 72.899146 -72.320312 L 72.899146 -73.007812 Z M 73.828146 -70.382812 L 74.958919 -70.371094 L 74.383023 -68.960938 C 74.013105 -68.03125 73.819738 -67.566406 73.807128 -67.566406 C 73.058883 -69.429688 72.684761 -70.367188 72.684761 -70.382812 Z M 73.828146 -70.382812 " transform="matrix(0.929259,0,0,-1,-64,-63)"/>
</g>
<path style="fill-rule:nonzero;fill:rgb(30.195618%,30.195618%,30.195618%);fill-opacity:1;stroke-width:0.00783842;stroke-linecap:butt;stroke-linejoin:miter;stroke:rgb(30.195618%,30.195618%,30.195618%);stroke-opacity:0.00779999;stroke-miterlimit:10;" d="M 79.994853 -71.308594 C 79.85193 -71.308594 79.738433 -71.261719 79.658564 -71.167969 C 79.574492 -71.074219 79.532455 -70.960938 79.532455 -70.824219 C 79.532455 -70.453125 79.671175 -70.132812 79.948614 -69.859375 C 80.221849 -69.589844 80.566545 -69.453125 80.982704 -69.453125 C 81.457713 -69.453125 81.852853 -69.597656 82.172328 -69.890625 C 82.491803 -70.183594 82.65154 -70.5625 82.659947 -71.027344 C 82.659947 -71.253906 82.6053 -71.464844 82.50021 -71.671875 C 82.399323 -71.875 82.273214 -72.050781 82.126088 -72.203125 C 81.978961 -72.355469 81.76878 -72.546875 81.499749 -72.785156 C 81.310586 -72.945312 81.049962 -73.1875 80.713672 -73.503906 L 80.251274 -73.945312 L 80.848188 -73.953125 C 81.667893 -73.953125 82.10507 -73.9375 82.155513 -73.914062 C 82.193346 -73.902344 82.2564 -73.667969 82.344676 -73.214844 L 82.344676 -73.191406 L 82.659947 -73.191406 L 82.659947 -73.214844 C 82.65154 -73.230469 82.617911 -73.46875 82.554857 -73.929688 C 82.496006 -74.386719 82.45397 -74.628906 82.441359 -74.648438 L 82.441359 -74.671875 L 79.532455 -74.671875 L 79.532455 -74.429688 C 79.532455 -74.394531 79.545066 -74.355469 79.578695 -74.3125 C 79.608121 -74.269531 79.687989 -74.179688 79.814098 -74.039062 C 79.965428 -73.871094 80.09574 -73.722656 80.205034 -73.597656 C 80.251274 -73.546875 80.33955 -73.449219 80.469862 -73.308594 C 80.604378 -73.167969 80.692654 -73.070312 80.738894 -73.019531 C 80.785134 -72.964844 80.860799 -72.878906 80.965889 -72.761719 C 81.07098 -72.640625 81.142441 -72.550781 81.184477 -72.492188 C 81.226514 -72.4375 81.285364 -72.359375 81.365233 -72.257812 C 81.445102 -72.160156 81.499749 -72.074219 81.529174 -72.007812 C 81.562803 -71.941406 81.600636 -71.863281 81.646875 -71.78125 C 81.693115 -71.695312 81.726744 -71.613281 81.747762 -71.53125 C 81.76878 -71.445312 81.789798 -71.367188 81.802409 -71.292969 C 81.819224 -71.222656 81.827631 -71.136719 81.827631 -71.035156 C 81.827631 -70.707031 81.739355 -70.421875 81.562803 -70.179688 C 81.382047 -69.941406 81.12983 -69.820312 80.801948 -69.820312 C 80.6296 -69.820312 80.47827 -69.863281 80.347957 -69.953125 C 80.217645 -70.042969 80.125166 -70.128906 80.070519 -70.210938 C 80.020075 -70.296875 79.994853 -70.347656 79.994853 -70.363281 C 79.994853 -70.367188 80.007464 -70.371094 80.032686 -70.371094 C 80.125166 -70.371094 80.221849 -70.40625 80.322736 -70.480469 C 80.423622 -70.550781 80.469862 -70.671875 80.469862 -70.839844 C 80.469862 -70.96875 80.43203 -71.078125 80.347957 -71.167969 C 80.263885 -71.257812 80.146184 -71.304688 79.994853 -71.308594 Z M 79.994853 -71.308594 " transform="matrix(0.929259,0,0,-1,-64,-63)"/>
</g>
<clipPath id="clip17">
  <path d="M 104.777344 106.210938 L 118.410156 106.210938 L 118.410156 118.410156 L 104.777344 118.410156 Z M 104.777344 106.210938 "/>
</clipPath>
<clipPath id="clip18">
  <rect width="15" height="13"/>
</clipPath>
<g id="surface13" clip-path="url(#clip18)">
<path style="fill-rule:nonzero;fill:rgb(30.195618%,30.195618%,30.195618%);fill-opacity:1;stroke-width:0.0110869;stroke-linecap:butt;stroke-linejoin:miter;stroke:rgb(30.195618%,30.195618%,30.195618%);stroke-opacity:0.0118;stroke-miterlimit:10;" d="M 116.032472 -115.351562 C 115.90216 -115.328125 115.41454 -115.316406 114.569613 -115.316406 C 113.78774 -115.316406 113.363174 -115.328125 113.295916 -115.351562 L 113.19503 -115.351562 L 113.19503 -114.664062 L 113.770925 -114.664062 C 114.157658 -114.664062 114.351025 -114.65625 114.351025 -114.640625 C 116.154377 -110.074219 117.08758 -107.761719 117.154838 -107.710938 C 117.196874 -107.644531 117.335593 -107.613281 117.562589 -107.613281 C 117.776973 -107.613281 117.915693 -107.644531 117.974543 -107.710938 C 118.003969 -107.734375 118.251982 -108.320312 118.718584 -109.476562 C 119.180982 -110.628906 119.64338 -111.78125 120.101574 -112.933594 L 120.778357 -114.640625 C 120.778357 -114.65625 120.971723 -114.664062 121.354252 -114.664062 L 121.934352 -114.664062 L 121.934352 -115.351562 L 121.812447 -115.351562 C 121.656913 -115.328125 121.068406 -115.316406 120.046927 -115.316406 C 118.945579 -115.316406 118.306629 -115.328125 118.130077 -115.351562 L 117.987154 -115.351562 L 117.987154 -114.664062 L 118.483181 -114.664062 C 118.811063 -114.664062 118.970801 -114.660156 118.970801 -114.652344 L 118.483181 -113.410156 L 115.65835 -113.410156 L 115.41454 -114.019531 C 115.250599 -114.425781 115.166527 -114.632812 115.158119 -114.640625 C 115.158119 -114.65625 115.32206 -114.664062 115.645739 -114.664062 L 116.14597 -114.664062 L 116.14597 -115.351562 Z M 117.074969 -112.722656 L 118.205742 -112.710938 L 117.629847 -111.304688 C 117.259928 -110.371094 117.070766 -109.90625 117.053951 -109.90625 C 116.305707 -111.769531 115.935789 -112.707031 115.935789 -112.722656 Z M 117.074969 -112.722656 " transform="matrix(0.929259,0,0,-1,-104,-106)"/>
<path style="fill-rule:nonzero;fill:rgb(30.195618%,30.195618%,30.195618%);fill-opacity:1;stroke-width:0.00783842;stroke-linecap:butt;stroke-linejoin:miter;stroke:rgb(30.195618%,30.195618%,30.195618%);stroke-opacity:0.00779999;stroke-miterlimit:10;" d="M 123.380396 -113.382812 C 123.241677 -113.382812 123.132383 -113.339844 123.052514 -113.25 C 122.976849 -113.164062 122.934813 -113.046875 122.926406 -112.90625 C 122.926406 -112.617188 123.052514 -112.363281 123.304731 -112.136719 C 123.552745 -111.914062 123.859609 -111.800781 124.212713 -111.800781 C 124.397672 -111.800781 124.51117 -111.804688 124.557409 -111.808594 C 124.944142 -111.871094 125.238396 -112.011719 125.444373 -112.222656 C 125.646147 -112.4375 125.751237 -112.671875 125.755441 -112.921875 C 125.755441 -113.195312 125.667165 -113.457031 125.490613 -113.714844 C 125.314061 -113.96875 125.066047 -114.15625 124.75498 -114.269531 L 124.729758 -114.285156 C 124.729758 -114.292969 124.75498 -114.300781 124.801219 -114.308594 C 124.847459 -114.320312 124.923124 -114.34375 125.028215 -114.378906 C 125.133305 -114.417969 125.234192 -114.472656 125.326672 -114.542969 C 125.755441 -114.820312 125.969825 -115.1875 125.969825 -115.640625 C 125.969825 -116.054688 125.805884 -116.414062 125.482205 -116.722656 C 125.158527 -117.03125 124.750776 -117.1875 124.250545 -117.1875 C 123.834387 -117.1875 123.472876 -117.074219 123.170215 -116.847656 C 122.867555 -116.625 122.716225 -116.339844 122.716225 -115.996094 C 122.716225 -115.847656 122.762465 -115.730469 122.859148 -115.640625 C 122.951627 -115.554688 123.069329 -115.507812 123.208048 -115.5 C 123.355175 -115.5 123.47708 -115.546875 123.569559 -115.640625 C 123.666242 -115.734375 123.712482 -115.855469 123.712482 -115.996094 C 123.712482 -116.050781 123.704075 -116.105469 123.68726 -116.152344 C 123.670446 -116.199219 123.653632 -116.242188 123.632613 -116.277344 C 123.611595 -116.3125 123.58217 -116.34375 123.548541 -116.371094 C 123.510709 -116.398438 123.47708 -116.417969 123.451858 -116.433594 C 123.426636 -116.449219 123.401414 -116.460938 123.376193 -116.464844 C 123.346767 -116.46875 123.325749 -116.476562 123.313138 -116.488281 L 123.27951 -116.496094 C 123.548541 -116.730469 123.87222 -116.847656 124.250545 -116.847656 C 124.540595 -116.847656 124.75498 -116.710938 124.902106 -116.433594 C 124.990382 -116.261719 125.036622 -115.996094 125.036622 -115.640625 L 125.036622 -115.484375 C 125.036622 -114.988281 124.868477 -114.65625 124.536391 -114.488281 C 124.456523 -114.457031 124.296785 -114.441406 124.057179 -114.433594 L 123.729297 -114.425781 L 123.704075 -114.410156 C 123.691464 -114.394531 123.68726 -114.355469 123.68726 -114.285156 C 123.68726 -114.191406 123.708279 -114.144531 123.750315 -114.144531 C 123.897441 -114.144531 124.048772 -114.132812 124.204306 -114.105469 C 124.385061 -114.078125 124.544799 -113.96875 124.691925 -113.777344 C 124.839052 -113.582031 124.910513 -113.289062 124.910513 -112.898438 L 124.910513 -112.835938 C 124.910513 -112.539062 124.818034 -112.332031 124.637278 -112.214844 C 124.519577 -112.144531 124.397672 -112.105469 124.26736 -112.105469 C 124.099215 -112.105469 123.947885 -112.136719 123.804962 -112.191406 C 123.666242 -112.25 123.565356 -112.3125 123.506505 -112.375 C 123.451858 -112.4375 123.422433 -112.46875 123.422433 -112.46875 L 123.443451 -112.46875 C 123.460265 -112.472656 123.481283 -112.476562 123.506505 -112.484375 C 123.53593 -112.488281 123.561152 -112.5 123.586374 -112.523438 C 123.611595 -112.542969 123.645224 -112.5625 123.678853 -112.578125 C 123.716686 -112.59375 123.741908 -112.621094 123.758722 -112.664062 C 123.775536 -112.707031 123.796555 -112.746094 123.821776 -112.78125 C 123.846998 -112.816406 123.855405 -112.871094 123.842794 -112.9375 C 123.842794 -113.050781 123.809165 -113.15625 123.7335 -113.242188 C 123.662039 -113.332031 123.544337 -113.378906 123.380396 -113.382812 Z M 123.380396 -113.382812 " transform="matrix(0.929259,0,0,-1,-104,-106)"/>
</g>
<clipPath id="clip19">
  <path d="M 187.304688 21.53125 L 200.941406 21.53125 L 200.941406 33.730469 L 187.304688 33.730469 Z M 187.304688 21.53125 "/>
</clipPath>
<clipPath id="clip21">
  <path d="M 0.304688 2 L 9 2 L 9 10 L 0.304688 10 Z M 0.304688 2 "/>
</clipPath>
<clipPath id="clip22">
  <path d="M 0.304688 1 L 10 1 L 10 10 L 0.304688 10 Z M 0.304688 1 "/>
</clipPath>
<clipPath id="clip20">
  <rect width="14" height="13"/>
</clipPath>
<g id="surface16" clip-path="url(#clip20)">
<g clip-path="url(#clip21)" clip-rule="nonzero">
<path style=" stroke:none;fill-rule:nonzero;fill:rgb(30.195618%,30.195618%,30.195618%);fill-opacity:1;" d="M 3.675781 9.667969 C 3.53125 9.644531 3.003906 9.636719 2.097656 9.636719 C 1.261719 9.636719 0.808594 9.644531 0.75 9.667969 L 0.644531 9.667969 L 0.644531 8.980469 L 1.316406 8.980469 L 1.976562 8.96875 L 4.015625 5.976562 L 1.921875 2.75 L 0.800781 2.75 L 0.800781 2.0625 L 0.914062 2.0625 C 1.058594 2.085938 1.601562 2.097656 2.542969 2.097656 C 3.578125 2.097656 4.191406 2.085938 4.375 2.0625 L 4.507812 2.0625 L 4.507812 2.75 L 3.757812 2.75 L 4.355469 3.679688 L 4.960938 4.589844 L 6.210938 2.761719 C 6.210938 2.753906 6.054688 2.75 5.746094 2.75 L 5.28125 2.75 L 5.28125 2.0625 L 5.394531 2.0625 C 5.539062 2.085938 6.0625 2.097656 6.960938 2.097656 C 7.804688 2.097656 8.257812 2.085938 8.320312 2.0625 L 8.414062 2.0625 L 8.414062 2.75 L 7.085938 2.75 L 6.230469 4.003906 C 5.667969 4.839844 5.386719 5.257812 5.386719 5.265625 L 5.539062 5.5 C 5.636719 5.648438 5.789062 5.882812 6.003906 6.210938 C 6.214844 6.535156 6.414062 6.839844 6.601562 7.128906 L 7.796875 8.980469 L 8.910156 8.980469 L 8.910156 9.667969 L 8.796875 9.667969 C 8.652344 9.644531 8.113281 9.636719 7.175781 9.636719 C 6.140625 9.636719 5.527344 9.644531 5.34375 9.667969 L 5.210938 9.667969 L 5.210938 8.980469 L 5.589844 8.980469 L 5.960938 8.96875 L 4.4375 6.628906 L 2.851562 8.96875 C 2.851562 8.976562 3.003906 8.980469 3.3125 8.980469 L 3.789062 8.980469 L 3.789062 9.667969 Z M 3.675781 9.667969 "/>
</g>
<g clip-path="url(#clip22)" clip-rule="nonzero">
<path style="fill:none;stroke-width:0.0110869;stroke-linecap:butt;stroke-linejoin:miter;stroke:rgb(30.195618%,30.195618%,30.195618%);stroke-opacity:0.0118;stroke-miterlimit:10;" d="M 205.191213 -30.667969 C 205.035679 -30.644531 204.468191 -30.636719 203.492951 -30.636719 C 202.593377 -30.636719 202.105757 -30.644531 202.042703 -30.667969 L 201.929205 -30.667969 L 201.929205 -29.980469 L 202.652227 -29.980469 L 203.362639 -29.96875 L 205.556928 -26.976562 L 203.303788 -23.75 L 202.09735 -23.75 L 202.09735 -23.0625 L 202.219255 -23.0625 C 202.374789 -23.085938 202.959092 -23.097656 203.972164 -23.097656 C 205.086122 -23.097656 205.74609 -23.085938 205.94366 -23.0625 L 206.086584 -23.0625 L 206.086584 -23.75 L 205.279489 -23.75 L 205.922642 -24.679688 L 206.574203 -25.589844 L 207.919361 -23.761719 C 207.919361 -23.753906 207.751216 -23.75 207.41913 -23.75 L 206.9189 -23.75 L 206.9189 -23.0625 L 207.040805 -23.0625 C 207.196339 -23.085938 207.759624 -23.097656 208.726456 -23.097656 C 209.634437 -23.097656 210.122057 -23.085938 210.189315 -23.0625 L 210.290202 -23.0625 L 210.290202 -23.75 L 208.860971 -23.75 L 207.940379 -25.003906 C 207.335058 -25.839844 207.032398 -26.257812 207.032398 -26.265625 L 207.196339 -26.5 C 207.301429 -26.648438 207.46537 -26.882812 207.696569 -27.210938 C 207.923565 -27.535156 208.137949 -27.839844 208.339723 -28.128906 L 209.62603 -29.980469 L 210.824061 -29.980469 L 210.824061 -30.667969 L 210.702156 -30.667969 C 210.546622 -30.644531 209.966523 -30.636719 208.957655 -30.636719 C 207.843696 -30.636719 207.183728 -30.644531 206.986158 -30.667969 L 206.843235 -30.667969 L 206.843235 -29.980469 L 207.250986 -29.980469 L 207.650329 -29.96875 L 206.010918 -27.628906 L 204.304249 -29.96875 C 204.304249 -29.976562 204.468191 -29.980469 204.800276 -29.980469 L 205.313118 -29.980469 L 205.313118 -30.667969 Z M 205.191213 -30.667969 " transform="matrix(0.929259,0,0,-1,-187,-21)"/>
</g>
<path style="fill-rule:nonzero;fill:rgb(30.195618%,30.195618%,30.195618%);fill-opacity:1;stroke-width:0.00783842;stroke-linecap:butt;stroke-linejoin:miter;stroke:rgb(30.195618%,30.195618%,30.195618%);stroke-opacity:0.00779999;stroke-miterlimit:10;" d="M 212.86702 -27.800781 L 212.766133 -27.839844 C 212.694671 -27.867188 212.589581 -27.890625 212.455065 -27.917969 C 212.316346 -27.945312 212.165015 -27.960938 211.996871 -27.972656 L 211.849744 -27.972656 L 211.849744 -27.613281 L 211.996871 -27.613281 C 212.244884 -27.601562 212.471879 -27.5625 212.68206 -27.496094 C 212.888038 -27.425781 213.035164 -27.363281 213.119237 -27.308594 C 213.203309 -27.25 213.274771 -27.191406 213.337825 -27.132812 C 213.350436 -27.117188 213.379861 -27.109375 213.434508 -27.109375 C 213.480748 -27.109375 213.522784 -27.125 213.56482 -27.15625 L 213.56482 -29.5 L 213.573227 -31.851562 C 213.61106 -31.890625 213.640485 -31.914062 213.669911 -31.921875 C 213.695132 -31.933594 213.758187 -31.945312 213.85487 -31.957031 C 213.955757 -31.964844 214.115494 -31.972656 214.34249 -31.972656 L 214.544263 -31.972656 L 214.544263 -32.332031 L 214.460191 -32.332031 C 214.350897 -32.316406 213.934739 -32.308594 213.211716 -32.308594 C 212.501305 -32.308594 212.093554 -32.316406 211.98426 -32.332031 L 211.887577 -32.332031 L 211.887577 -31.972656 L 212.093554 -31.972656 C 212.207052 -31.972656 212.307938 -31.972656 212.392011 -31.972656 C 212.476083 -31.972656 212.539137 -31.96875 212.585377 -31.964844 C 212.631617 -31.957031 212.673653 -31.949219 212.711486 -31.9375 C 212.749318 -31.929688 212.770336 -31.921875 212.77454 -31.921875 C 212.778744 -31.921875 212.795558 -31.910156 212.82078 -31.882812 C 212.846001 -31.859375 212.862816 -31.847656 212.86702 -31.851562 Z M 212.86702 -27.800781 " transform="matrix(0.929259,0,0,-1,-187,-21)"/>
</g>
<clipPath id="clip23">
  <path d="M 187.304688 63.871094 L 200.941406 63.871094 L 200.941406 76.070312 L 187.304688 76.070312 Z M 187.304688 63.871094 "/>
</clipPath>
<clipPath id="clip25">
  <path d="M 0.304688 2 L 9 2 L 9 11 L 0.304688 11 Z M 0.304688 2 "/>
</clipPath>
<clipPath id="clip26">
  <path d="M 0.304688 2 L 10 2 L 10 11 L 0.304688 11 Z M 0.304688 2 "/>
</clipPath>
<clipPath id="clip24">
  <rect width="14" height="14"/>
</clipPath>
<g id="surface19" clip-path="url(#clip24)">
<g clip-path="url(#clip25)" clip-rule="nonzero">
<path style=" stroke:none;fill-rule:nonzero;fill:rgb(30.195618%,30.195618%,30.195618%);fill-opacity:1;" d="M 3.675781 10.007812 C 3.53125 9.988281 3.003906 9.976562 2.097656 9.976562 C 1.261719 9.976562 0.808594 9.988281 0.75 10.007812 L 0.644531 10.007812 L 0.644531 9.320312 L 1.316406 9.320312 L 1.976562 9.3125 L 4.015625 6.316406 L 1.921875 3.089844 L 0.800781 3.089844 L 0.800781 2.402344 L 0.914062 2.402344 C 1.058594 2.425781 1.601562 2.4375 2.542969 2.4375 C 3.578125 2.4375 4.191406 2.425781 4.375 2.402344 L 4.507812 2.402344 L 4.507812 3.089844 L 3.757812 3.089844 L 4.355469 4.023438 L 4.960938 4.933594 L 6.210938 3.101562 C 6.210938 3.09375 6.054688 3.089844 5.746094 3.089844 L 5.28125 3.089844 L 5.28125 2.402344 L 5.394531 2.402344 C 5.539062 2.425781 6.0625 2.4375 6.960938 2.4375 C 7.804688 2.4375 8.257812 2.425781 8.320312 2.402344 L 8.414062 2.402344 L 8.414062 3.089844 L 7.085938 3.089844 L 6.230469 4.34375 C 5.667969 5.179688 5.386719 5.601562 5.386719 5.609375 L 5.539062 5.839844 C 5.636719 5.988281 5.789062 6.226562 6.003906 6.550781 C 6.214844 6.875 6.414062 7.183594 6.601562 7.46875 L 7.796875 9.320312 L 8.910156 9.320312 L 8.910156 10.007812 L 8.796875 10.007812 C 8.652344 9.988281 8.113281 9.976562 7.175781 9.976562 C 6.140625 9.976562 5.527344 9.988281 5.34375 10.007812 L 5.210938 10.007812 L 5.210938 9.320312 L 5.589844 9.320312 L 5.960938 9.3125 L 4.4375 6.972656 L 2.851562 9.3125 C 2.851562 9.320312 3.003906 9.320312 3.3125 9.320312 L 3.789062 9.320312 L 3.789062 10.007812 Z M 3.675781 10.007812 "/>
</g>
<g clip-path="url(#clip26)" clip-rule="nonzero">
<path style="fill:none;stroke-width:0.0110869;stroke-linecap:butt;stroke-linejoin:miter;stroke:rgb(30.195618%,30.195618%,30.195618%);stroke-opacity:0.0118;stroke-miterlimit:10;" d="M 205.191213 -73.007812 C 205.035679 -72.988281 204.468191 -72.976562 203.492951 -72.976562 C 202.593377 -72.976562 202.105757 -72.988281 202.042703 -73.007812 L 201.929205 -73.007812 L 201.929205 -72.320312 L 202.652227 -72.320312 L 203.362639 -72.3125 L 205.556928 -69.316406 L 203.303788 -66.089844 L 202.09735 -66.089844 L 202.09735 -65.402344 L 202.219255 -65.402344 C 202.374789 -65.425781 202.959092 -65.4375 203.972164 -65.4375 C 205.086122 -65.4375 205.74609 -65.425781 205.94366 -65.402344 L 206.086584 -65.402344 L 206.086584 -66.089844 L 205.279489 -66.089844 L 205.922642 -67.023438 L 206.574203 -67.933594 L 207.919361 -66.101562 C 207.919361 -66.09375 207.751216 -66.089844 207.41913 -66.089844 L 206.9189 -66.089844 L 206.9189 -65.402344 L 207.040805 -65.402344 C 207.196339 -65.425781 207.759624 -65.4375 208.726456 -65.4375 C 209.634437 -65.4375 210.122057 -65.425781 210.189315 -65.402344 L 210.290202 -65.402344 L 210.290202 -66.089844 L 208.860971 -66.089844 L 207.940379 -67.34375 C 207.335058 -68.179688 207.032398 -68.601562 207.032398 -68.609375 L 207.196339 -68.839844 C 207.301429 -68.988281 207.46537 -69.226562 207.696569 -69.550781 C 207.923565 -69.875 208.137949 -70.183594 208.339723 -70.46875 L 209.62603 -72.320312 L 210.824061 -72.320312 L 210.824061 -73.007812 L 210.702156 -73.007812 C 210.546622 -72.988281 209.966523 -72.976562 208.957655 -72.976562 C 207.843696 -72.976562 207.183728 -72.988281 206.986158 -73.007812 L 206.843235 -73.007812 L 206.843235 -72.320312 L 207.250986 -72.320312 L 207.650329 -72.3125 L 206.010918 -69.972656 L 204.304249 -72.3125 C 204.304249 -72.320312 204.468191 -72.320312 204.800276 -72.320312 L 205.313118 -72.320312 L 205.313118 -73.007812 Z M 205.191213 -73.007812 " transform="matrix(0.929259,0,0,-1,-187,-63)"/>
</g>
<path style="fill-rule:nonzero;fill:rgb(30.195618%,30.195618%,30.195618%);fill-opacity:1;stroke-width:0.00783842;stroke-linecap:butt;stroke-linejoin:miter;stroke:rgb(30.195618%,30.195618%,30.195618%);stroke-opacity:0.00779999;stroke-miterlimit:10;" d="M 212.051518 -71.308594 C 211.912798 -71.308594 211.799301 -71.261719 211.715228 -71.167969 C 211.631156 -71.074219 211.58912 -70.960938 211.58912 -70.824219 C 211.58912 -70.453125 211.727839 -70.132812 212.005278 -69.859375 C 212.282717 -69.589844 212.627413 -69.453125 213.039368 -69.453125 C 213.51858 -69.453125 213.913721 -69.597656 214.233195 -69.890625 C 214.55267 -70.183594 214.712408 -70.5625 214.716612 -71.027344 C 214.716612 -71.253906 214.666168 -71.464844 214.561078 -71.671875 C 214.455987 -71.875 214.329879 -72.050781 214.186956 -72.203125 C 214.039829 -72.355469 213.829648 -72.546875 213.556413 -72.785156 C 213.371454 -72.945312 213.110829 -73.1875 212.77454 -73.503906 L 212.312142 -73.945312 L 212.909056 -73.953125 C 213.728761 -73.953125 214.165938 -73.9375 214.216381 -73.914062 C 214.254214 -73.902344 214.317268 -73.667969 214.405544 -73.214844 L 214.405544 -73.191406 L 214.716612 -73.191406 L 214.716612 -73.214844 C 214.712408 -73.230469 214.678779 -73.46875 214.615725 -73.929688 C 214.55267 -74.386719 214.514838 -74.628906 214.498023 -74.648438 L 214.498023 -74.671875 L 211.58912 -74.671875 L 211.58912 -74.429688 C 211.58912 -74.394531 211.605934 -74.355469 211.639563 -74.3125 C 211.668988 -74.269531 211.748857 -74.179688 211.874966 -74.039062 C 212.026296 -73.871094 212.156608 -73.722656 212.265902 -73.597656 C 212.312142 -73.546875 212.400418 -73.449219 212.53073 -73.308594 C 212.661042 -73.167969 212.749318 -73.070312 212.799762 -73.019531 C 212.846001 -72.964844 212.921667 -72.878906 213.026757 -72.761719 C 213.131848 -72.640625 213.203309 -72.550781 213.245345 -72.492188 C 213.287381 -72.4375 213.346232 -72.359375 213.426101 -72.257812 C 213.501766 -72.160156 213.556413 -72.074219 213.590042 -72.007812 C 213.619467 -71.941406 213.661503 -71.863281 213.707743 -71.78125 C 213.753983 -71.695312 213.787612 -71.613281 213.80863 -71.53125 C 213.829648 -71.445312 213.846463 -71.367188 213.863277 -71.292969 C 213.880092 -71.222656 213.888499 -71.136719 213.888499 -71.035156 C 213.888499 -70.707031 213.800223 -70.421875 213.619467 -70.179688 C 213.442915 -69.941406 213.190698 -69.820312 212.862816 -69.820312 C 212.686264 -69.820312 212.534934 -69.863281 212.404622 -69.953125 C 212.274309 -70.042969 212.186033 -70.128906 212.131386 -70.210938 C 212.080943 -70.296875 212.051518 -70.347656 212.051518 -70.363281 C 212.051518 -70.367188 212.068332 -70.371094 212.093554 -70.371094 C 212.186033 -70.371094 212.282717 -70.40625 212.383603 -70.480469 C 212.480287 -70.550781 212.53073 -70.671875 212.53073 -70.839844 C 212.53073 -70.96875 212.488694 -71.078125 212.404622 -71.167969 C 212.320549 -71.257812 212.202848 -71.304688 212.051518 -71.308594 Z M 212.051518 -71.308594 " transform="matrix(0.929259,0,0,-1,-187,-63)"/>
</g>
<clipPath id="clip27">
  <path d="M 187.304688 106.210938 L 200.941406 106.210938 L 200.941406 118.410156 L 187.304688 118.410156 Z M 187.304688 106.210938 "/>
</clipPath>
<clipPath id="clip29">
  <path d="M 0.304688 1 L 9 1 L 9 10 L 0.304688 10 Z M 0.304688 1 "/>
</clipPath>
<clipPath id="clip30">
  <path d="M 0.304688 1 L 10 1 L 10 10 L 0.304688 10 Z M 0.304688 1 "/>
</clipPath>
<clipPath id="clip28">
  <rect width="14" height="13"/>
</clipPath>
<g id="surface18" clip-path="url(#clip28)">
<g clip-path="url(#clip29)" clip-rule="nonzero">
<path style=" stroke:none;fill-rule:nonzero;fill:rgb(30.195618%,30.195618%,30.195618%);fill-opacity:1;" d="M 3.675781 9.351562 C 3.53125 9.328125 3.003906 9.316406 2.097656 9.316406 C 1.261719 9.316406 0.808594 9.328125 0.75 9.351562 L 0.644531 9.351562 L 0.644531 8.664062 L 1.316406 8.664062 L 1.976562 8.652344 L 4.015625 5.660156 L 1.921875 2.433594 L 0.800781 2.433594 L 0.800781 1.746094 L 0.914062 1.746094 C 1.058594 1.765625 1.601562 1.777344 2.542969 1.777344 C 3.578125 1.777344 4.191406 1.765625 4.375 1.746094 L 4.507812 1.746094 L 4.507812 2.433594 L 3.757812 2.433594 L 4.355469 3.363281 L 4.960938 4.273438 L 6.210938 2.445312 C 6.210938 2.4375 6.054688 2.433594 5.746094 2.433594 L 5.28125 2.433594 L 5.28125 1.746094 L 5.394531 1.746094 C 5.539062 1.765625 6.0625 1.777344 6.960938 1.777344 C 7.804688 1.777344 8.257812 1.765625 8.320312 1.746094 L 8.414062 1.746094 L 8.414062 2.433594 L 7.085938 2.433594 L 6.230469 3.683594 C 5.667969 4.519531 5.386719 4.941406 5.386719 4.949219 L 5.539062 5.183594 C 5.636719 5.328125 5.789062 5.566406 6.003906 5.890625 C 6.214844 6.214844 6.414062 6.523438 6.601562 6.8125 L 7.796875 8.664062 L 8.910156 8.664062 L 8.910156 9.351562 L 8.796875 9.351562 C 8.652344 9.328125 8.113281 9.316406 7.175781 9.316406 C 6.140625 9.316406 5.527344 9.328125 5.34375 9.351562 L 5.210938 9.351562 L 5.210938 8.664062 L 5.589844 8.664062 L 5.960938 8.652344 L 4.4375 6.3125 L 2.851562 8.652344 C 2.851562 8.660156 3.003906 8.664062 3.3125 8.664062 L 3.789062 8.664062 L 3.789062 9.351562 Z M 3.675781 9.351562 "/>
</g>
<g clip-path="url(#clip30)" clip-rule="nonzero">
<path style="fill:none;stroke-width:0.0110869;stroke-linecap:butt;stroke-linejoin:miter;stroke:rgb(30.195618%,30.195618%,30.195618%);stroke-opacity:0.0118;stroke-miterlimit:10;" d="M 205.191213 -115.351562 C 205.035679 -115.328125 204.468191 -115.316406 203.492951 -115.316406 C 202.593377 -115.316406 202.105757 -115.328125 202.042703 -115.351562 L 201.929205 -115.351562 L 201.929205 -114.664062 L 202.652227 -114.664062 L 203.362639 -114.652344 L 205.556928 -111.660156 L 203.303788 -108.433594 L 202.09735 -108.433594 L 202.09735 -107.746094 L 202.219255 -107.746094 C 202.374789 -107.765625 202.959092 -107.777344 203.972164 -107.777344 C 205.086122 -107.777344 205.74609 -107.765625 205.94366 -107.746094 L 206.086584 -107.746094 L 206.086584 -108.433594 L 205.279489 -108.433594 L 205.922642 -109.363281 L 206.574203 -110.273438 L 207.919361 -108.445312 C 207.919361 -108.4375 207.751216 -108.433594 207.41913 -108.433594 L 206.9189 -108.433594 L 206.9189 -107.746094 L 207.040805 -107.746094 C 207.196339 -107.765625 207.759624 -107.777344 208.726456 -107.777344 C 209.634437 -107.777344 210.122057 -107.765625 210.189315 -107.746094 L 210.290202 -107.746094 L 210.290202 -108.433594 L 208.860971 -108.433594 L 207.940379 -109.683594 C 207.335058 -110.519531 207.032398 -110.941406 207.032398 -110.949219 L 207.196339 -111.183594 C 207.301429 -111.328125 207.46537 -111.566406 207.696569 -111.890625 C 207.923565 -112.214844 208.137949 -112.523438 208.339723 -112.8125 L 209.62603 -114.664062 L 210.824061 -114.664062 L 210.824061 -115.351562 L 210.702156 -115.351562 C 210.546622 -115.328125 209.966523 -115.316406 208.957655 -115.316406 C 207.843696 -115.316406 207.183728 -115.328125 206.986158 -115.351562 L 206.843235 -115.351562 L 206.843235 -114.664062 L 207.250986 -114.664062 L 207.650329 -114.652344 L 206.010918 -112.3125 L 204.304249 -114.652344 C 204.304249 -114.660156 204.468191 -114.664062 204.800276 -114.664062 L 205.313118 -114.664062 L 205.313118 -115.351562 Z M 205.191213 -115.351562 " transform="matrix(0.929259,0,0,-1,-187,-106)"/>
</g>
<path style="fill-rule:nonzero;fill:rgb(30.195618%,30.195618%,30.195618%);fill-opacity:1;stroke-width:0.00783842;stroke-linecap:butt;stroke-linejoin:miter;stroke:rgb(30.195618%,30.195618%,30.195618%);stroke-opacity:0.00779999;stroke-miterlimit:10;" d="M 212.194441 -113.382812 C 212.051518 -113.382812 211.942224 -113.339844 211.866558 -113.25 C 211.78669 -113.164062 211.744654 -113.046875 211.74045 -112.90625 C 211.74045 -112.617188 211.866558 -112.363281 212.114572 -112.136719 C 212.366789 -111.914062 212.66945 -111.800781 213.026757 -111.800781 C 213.207513 -111.800781 213.325214 -111.804688 213.371454 -111.808594 C 213.758187 -111.871094 214.05244 -112.011719 214.254214 -112.222656 C 214.460191 -112.4375 214.565281 -112.671875 214.569485 -112.921875 C 214.569485 -113.195312 214.481209 -113.457031 214.304657 -113.714844 C 214.123901 -113.96875 213.880092 -114.15625 213.56482 -114.269531 L 213.543802 -114.285156 C 213.543802 -114.292969 213.56482 -114.300781 213.615264 -114.308594 C 213.661503 -114.320312 213.737169 -114.34375 213.842259 -114.378906 C 213.943146 -114.417969 214.044033 -114.472656 214.136512 -114.542969 C 214.565281 -114.820312 214.779666 -115.1875 214.779666 -115.640625 C 214.779666 -116.054688 214.619928 -116.414062 214.29625 -116.722656 C 213.972571 -117.03125 213.560617 -117.1875 213.06459 -117.1875 C 212.648431 -117.1875 212.28692 -117.074219 211.98426 -116.847656 C 211.681599 -116.625 211.530269 -116.339844 211.530269 -115.996094 C 211.530269 -115.847656 211.576509 -115.730469 211.668988 -115.640625 C 211.761468 -115.554688 211.879169 -115.507812 212.022092 -115.5 C 212.169219 -115.5 212.28692 -115.546875 212.383603 -115.640625 C 212.476083 -115.734375 212.522323 -115.855469 212.522323 -115.996094 C 212.522323 -116.050781 212.513916 -116.105469 212.501305 -116.152344 C 212.48449 -116.199219 212.467676 -116.242188 212.446658 -116.277344 C 212.42564 -116.3125 212.396214 -116.34375 212.358382 -116.371094 C 212.320549 -116.398438 212.291124 -116.417969 212.265902 -116.433594 C 212.24068 -116.449219 212.211255 -116.460938 212.186033 -116.464844 C 212.160812 -116.46875 212.139794 -116.476562 212.122979 -116.488281 L 212.093554 -116.496094 C 212.358382 -116.730469 212.68206 -116.847656 213.06459 -116.847656 C 213.350436 -116.847656 213.569024 -116.710938 213.71615 -116.433594 C 213.804426 -116.261719 213.846463 -115.996094 213.846463 -115.640625 L 213.846463 -115.484375 C 213.846463 -114.988281 213.682522 -114.65625 213.346232 -114.488281 C 213.266363 -114.457031 213.110829 -114.441406 212.86702 -114.433594 L 212.539137 -114.425781 L 212.513916 -114.410156 C 212.505508 -114.394531 212.501305 -114.355469 212.501305 -114.285156 C 212.501305 -114.191406 212.522323 -114.144531 212.564359 -114.144531 C 212.707282 -114.144531 212.862816 -114.132812 213.01835 -114.105469 C 213.194902 -114.078125 213.358843 -113.96875 213.501766 -113.777344 C 213.648893 -113.582031 213.724558 -113.289062 213.724558 -112.898438 L 213.724558 -112.835938 C 213.724558 -112.539062 213.632078 -112.332031 213.447119 -112.214844 C 213.333621 -112.144531 213.211716 -112.105469 213.081404 -112.105469 C 212.913259 -112.105469 212.757726 -112.136719 212.619006 -112.191406 C 212.476083 -112.25 212.3794 -112.3125 212.320549 -112.375 C 212.261699 -112.4375 212.232273 -112.46875 212.232273 -112.46875 L 212.257495 -112.46875 C 212.274309 -112.472656 212.295328 -112.476562 212.320549 -112.484375 C 212.345771 -112.488281 212.370993 -112.5 212.396214 -112.523438 C 212.42564 -112.542969 212.455065 -112.5625 212.492898 -112.578125 C 212.53073 -112.59375 212.555952 -112.621094 212.572766 -112.664062 C 212.585377 -112.707031 212.606395 -112.746094 212.631617 -112.78125 C 212.661042 -112.816406 212.66945 -112.871094 212.656839 -112.9375 C 212.656839 -113.050781 212.619006 -113.15625 212.547545 -113.242188 C 212.476083 -113.332031 212.358382 -113.378906 212.194441 -113.382812 Z M 212.194441 -113.382812 " transform="matrix(0.929259,0,0,-1,-187,-106)"/>
</g>
</defs>
<g id="surface1">
<g clip-path="url(#clip1)" clip-rule="nonzero">
<path style=" stroke:none;fill-rule:nonzero;fill:rgb(100%,100%,100%);fill-opacity:1;" d="M 0 0 L 221.515625 0 L 221.515625 138.933594 L 0 138.933594 Z M 0 0 "/>
</g>
<path style="fill-rule:nonzero;fill:rgb(100%,100%,100%);fill-opacity:1;stroke-width:0.685809;stroke-linecap:butt;stroke-linejoin:miter;stroke:rgb(59.999084%,59.999084%,59.999084%);stroke-opacity:1;stroke-miterlimit:10;" d="M 55.894531 1.029463 L 138.191406 1.029463 L 138.191406 83.323908 L 55.894531 83.323908 Z M 55.894531 1.029463 " transform="matrix(1,0,0,0.997941,0,0)"/>
<path style=" stroke:none;fill-rule:nonzero;fill:rgb(100%,100%,100%);fill-opacity:1;" d="M 1.027344 55.777344 L 83.324219 55.777344 L 83.324219 137.90625 L 1.027344 137.90625 Z M 1.027344 55.777344 "/>
<g clip-path="url(#clip2)" clip-rule="nonzero">
<path style="fill:none;stroke-width:0.685809;stroke-linecap:butt;stroke-linejoin:miter;stroke:rgb(59.999084%,59.999084%,59.999084%);stroke-opacity:1;stroke-miterlimit:10;" d="M 1.027344 55.892426 L 83.324219 55.892426 L 83.324219 138.190785 L 1.027344 138.190785 Z M 1.027344 55.892426 " transform="matrix(1,0,0,0.997941,0,0)"/>
</g>
<path style="fill-rule:nonzero;fill:rgb(85.488892%,90.979004%,98.822021%);fill-opacity:1;stroke-width:0.685809;stroke-linecap:butt;stroke-linejoin:miter;stroke:rgb(42.352295%,55.685425%,74.900818%);stroke-opacity:1;stroke-miterlimit:10;" d="M 1.027344 1.029463 L 55.894531 1.029463 L 55.894531 55.892426 L 1.027344 55.892426 Z M 1.027344 1.029463 " transform="matrix(1,0,0,0.997941,0,0)"/>
<path style="fill-rule:nonzero;fill:rgb(83.528137%,90.979004%,83.135986%);fill-opacity:1;stroke-width:0.685809;stroke-linecap:butt;stroke-linejoin:miter;stroke:rgb(50.979614%,70.195007%,39.99939%);stroke-opacity:1;stroke-miterlimit:10;" d="M 55.894531 55.892426 L 83.324219 55.892426 L 83.324219 83.323908 L 55.894531 83.323908 Z M 55.894531 55.892426 " transform="matrix(1,0,0,0.997941,0,0)"/>
<path style=" stroke:none;fill-rule:nonzero;fill:rgb(100%,90.194702%,79.998779%);fill-opacity:1;" d="M 83.324219 83.152344 L 138.191406 83.152344 L 138.191406 137.90625 L 83.324219 137.90625 Z M 83.324219 83.152344 "/>
<g clip-path="url(#clip3)" clip-rule="nonzero">
<path style="fill:none;stroke-width:0.685809;stroke-linecap:butt;stroke-linejoin:miter;stroke:rgb(84.312439%,60.783386%,0%);stroke-opacity:1;stroke-miterlimit:10;" d="M 83.324219 83.323908 L 138.191406 83.323908 L 138.191406 138.190785 L 83.324219 138.190785 Z M 83.324219 83.323908 " transform="matrix(1,0,0,0.997941,0,0)"/>
</g>
<path style="fill-rule:nonzero;fill:rgb(100%,100%,100%);fill-opacity:1;stroke-width:0.685809;stroke-linecap:butt;stroke-linejoin:miter;stroke:rgb(59.999084%,59.999084%,59.999084%);stroke-opacity:1;stroke-miterlimit:10;" d="M 1.027344 1.029463 L 14.746094 1.029463 L 14.746094 14.745204 L 1.027344 14.745204 Z M 1.027344 1.029463 " transform="matrix(1,0,0,0.997941,0,0)"/>
<path style="fill-rule:nonzero;fill:rgb(100%,100%,100%);fill-opacity:1;stroke-width:0.685809;stroke-linecap:butt;stroke-linejoin:miter;stroke:rgb(59.999084%,59.999084%,59.999084%);stroke-opacity:1;stroke-miterlimit:10;" d="M 14.746094 1.029463 L 28.460938 1.029463 L 28.460938 14.745204 L 14.746094 14.745204 Z M 14.746094 1.029463 " transform="matrix(1,0,0,0.997941,0,0)"/>
<path style="fill:none;stroke-width:0.685809;stroke-linecap:butt;stroke-linejoin:miter;stroke:rgb(59.999084%,59.999084%,59.999084%);stroke-opacity:1;stroke-miterlimit:10;" d="M 28.460938 1.029463 L 42.175781 1.029463 L 42.175781 14.745204 L 28.460938 14.745204 Z M 28.460938 1.029463 " transform="matrix(1,0,0,0.997941,0,0)"/>
<path style="fill-rule:nonzero;fill:rgb(100%,100%,100%);fill-opacity:1;stroke-width:0.685809;stroke-linecap:butt;stroke-linejoin:miter;stroke:rgb(59.999084%,59.999084%,59.999084%);stroke-opacity:1;stroke-miterlimit:10;" d="M 42.175781 1.029463 L 55.894531 1.029463 L 55.894531 14.745204 L 42.175781 14.745204 Z M 42.175781 1.029463 " transform="matrix(1,0,0,0.997941,0,0)"/>
<path style="fill-rule:nonzero;fill:rgb(100%,100%,100%);fill-opacity:1;stroke-width:0.685809;stroke-linecap:butt;stroke-linejoin:miter;stroke:rgb(59.999084%,59.999084%,59.999084%);stroke-opacity:1;stroke-miterlimit:10;" d="M 1.027344 14.745204 L 14.746094 14.745204 L 14.746094 28.460945 L 1.027344 28.460945 Z M 1.027344 14.745204 " transform="matrix(1,0,0,0.997941,0,0)"/>
<path style="fill-rule:nonzero;fill:rgb(100%,100%,100%);fill-opacity:1;stroke-width:0.685809;stroke-linecap:butt;stroke-linejoin:miter;stroke:rgb(59.999084%,59.999084%,59.999084%);stroke-opacity:1;stroke-miterlimit:10;" d="M 14.746094 14.745204 L 28.460938 14.745204 L 28.460938 28.460945 L 14.746094 28.460945 Z M 14.746094 14.745204 " transform="matrix(1,0,0,0.997941,0,0)"/>
<path style="fill:none;stroke-width:0.685809;stroke-linecap:butt;stroke-linejoin:miter;stroke:rgb(59.999084%,59.999084%,59.999084%);stroke-opacity:1;stroke-miterlimit:10;" d="M 28.460938 14.745204 L 42.175781 14.745204 L 42.175781 28.460945 L 28.460938 28.460945 Z M 28.460938 14.745204 " transform="matrix(1,0,0,0.997941,0,0)"/>
<path style="fill:none;stroke-width:0.685809;stroke-linecap:butt;stroke-linejoin:miter;stroke:rgb(59.999084%,59.999084%,59.999084%);stroke-opacity:1;stroke-miterlimit:10;" d="M 42.175781 14.745204 L 55.894531 14.745204 L 55.894531 28.460945 L 42.175781 28.460945 Z M 42.175781 14.745204 " transform="matrix(1,0,0,0.997941,0,0)"/>
<path style="fill:none;stroke-width:0.685809;stroke-linecap:butt;stroke-linejoin:miter;stroke:rgb(59.999084%,59.999084%,59.999084%);stroke-opacity:1;stroke-miterlimit:10;" d="M 28.460945 -1.027344 L 42.176686 -1.027344 L 42.176686 -14.746094 L 28.460945 -14.746094 Z M 28.460945 -1.027344 " transform="matrix(0,0.997941,-1,0,0,0)"/>
<path style="fill:none;stroke-width:0.685809;stroke-linecap:butt;stroke-linejoin:miter;stroke:rgb(59.999084%,59.999084%,59.999084%);stroke-opacity:1;stroke-miterlimit:10;" d="M 14.746094 28.460945 L 28.460938 28.460945 L 28.460938 42.176686 L 14.746094 42.176686 Z M 14.746094 28.460945 " transform="matrix(1,0,0,0.997941,0,0)"/>
<path style="fill-rule:nonzero;fill:rgb(100%,100%,100%);fill-opacity:1;stroke-width:0.685809;stroke-linecap:butt;stroke-linejoin:miter;stroke:rgb(59.999084%,59.999084%,59.999084%);stroke-opacity:1;stroke-miterlimit:10;" d="M 28.460938 28.460945 L 42.175781 28.460945 L 42.175781 42.176686 L 28.460938 42.176686 Z M 28.460938 28.460945 " transform="matrix(1,0,0,0.997941,0,0)"/>
<path style="fill-rule:nonzero;fill:rgb(100%,100%,100%);fill-opacity:1;stroke-width:0.685809;stroke-linecap:butt;stroke-linejoin:miter;stroke:rgb(59.999084%,59.999084%,59.999084%);stroke-opacity:1;stroke-miterlimit:10;" d="M 42.175781 28.460945 L 55.894531 28.460945 L 55.894531 42.176686 L 42.175781 42.176686 Z M 42.175781 28.460945 " transform="matrix(1,0,0,0.997941,0,0)"/>
<path style="fill-rule:nonzero;fill:rgb(100%,100%,100%);fill-opacity:1;stroke-width:0.685809;stroke-linecap:butt;stroke-linejoin:miter;stroke:rgb(59.999084%,59.999084%,59.999084%);stroke-opacity:1;stroke-miterlimit:10;" d="M 1.027344 42.176686 L 14.746094 42.176686 L 14.746094 55.892426 L 1.027344 55.892426 Z M 1.027344 42.176686 " transform="matrix(1,0,0,0.997941,0,0)"/>
<path style="fill:none;stroke-width:0.685809;stroke-linecap:butt;stroke-linejoin:miter;stroke:rgb(59.999084%,59.999084%,59.999084%);stroke-opacity:1;stroke-miterlimit:10;" d="M 14.746094 42.176686 L 28.460938 42.176686 L 28.460938 55.892426 L 14.746094 55.892426 Z M 14.746094 42.176686 " transform="matrix(1,0,0,0.997941,0,0)"/>
<path style="fill-rule:nonzero;fill:rgb(100%,100%,100%);fill-opacity:1;stroke-width:0.685809;stroke-linecap:butt;stroke-linejoin:miter;stroke:rgb(59.999084%,59.999084%,59.999084%);stroke-opacity:1;stroke-miterlimit:10;" d="M 28.460938 42.176686 L 42.175781 42.176686 L 42.175781 55.892426 L 28.460938 55.892426 Z M 28.460938 42.176686 " transform="matrix(1,0,0,0.997941,0,0)"/>
<path style="fill-rule:nonzero;fill:rgb(100%,100%,100%);fill-opacity:1;stroke-width:0.685809;stroke-linecap:butt;stroke-linejoin:miter;stroke:rgb(59.999084%,59.999084%,59.999084%);stroke-opacity:1;stroke-miterlimit:10;" d="M 42.175781 42.176686 L 55.894531 42.176686 L 55.894531 55.892426 L 42.175781 55.892426 Z M 42.175781 42.176686 " transform="matrix(1,0,0,0.997941,0,0)"/>
<path style="fill-rule:nonzero;fill:rgb(100%,100%,100%);fill-opacity:1;stroke-width:0.685809;stroke-linecap:butt;stroke-linejoin:miter;stroke:rgb(59.999084%,59.999084%,59.999084%);stroke-opacity:1;stroke-miterlimit:10;" d="M 55.894531 55.892426 L 69.609375 55.892426 L 69.609375 69.608167 L 55.894531 69.608167 Z M 55.894531 55.892426 " transform="matrix(1,0,0,0.997941,0,0)"/>
<path style="fill:none;stroke-width:0.685809;stroke-linecap:butt;stroke-linejoin:miter;stroke:rgb(59.999084%,59.999084%,59.999084%);stroke-opacity:1;stroke-miterlimit:10;" d="M 69.609375 55.892426 L 83.324219 55.892426 L 83.324219 69.608167 L 69.609375 69.608167 Z M 69.609375 55.892426 " transform="matrix(1,0,0,0.997941,0,0)"/>
<path style="fill:none;stroke-width:0.685809;stroke-linecap:butt;stroke-linejoin:miter;stroke:rgb(59.999084%,59.999084%,59.999084%);stroke-opacity:1;stroke-miterlimit:10;" d="M 55.894531 69.608167 L 69.609375 69.608167 L 69.609375 83.323908 L 55.894531 83.323908 Z M 55.894531 69.608167 " transform="matrix(1,0,0,0.997941,0,0)"/>
<path style="fill-rule:nonzero;fill:rgb(100%,100%,100%);fill-opacity:1;stroke-width:0.685809;stroke-linecap:butt;stroke-linejoin:miter;stroke:rgb(59.999084%,59.999084%,59.999084%);stroke-opacity:1;stroke-miterlimit:10;" d="M 69.609375 69.608167 L 83.324219 69.608167 L 83.324219 83.323908 L 69.609375 83.323908 Z M 69.609375 69.608167 " transform="matrix(1,0,0,0.997941,0,0)"/>
<path style="fill-rule:nonzero;fill:rgb(100%,100%,100%);fill-opacity:1;stroke-width:0.685809;stroke-linecap:butt;stroke-linejoin:miter;stroke:rgb(59.999084%,59.999084%,59.999084%);stroke-opacity:1;stroke-miterlimit:10;" d="M 83.324219 83.323908 L 97.042969 83.323908 L 97.042969 97.043563 L 83.324219 97.043563 Z M 83.324219 83.323908 " transform="matrix(1,0,0,0.997941,0,0)"/>
<path style="fill:none;stroke-width:0.685809;stroke-linecap:butt;stroke-linejoin:miter;stroke:rgb(59.999084%,59.999084%,59.999084%);stroke-opacity:1;stroke-miterlimit:10;" d="M 97.042969 83.323908 L 110.757812 83.323908 L 110.757812 97.043563 L 97.042969 97.043563 Z M 97.042969 83.323908 " transform="matrix(1,0,0,0.997941,0,0)"/>
<path style="fill:none;stroke-width:0.685809;stroke-linecap:butt;stroke-linejoin:miter;stroke:rgb(59.999084%,59.999084%,59.999084%);stroke-opacity:1;stroke-miterlimit:10;" d="M 83.324219 97.043563 L 97.042969 97.043563 L 97.042969 110.759303 L 83.324219 110.759303 Z M 83.324219 97.043563 " transform="matrix(1,0,0,0.997941,0,0)"/>
<path style="fill-rule:nonzero;fill:rgb(100%,100%,100%);fill-opacity:1;stroke-width:0.685809;stroke-linecap:butt;stroke-linejoin:miter;stroke:rgb(59.999084%,59.999084%,59.999084%);stroke-opacity:1;stroke-miterlimit:10;" d="M 97.042969 97.043563 L 110.757812 97.043563 L 110.757812 110.759303 L 97.042969 110.759303 Z M 97.042969 97.043563 " transform="matrix(1,0,0,0.997941,0,0)"/>
<path style="fill:none;stroke-width:0.685809;stroke-linecap:butt;stroke-linejoin:miter;stroke:rgb(59.999084%,59.999084%,59.999084%);stroke-opacity:1;stroke-miterlimit:10;" d="M 83.324219 110.759303 L 97.042969 110.759303 L 97.042969 124.475044 L 83.324219 124.475044 Z M 83.324219 110.759303 " transform="matrix(1,0,0,0.997941,0,0)"/>
<path style="fill:none;stroke-width:0.685809;stroke-linecap:butt;stroke-linejoin:miter;stroke:rgb(59.999084%,59.999084%,59.999084%);stroke-opacity:1;stroke-miterlimit:10;" d="M 97.042969 110.759303 L 110.757812 110.759303 L 110.757812 124.475044 L 97.042969 124.475044 Z M 97.042969 110.759303 " transform="matrix(1,0,0,0.997941,0,0)"/>
<path style=" stroke:none;fill-rule:nonzero;fill:rgb(100%,100%,100%);fill-opacity:1;" d="M 83.324219 124.21875 L 97.042969 124.21875 L 97.042969 137.90625 L 83.324219 137.90625 Z M 83.324219 124.21875 "/>
<g clip-path="url(#clip4)" clip-rule="nonzero">
<path style="fill:none;stroke-width:0.685809;stroke-linecap:butt;stroke-linejoin:miter;stroke:rgb(59.999084%,59.999084%,59.999084%);stroke-opacity:1;stroke-miterlimit:10;" d="M 83.324219 124.475044 L 97.042969 124.475044 L 97.042969 138.190785 L 83.324219 138.190785 Z M 83.324219 124.475044 " transform="matrix(1,0,0,0.997941,0,0)"/>
</g>
<g clip-path="url(#clip5)" clip-rule="nonzero">
<path style="fill:none;stroke-width:0.685809;stroke-linecap:butt;stroke-linejoin:miter;stroke:rgb(59.999084%,59.999084%,59.999084%);stroke-opacity:1;stroke-miterlimit:10;" d="M 97.042969 124.475044 L 110.757812 124.475044 L 110.757812 138.190785 L 97.042969 138.190785 Z M 97.042969 124.475044 " transform="matrix(1,0,0,0.997941,0,0)"/>
</g>
<path style="fill-rule:nonzero;fill:rgb(100%,100%,100%);fill-opacity:1;stroke-width:0.685809;stroke-linecap:butt;stroke-linejoin:miter;stroke:rgb(59.999084%,59.999084%,59.999084%);stroke-opacity:1;stroke-miterlimit:10;" d="M 110.757812 110.759303 L 124.472656 110.759303 L 124.472656 124.475044 L 110.757812 124.475044 Z M 110.757812 110.759303 " transform="matrix(1,0,0,0.997941,0,0)"/>
<path style="fill:none;stroke-width:0.685809;stroke-linecap:butt;stroke-linejoin:miter;stroke:rgb(59.999084%,59.999084%,59.999084%);stroke-opacity:1;stroke-miterlimit:10;" d="M 124.472656 110.759303 L 138.191406 110.759303 L 138.191406 124.475044 L 124.472656 124.475044 Z M 124.472656 110.759303 " transform="matrix(1,0,0,0.997941,0,0)"/>
<g clip-path="url(#clip6)" clip-rule="nonzero">
<path style="fill:none;stroke-width:0.685809;stroke-linecap:butt;stroke-linejoin:miter;stroke:rgb(59.999084%,59.999084%,59.999084%);stroke-opacity:1;stroke-miterlimit:10;" d="M 110.757812 124.475044 L 124.472656 124.475044 L 124.472656 138.190785 L 110.757812 138.190785 Z M 110.757812 124.475044 " transform="matrix(1,0,0,0.997941,0,0)"/>
</g>
<path style=" stroke:none;fill-rule:nonzero;fill:rgb(100%,100%,100%);fill-opacity:1;" d="M 124.472656 124.21875 L 138.191406 124.21875 L 138.191406 137.90625 L 124.472656 137.90625 Z M 124.472656 124.21875 "/>
<g clip-path="url(#clip7)" clip-rule="nonzero">
<path style="fill:none;stroke-width:0.685809;stroke-linecap:butt;stroke-linejoin:miter;stroke:rgb(59.999084%,59.999084%,59.999084%);stroke-opacity:1;stroke-miterlimit:10;" d="M 124.472656 124.475044 L 138.191406 124.475044 L 138.191406 138.190785 L 124.472656 138.190785 Z M 124.472656 124.475044 " transform="matrix(1,0,0,0.997941,0,0)"/>
</g>
<path style="fill:none;stroke-width:0.685809;stroke-linecap:butt;stroke-linejoin:miter;stroke:rgb(59.999084%,59.999084%,59.999084%);stroke-opacity:1;stroke-miterlimit:10;" d="M 110.757812 83.323908 L 124.472656 83.323908 L 124.472656 97.043563 L 110.757812 97.043563 Z M 110.757812 83.323908 " transform="matrix(1,0,0,0.997941,0,0)"/>
<path style="fill-rule:nonzero;fill:rgb(100%,100%,100%);fill-opacity:1;stroke-width:0.685809;stroke-linecap:butt;stroke-linejoin:miter;stroke:rgb(59.999084%,59.999084%,59.999084%);stroke-opacity:1;stroke-miterlimit:10;" d="M 124.472656 83.323908 L 138.191406 83.323908 L 138.191406 97.043563 L 124.472656 97.043563 Z M 124.472656 83.323908 " transform="matrix(1,0,0,0.997941,0,0)"/>
<path style="fill:none;stroke-width:0.685809;stroke-linecap:butt;stroke-linejoin:miter;stroke:rgb(59.999084%,59.999084%,59.999084%);stroke-opacity:1;stroke-miterlimit:10;" d="M 110.757812 97.043563 L 124.472656 97.043563 L 124.472656 110.759303 L 110.757812 110.759303 Z M 110.757812 97.043563 " transform="matrix(1,0,0,0.997941,0,0)"/>
<path style="fill:none;stroke-width:0.685809;stroke-linecap:butt;stroke-linejoin:miter;stroke:rgb(59.999084%,59.999084%,59.999084%);stroke-opacity:1;stroke-miterlimit:10;" d="M 124.472656 97.043563 L 138.191406 97.043563 L 138.191406 110.759303 L 124.472656 110.759303 Z M 124.472656 97.043563 " transform="matrix(1,0,0,0.997941,0,0)"/>
<path style="fill-rule:nonzero;fill:rgb(85.488892%,90.979004%,98.822021%);fill-opacity:1;stroke-width:0.685809;stroke-linecap:butt;stroke-linejoin:miter;stroke:rgb(42.352295%,55.685425%,74.900818%);stroke-opacity:1;stroke-miterlimit:10;" d="M 165.621094 1.029463 L 220.488281 1.029463 L 220.488281 55.892426 L 165.621094 55.892426 Z M 165.621094 1.029463 " transform="matrix(1,0,0,0.997941,0,0)"/>
<path style="fill-rule:nonzero;fill:rgb(83.528137%,90.979004%,83.135986%);fill-opacity:1;stroke-width:0.685809;stroke-linecap:butt;stroke-linejoin:miter;stroke:rgb(50.979614%,70.195007%,39.99939%);stroke-opacity:1;stroke-miterlimit:10;" d="M 165.621094 55.892426 L 220.488281 55.892426 L 220.488281 83.323908 L 165.621094 83.323908 Z M 165.621094 55.892426 " transform="matrix(1,0,0,0.997941,0,0)"/>
<path style=" stroke:none;fill-rule:nonzero;fill:rgb(100%,90.194702%,79.998779%);fill-opacity:1;" d="M 165.621094 83.152344 L 220.488281 83.152344 L 220.488281 137.90625 L 165.621094 137.90625 Z M 165.621094 83.152344 "/>
<g clip-path="url(#clip8)" clip-rule="nonzero">
<path style="fill:none;stroke-width:0.685809;stroke-linecap:butt;stroke-linejoin:miter;stroke:rgb(84.312439%,60.783386%,0%);stroke-opacity:1;stroke-miterlimit:10;" d="M 165.621094 83.323908 L 220.488281 83.323908 L 220.488281 138.190785 L 165.621094 138.190785 Z M 165.621094 83.323908 " transform="matrix(1,0,0,0.997941,0,0)"/>
</g>
<path style="fill:none;stroke-width:0.685809;stroke-linecap:butt;stroke-linejoin:miter;stroke:rgb(59.999084%,59.999084%,59.999084%);stroke-opacity:1;stroke-miterlimit:10;" d="M 165.621094 83.323908 L 220.488281 83.323908 L 220.488281 97.043563 L 165.621094 97.043563 Z M 165.621094 83.323908 " transform="matrix(1,0,0,0.997941,0,0)"/>
<path style="fill:none;stroke-width:0.685809;stroke-linecap:butt;stroke-linejoin:miter;stroke:rgb(59.999084%,59.999084%,59.999084%);stroke-opacity:1;stroke-miterlimit:10;" d="M 165.621094 97.043563 L 220.488281 97.043563 L 220.488281 110.759303 L 165.621094 110.759303 Z M 165.621094 97.043563 " transform="matrix(1,0,0,0.997941,0,0)"/>
<path style="fill:none;stroke-width:0.685809;stroke-linecap:butt;stroke-linejoin:miter;stroke:rgb(59.999084%,59.999084%,59.999084%);stroke-opacity:1;stroke-miterlimit:10;" d="M 165.621094 110.759303 L 220.488281 110.759303 L 220.488281 124.475044 L 165.621094 124.475044 Z M 165.621094 110.759303 " transform="matrix(1,0,0,0.997941,0,0)"/>
<g clip-path="url(#clip9)" clip-rule="nonzero">
<path style="fill:none;stroke-width:0.685809;stroke-linecap:butt;stroke-linejoin:miter;stroke:rgb(59.999084%,59.999084%,59.999084%);stroke-opacity:1;stroke-miterlimit:10;" d="M 165.621094 124.475044 L 220.488281 124.475044 L 220.488281 138.190785 L 165.621094 138.190785 Z M 165.621094 124.475044 " transform="matrix(1,0,0,0.997941,0,0)"/>
</g>
<path style="fill:none;stroke-width:0.685809;stroke-linecap:butt;stroke-linejoin:miter;stroke:rgb(59.999084%,59.999084%,59.999084%);stroke-opacity:1;stroke-miterlimit:10;" d="M 165.621094 1.029463 L 220.488281 1.029463 L 220.488281 14.745204 L 165.621094 14.745204 Z M 165.621094 1.029463 " transform="matrix(1,0,0,0.997941,0,0)"/>
<path style="fill:none;stroke-width:0.685809;stroke-linecap:butt;stroke-linejoin:miter;stroke:rgb(59.999084%,59.999084%,59.999084%);stroke-opacity:1;stroke-miterlimit:10;" d="M 165.621094 14.745204 L 220.488281 14.745204 L 220.488281 28.460945 L 165.621094 28.460945 Z M 165.621094 14.745204 " transform="matrix(1,0,0,0.997941,0,0)"/>
<path style="fill:none;stroke-width:0.685809;stroke-linecap:butt;stroke-linejoin:miter;stroke:rgb(59.999084%,59.999084%,59.999084%);stroke-opacity:1;stroke-miterlimit:10;" d="M 165.621094 28.460945 L 220.488281 28.460945 L 220.488281 42.176686 L 165.621094 42.176686 Z M 165.621094 28.460945 " transform="matrix(1,0,0,0.997941,0,0)"/>
<path style="fill:none;stroke-width:0.685809;stroke-linecap:butt;stroke-linejoin:miter;stroke:rgb(59.999084%,59.999084%,59.999084%);stroke-opacity:1;stroke-miterlimit:10;" d="M 165.621094 42.176686 L 220.488281 42.176686 L 220.488281 55.892426 L 165.621094 55.892426 Z M 165.621094 42.176686 " transform="matrix(1,0,0,0.997941,0,0)"/>
<path style="fill:none;stroke-width:0.685809;stroke-linecap:butt;stroke-linejoin:miter;stroke:rgb(59.999084%,59.999084%,59.999084%);stroke-opacity:1;stroke-miterlimit:10;" d="M 165.621094 55.892426 L 220.488281 55.892426 L 220.488281 69.608167 L 165.621094 69.608167 Z M 165.621094 55.892426 " transform="matrix(1,0,0,0.997941,0,0)"/>
<path style="fill:none;stroke-width:0.685809;stroke-linecap:butt;stroke-linejoin:miter;stroke:rgb(59.999084%,59.999084%,59.999084%);stroke-opacity:1;stroke-miterlimit:10;" d="M 165.621094 69.608167 L 220.488281 69.608167 L 220.488281 83.323908 L 165.621094 83.323908 Z M 165.621094 69.608167 " transform="matrix(1,0,0,0.997941,0,0)"/>
<g clip-path="url(#clip10)" clip-rule="nonzero">
<use xlink:href="#surface7" transform="matrix(1,0,0,1,24,21)"/>
</g>
<g clip-path="url(#clip14)" clip-rule="nonzero">
<use xlink:href="#surface10" transform="matrix(1,0,0,1,64,63)"/>
</g>
<g clip-path="url(#clip17)" clip-rule="nonzero">
<use xlink:href="#surface13" transform="matrix(1,0,0,1,104,106)"/>
</g>
<g clip-path="url(#clip19)" clip-rule="nonzero">
<use xlink:href="#surface16" transform="matrix(1,0,0,1,187,21)"/>
</g>
<g clip-path="url(#clip23)" clip-rule="nonzero">
<use xlink:href="#surface19" transform="matrix(1,0,0,1,187,63)"/>
</g>
<g clip-path="url(#clip27)" clip-rule="nonzero">
<use xlink:href="#surface18" transform="matrix(1,0,0,1,187,106)"/>
</g>
</g>
</svg>
