<?xml version="1.0" encoding="UTF-8" standalone="no"?>
<svg
   xmlns:dc="http://purl.org/dc/elements/1.1/"
   xmlns:cc="http://creativecommons.org/ns#"
   xmlns:rdf="http://www.w3.org/1999/02/22-rdf-syntax-ns#"
   xmlns:svg="http://www.w3.org/2000/svg"
   xmlns="http://www.w3.org/2000/svg"
   xmlns:sodipodi="http://sodipodi.sourceforge.net/DTD/sodipodi-0.dtd"
   xmlns:inkscape="http://www.inkscape.org/namespaces/inkscape"
   height="444.62939"
   width="1439.6559"
   version="1.1"
   id="svg"
   sodipodi:docname="logo_light.svg"
   inkscape:version="0.92.4 (33fec40, 2019-01-16)">
  <sodipodi:namedview
     pagecolor="#ffffff"
     bordercolor="#666666"
     borderopacity="1"
     objecttolerance="10"
     gridtolerance="10"
     guidetolerance="10"
     inkscape:pageopacity="0"
     inkscape:pageshadow="2"
     inkscape:window-width="710"
     inkscape:window-height="480"
     id="namedview9"
     showgrid="false"
     inkscape:zoom="0.22505378"
     inkscape:cx="719.82794"
     inkscape:cy="222.3147"
     inkscape:window-x="59"
     inkscape:window-y="34"
     inkscape:window-maximized="0"
     inkscape:current-layer="svg" />
  <metadata
     id="metadata9">
    <rdf:RDF>
      <cc:Work
         rdf:about="">
        <dc:format>image/svg+xml</dc:format>
        <dc:type
           rdf:resource="http://purl.org/dc/dcmitype/StillImage" />
        <dc:title />
      </cc:Work>
    </rdf:RDF>
  </metadata>
  <defs
     id="defs7" />
  <g
     style="fill:#f9f9f9;fill-opacity:1"
     transform="translate(-0.01501269,-0.03066679)"
     id="svgg">
    <path
       style="fill:#f9f9f9;fill-rule:evenodd;stroke:none;fill-opacity:1"
       d="M 188.426,0.559 C 86.468,8.112 9.44,81.886 0.977,180.093 c -1.265,14.677 -1.29,203.325 -0.03,223.082 1.925,30.177 7.493,40.454 21.985,40.586 7.459,0.068 10.02,-1.571 21.846,-13.984 35.629,-37.395 41.273,-39.072 58.428,-17.365 3.584,4.536 9.016,11.395 12.072,15.243 19.543,24.615 36.692,22.515 57.054,-6.986 21.099,-30.569 33.347,-30.436 57.757,0.627 25.859,32.908 40.883,31.464 72.246,-6.944 18.011,-22.057 24.208,-21.449 45.959,4.507 18.736,22.36 22.04,25.031 30.846,24.949 11.214,-0.106 15.663,-4.847 18.663,-19.889 1.954,-9.795 3.089,-220.725 1.305,-242.438 C 390.308,74.393 295.125,-7.345 188.426,0.559 m -12.987,130.394 c 36.641,13.922 46.716,60.421 18.999,87.689 -30.287,29.797 -80.647,14.088 -89.447,-27.901 -8.279,-39.503 32.577,-74.177 70.448,-59.788 m 162.037,0 c 36.641,13.922 46.716,60.421 18.999,87.689 -30.287,29.797 -80.647,14.088 -89.447,-27.901 -8.279,-39.503 32.577,-74.177 70.448,-59.788 m -167.673,26.756 c -24.073,9.08 -19.9,44.958 5.533,47.563 17.322,1.775 31.038,-14.651 26.181,-31.356 -3.795,-13.057 -19.197,-20.928 -31.714,-16.207 m 162.037,0 c -24.073,9.08 -19.9,44.958 5.533,47.563 17.322,1.775 31.038,-14.651 26.181,-31.356 -3.795,-13.057 -19.197,-20.928 -31.714,-16.207"
       id="path0" />
  </g>
  <g
     aria-label="Spektral"
     style="font-style:normal;font-variant:normal;font-weight:normal;font-stretch:normal;font-size:308.96368408px;line-height:1.25;font-family:'Brandon Grotesque';-inkscape-font-specification:'Brandon Grotesque';letter-spacing:0px;word-spacing:0px;fill:#f9f9f9;fill-opacity:1;stroke:none;stroke-width:7.72409248"
     id="text821">
    <path
       d="m 487.4587,329.81025 q -5.56135,-4.63445 -1.85378,-10.50476 0.92689,-0.92689 2.47171,-2.78068 1.54482,-2.16274 2.16274,-3.08963 5.56135,-7.41513 10.81373,-2.78068 27.49777,23.48124 52.21486,23.48124 18.22886,0 29.66052,-9.88683 11.74062,-9.88684 11.74062,-24.09917 0,-15.13922 -12.97648,-25.95295 -12.66751,-11.12269 -41.09217,-22.86331 -28.42466,-12.35855 -41.40113,-25.64399 -12.97647,-13.5944 -12.97647,-38.3115 0,-8.65098 3.3986,-17.61093 3.70756,-8.95994 10.81372,-17.61093 7.41513,-8.65098 20.70057,-14.21233 13.5944,-5.56134 30.89637,-5.56134 13.5944,0 26.57088,4.01653 13.28544,4.01652 19.77367,7.72409 l 6.48824,4.01653 q 2.16275,0.92689 3.08964,3.3986 0.92689,2.47171 -1.23586,7.10616 -0.61793,0.92689 -1.85378,3.08964 -1.23585,1.85378 -1.85378,2.78067 -4.32549,6.48824 -10.81373,2.78067 -25.02606,-14.21233 -40.47424,-14.21233 -21.93643,0 -32.44119,10.81373 -10.1958,10.81373 -10.1958,23.17228 0,14.83026 10.1958,25.02606 10.50476,9.88684 31.5143,18.53782 35.53082,14.52129 51.90589,29.04259 16.68404,14.52129 16.68404,39.54735 0,23.7902 -19.77367,39.85631 -19.46471,15.75715 -46.96248,15.75715 -16.37508,0 -32.44119,-5.87031 -15.75715,-6.17927 -22.24538,-10.50476 -6.17928,-4.63446 -10.50477,-8.65099 z"
       style="fill:#f9f9f9;fill-opacity:1;stroke-width:7.72409248"
       id="path819" />
    <path
       d="m 673.8845,344.64051 v 93.92496 q 0,2.16274 -1.85378,4.01653 -1.54482,1.85378 -4.01653,1.85378 h -9.57788 q -2.16274,0 -4.01652,-1.85378 -1.85379,-1.85379 -1.85379,-4.01653 V 234.03151 q 0,-2.16275 1.85379,-4.01653 1.85378,-1.85378 4.01652,-1.85378 h 6.48824 q 3.3986,0 4.94342,4.01653 l 2.16275,5.87031 q 1.54481,-1.54482 4.32549,-3.70757 3.08963,-2.16274 12.35854,-5.56134 9.26891,-3.70757 19.15575,-3.70757 25.02606,0 41.7101,19.15575 16.68404,19.15575 16.68404,46.03559 0,27.1888 -16.993,46.03559 -16.99301,18.53782 -42.32803,18.53782 -8.95995,0 -17.30196,-2.47171 -8.34202,-2.47171 -12.04959,-4.94342 z m 0.30896,-21.3185 q 12.97648,10.81373 29.96948,10.81373 17.61093,0 29.04258,-12.66751 11.43166,-12.66751 11.43166,-31.51429 0,-18.84679 -10.50476,-32.13223 -10.50477,-13.28543 -28.42466,-13.28543 -8.95995,0 -16.99301,4.01652 -7.72409,3.70757 -11.12269,7.41513 l -3.3986,3.70757 z"
       style="fill:#f9f9f9;fill-opacity:1;stroke-width:7.72409248"
       id="path821" />
    <path
       d="m 792.34793,289.95394 q 0,-27.18881 16.68404,-46.03559 16.68404,-18.84679 43.87285,-18.84679 24.40813,0 40.16528,16.06611 15.75714,16.06612 15.75714,40.47425 0,4.01653 -0.61792,8.34202 -0.61793,5.25238 -5.56135,5.25238 h -88.98154 q 0.92689,15.75715 12.97647,28.11569 12.35855,12.04959 28.42466,12.04959 15.44819,0 30.58741,-9.26891 4.01653,-2.16275 4.94342,-2.47171 0.92689,-0.30897 3.70756,1.85378 0.92689,1.23586 2.47171,3.70756 1.85378,2.16275 2.78067,3.39861 1.85379,2.4717 1.85379,4.01652 0,1.54482 -3.08964,4.01653 -17.9199,14.21233 -45.41766,14.21233 -27.18881,0 -43.87285,-18.53782 -16.68404,-18.84679 -16.68404,-46.34455 z m 21.62746,-12.04959 h 73.53336 q -0.61793,-13.5944 -10.81373,-23.7902 -9.88684,-10.1958 -23.7902,-10.1958 -15.44819,0 -26.57088,9.88684 -10.81373,9.57787 -12.35855,24.09916 z"
       style="fill:#f9f9f9;fill-opacity:1;stroke-width:7.72409248"
       id="path823" />
    <path
       d="M 942.8229,345.87636 V 141.3424 q 0,-2.16274 1.85378,-4.01652 1.85378,-1.85379 4.01653,-1.85379 h 9.57787 q 2.47171,0 4.01653,1.85379 1.85378,1.85378 1.85378,4.01652 v 133.78128 l 52.52381,-43.25492 q 4.3255,-3.70756 7.4151,-3.70756 h 16.6841 q 3.7076,0 4.0165,3.08964 0.6179,3.08963 -1.2358,4.63445 l -58.70314,46.96248 68.28094,61.17481 q 2.1628,1.54482 1.2359,4.63446 -0.6179,3.08963 -4.3255,3.08963 h -16.993 q -2.7807,0 -6.1793,-2.47171 l -62.71961,-59.62999 v 56.23139 q 0,2.16275 -1.85378,4.01653 -1.54482,1.85378 -4.01653,1.85378 h -9.57787 q -2.16275,0 -4.01653,-1.85378 -1.85378,-1.85378 -1.85378,-4.01653 z"
       style="fill:#f9f9f9;fill-opacity:1;stroke-width:7.72409248"
       id="path825" />
    <path
       d="m 1087.529,320.85031 v -74.15129 h -15.7572 q -2.4717,0 -4.3255,-1.54482 -1.5448,-1.85378 -1.5448,-4.32549 v -6.7972 q 0,-5.87031 5.8703,-5.87031 h 15.7572 v -34.29497 q 0,-2.16274 1.5448,-4.01653 1.8538,-1.85378 4.3255,-1.85378 l 9.8868,-0.61793 q 2.1627,0 3.7076,1.85379 1.8538,1.54481 1.8538,4.01652 v 34.9129 h 35.8397 q 5.8703,0 5.8703,5.87031 v 6.7972 q 0,2.47171 -1.8537,4.32549 -1.5449,1.54482 -4.0166,1.54482 h -35.8397 v 72.2975 q 0,8.95995 2.1627,12.04959 2.4717,2.78067 8.0331,2.78067 9.8868,0 22.5543,-6.7972 4.6345,-2.47171 7.4151,1.85378 l 4.6345,7.72409 q 2.7807,4.63446 -2.1628,7.7241 -4.9434,3.08963 -15.4481,6.7972 -10.5048,3.70756 -20.0827,3.70756 -16.993,0 -22.8633,-8.65098 -5.5613,-8.65099 -5.5613,-25.33502 z"
       style="fill:#f9f9f9;fill-opacity:1;stroke-width:7.72409248"
       id="path827" />
    <path
       d="M 1185.0987,345.87636 V 234.03151 q 0,-2.16275 1.5448,-4.01653 1.8538,-1.85378 4.3255,-1.85378 h 5.8703 q 4.3255,0 5.2524,4.32549 l 2.4717,8.95995 q 0.6179,-0.61793 1.2359,-1.54482 0.9268,-1.23585 4.3254,-4.01653 3.3986,-3.08963 7.4152,-5.25238 4.0165,-2.16275 10.5047,-3.70756 6.4883,-1.85379 13.5944,-1.85379 4.0166,0 7.7241,0.61793 3.7076,0.30896 7.4152,1.23586 4.0165,0.92689 5.8703,3.08963 1.8538,2.16275 0.6179,5.25238 l -3.7076,10.50477 q -1.8538,4.94342 -7.4151,2.78067 -5.5613,-2.47171 -12.0496,-2.47171 -10.5047,0 -18.8468,4.3255 -8.342,4.32549 -11.7406,8.65098 l -3.0896,4.32549 v 82.4933 q 0,2.16275 -1.8538,4.01653 -1.8538,1.85378 -4.0165,1.85378 h -9.5779 q -2.4717,0 -4.3255,-1.85378 -1.5448,-1.85378 -1.5448,-4.01653 z"
       style="fill:#f9f9f9;fill-opacity:1;stroke-width:7.72409248"
       id="path829" />
    <path
       d="m 1290.1416,343.71362 q -10.8138,-11.12269 -10.8138,-29.35155 0,-18.22886 12.9765,-29.66052 13.2854,-11.43165 36.4577,-11.43165 5.8703,0 12.3586,0.92689 6.7972,0.92689 10.5047,2.16274 l 3.3986,0.9269 q 0.309,-18.53783 -3.7075,-25.95295 -3.7076,-7.41513 -16.3751,-7.41513 -19.4647,0 -37.0757,6.7972 -4.3254,1.85378 -5.8703,-3.08964 l -2.4717,-7.72409 q -1.5448,-4.63446 3.3986,-6.7972 1.8538,-0.92689 6.4883,-2.47171 4.9434,-1.54482 15.4481,-3.3986 10.5048,-2.16275 21.0096,-2.16275 22.8633,0 30.8963,12.04959 8.3421,11.74062 8.3421,40.16528 v 68.58993 q 0,2.16275 -1.8538,4.01653 -1.8538,1.85378 -4.0165,1.85378 h -5.8704 q -3.7075,0 -5.2523,-4.63445 l -2.4717,-8.34202 q -16.0662,16.06611 -38.3115,16.06611 -16.3751,0 -27.1888,-11.12269 z m 8.9599,-29.35155 q 0,9.57787 5.8703,15.75715 5.8703,6.17927 15.7572,6.17927 10.8137,0 20.0826,-5.25238 9.2689,-5.56135 13.9034,-12.04959 v -24.40813 q -8.3421,-4.94342 -25.953,-4.94342 -13.2854,0 -21.6274,6.48824 -8.0331,6.48824 -8.0331,18.22886 z"
       style="fill:#f9f9f9;fill-opacity:1;stroke-width:7.72409248"
       id="path831" />
    <path
       d="M 1418.3373,345.87636 V 141.3424 q 0,-2.16274 1.8538,-4.01652 1.8538,-1.85379 4.0165,-1.85379 h 9.5779 q 2.4717,0 4.0165,1.85379 1.8538,1.85378 1.8538,4.01652 v 204.53396 q 0,2.16275 -1.8538,4.01653 -1.5448,1.85378 -4.0165,1.85378 h -9.5779 q -2.1627,0 -4.0165,-1.85378 -1.8538,-1.85378 -1.8538,-4.01653 z"
       style="fill:#f9f9f9;fill-opacity:1;stroke-width:7.72409248"
       id="path833" />
  </g>
</svg>
